{"glyphs":{"0":{"ha":844,"x_min":56,"x_max":840,"o":"m 347 415 q 353 294 347 356 q 382 188 360 232 q 425 178 400 178 q 490 207 465 178 q 528 281 514 236 q 546 380 542 326 q 550 483 550 433 q 549 550 550 515 q 542 617 547 585 q 530 679 538 650 q 510 732 522 708 q 495 736 503 735 q 481 738 488 738 q 405 705 432 738 q 365 623 378 672 q 350 517 353 574 q 347 415 347 461 m 419 1018 q 581 985 515 1018 q 690 893 647 951 l 714 869 q 776 782 751 832 q 815 675 800 732 q 835 556 829 618 q 840 429 840 493 q 826 235 840 331 q 772 65 811 140 q 662 -56 732 -10 q 479 -101 592 -101 q 340 -78 399 -101 q 240 -14 282 -56 l 218 7 q 138 92 169 42 q 88 203 107 142 q 63 334 69 265 q 56 475 56 403 q 143 876 56 749 q 419 1018 243 1018 m 425 817 q 505 785 475 817 q 551 706 535 754 q 573 598 568 657 q 578 483 578 539 q 572 371 578 429 q 551 263 567 313 q 505 182 535 214 q 425 150 475 150 q 344 180 375 150 q 296 256 313 210 q 274 360 279 303 q 268 471 268 417 q 272 581 268 521 q 290 693 275 640 q 337 781 306 746 q 425 817 368 817 m 419 990 q 165 860 257 990 q 83 475 83 740 q 97 291 83 381 q 149 132 111 201 q 253 20 188 63 q 424 -22 319 -22 q 594 22 528 -22 q 697 137 660 65 q 748 299 735 208 q 761 485 761 390 q 747 670 761 579 q 696 832 733 761 q 592 947 658 903 q 419 990 525 990 z "},"1":{"ha":521,"x_min":32,"x_max":517,"o":"m 465 1000 l 465 992 l 517 940 l 517 -79 l 286 -79 l 235 -28 l 226 -28 l 226 719 l 107 719 l 56 771 l 47 771 q 88 936 32 872 q 267 1000 144 1000 l 465 1000 m 267 972 q 111 924 161 972 q 72 799 61 875 l 254 799 l 254 0 l 438 0 l 438 972 l 267 972 z "},"2":{"ha":836,"x_min":56,"x_max":832,"o":"m 64 -28 l 56 -28 q 66 49 56 13 q 98 120 76 85 q 152 193 119 156 q 231 276 185 231 q 313 360 271 317 q 393 445 356 404 q 459 522 431 486 q 500 581 488 557 q 522 633 515 608 q 529 679 529 658 q 518 728 529 706 q 435 736 479 743 q 402 724 418 733 q 372 699 386 714 q 350 667 358 685 q 342 629 342 649 q 356 585 342 607 l 339 550 q 252 553 290 542 q 189 590 214 564 l 157 622 q 101 684 121 646 q 82 769 82 722 q 89 824 82 796 q 111 878 96 853 q 167 942 133 915 q 240 987 200 969 q 325 1013 281 1004 q 414 1021 369 1021 q 519 1008 467 1021 q 608 976 571 996 q 707 885 665 940 l 724 868 q 796 765 768 824 q 824 647 824 707 q 803 523 824 582 q 747 408 782 464 q 667 299 713 351 q 575 197 622 247 l 781 197 l 781 189 l 832 138 l 832 -79 l 115 -79 l 64 -28 m 279 629 q 263 692 260 661 q 283 749 267 724 q 325 793 300 775 q 375 815 350 811 q 459 810 417 824 q 528 765 501 797 q 557 683 554 733 q 525 568 560 633 q 483 507 513 543 q 416 429 454 471 q 335 343 378 388 q 250 257 292 299 q 124 114 164 171 q 83 0 83 57 l 753 0 l 753 169 l 408 169 q 524 291 464 229 q 633 419 583 353 q 713 555 682 485 q 744 703 744 625 q 734 776 744 740 q 703 846 724 813 q 656 906 683 879 q 596 951 629 933 q 485 987 550 976 q 353 988 419 997 q 228 949 286 979 q 136 863 169 918 q 110 775 111 821 q 129 694 110 729 q 187 639 149 658 q 279 629 225 619 z "},"3":{"ha":825,"x_min":54,"x_max":821,"o":"m 297 615 l 336 624 q 388 633 361 626 q 435 652 414 640 q 471 682 457 664 q 485 725 485 700 q 484 730 485 728 q 483 735 483 732 q 453 742 469 739 q 417 744 436 744 q 334 719 367 744 q 301 658 301 694 q 308 629 301 646 l 297 615 m 286 356 l 286 354 q 219 426 242 390 q 197 493 197 463 q 213 553 197 525 q 261 600 229 581 q 217 617 238 606 q 182 644 197 629 l 151 674 q 97 732 115 697 q 78 807 78 767 q 92 874 78 840 q 138 938 107 908 q 217 988 169 967 q 332 1018 265 1010 q 358 1020 344 1019 q 386 1021 371 1021 q 553 988 472 1021 q 683 886 635 956 l 706 864 q 755 794 736 833 q 778 704 774 754 q 760 597 782 647 q 686 506 738 546 q 703 488 696 497 q 718 467 711 478 l 740 446 q 801 352 781 406 q 821 240 821 299 q 798 118 821 179 q 731 9 775 57 q 619 -69 686 -39 q 464 -99 551 -99 q 326 -74 388 -99 q 221 -6 265 -50 l 199 15 q 97 142 133 64 q 54 324 60 219 l 289 324 q 290 318 289 321 q 290 313 290 315 l 340 264 q 349 224 343 242 q 361 190 354 206 q 414 175 383 175 q 458 183 436 175 q 498 207 481 192 q 526 243 515 222 q 539 290 538 264 q 524 347 539 321 q 477 365 501 358 q 431 371 453 371 q 379 356 403 371 q 340 306 356 340 l 314 329 l 286 356 m 231 675 q 224 731 219 704 q 248 778 229 757 q 296 811 267 799 q 361 824 325 824 q 474 794 436 824 q 513 725 513 764 q 497 669 513 692 q 456 631 481 646 q 399 608 431 617 q 339 596 368 600 q 265 568 293 589 q 229 519 238 547 q 232 458 221 490 q 275 400 243 426 q 313 438 286 425 q 372 451 339 450 q 439 441 404 451 q 502 410 474 431 q 549 359 531 389 q 567 290 568 329 q 545 217 565 249 q 494 169 525 186 q 427 148 464 151 q 357 159 390 144 q 298 207 324 174 q 264 296 272 240 l 83 296 q 112 165 88 224 q 178 66 136 107 q 278 3 219 25 q 408 -19 336 -19 q 569 16 501 -19 q 678 107 638 51 q 734 230 719 163 q 734 360 749 297 q 677 474 719 424 q 564 547 635 525 q 672 640 639 583 q 699 758 704 696 q 658 874 693 826 q 570 949 622 921 q 456 988 518 978 q 335 990 393 997 q 215 957 263 982 q 140 899 167 932 q 108 830 114 867 q 114 761 101 793 q 156 706 126 729 q 231 675 186 682 z "},"4":{"ha":840,"x_min":56,"x_max":836,"o":"m 468 457 l 418 386 l 468 386 l 468 457 m 490 996 q 539 1000 513 1000 q 674 928 633 1000 l 703 900 q 751 754 751 854 l 751 386 l 785 386 l 785 378 l 836 326 l 836 114 l 751 114 l 751 -79 l 528 -79 l 476 -28 l 468 -28 l 468 114 l 115 114 l 64 165 l 56 165 l 56 367 l 472 983 l 490 996 m 496 358 l 281 358 l 496 676 l 496 358 m 494 968 l 83 358 l 83 193 l 496 193 l 496 0 l 672 0 l 672 193 l 757 193 l 757 358 l 672 358 l 672 810 q 626 944 672 904 q 494 968 579 983 z "},"5":{"ha":796,"x_min":56,"x_max":792,"o":"m 725 1000 l 725 992 l 776 940 q 769 855 778 894 q 742 786 761 815 q 692 740 722 757 q 619 724 661 724 l 458 724 l 442 663 q 574 628 514 660 q 675 539 635 596 l 696 518 q 766 408 740 474 q 792 258 792 342 q 760 104 792 171 q 678 -8 729 38 q 562 -76 626 -53 q 429 -100 497 -100 q 301 -78 363 -100 q 182 -4 226 -49 l 160 18 q 81 106 106 57 q 56 201 56 154 q 70 264 56 235 q 113 313 85 293 q 181 342 140 333 q 274 346 221 351 q 271 340 271 340 l 324 288 q 306 226 306 243 q 310 199 306 211 q 336 188 322 192 q 365 181 350 183 q 415 183 390 176 q 460 207 440 190 q 492 249 481 224 q 504 308 504 275 q 489 375 504 347 q 438 388 465 388 q 382 369 410 388 q 332 315 354 351 l 278 365 l 278 364 l 117 517 l 222 1000 l 725 1000 m 246 972 l 147 525 l 271 408 q 338 460 294 447 q 425 460 382 472 q 500 410 468 447 q 532 308 532 372 q 517 237 532 268 q 478 185 501 206 q 424 157 454 165 q 363 153 393 149 q 301 172 329 157 q 253 210 272 188 q 228 263 235 233 q 235 324 222 292 q 124 295 163 332 q 84 203 85 258 q 124 91 83 149 q 254 0 165 33 q 409 -19 328 -28 q 558 29 490 -11 q 669 142 625 69 q 713 314 713 214 q 683 467 713 401 q 602 574 653 533 q 485 628 551 615 q 343 624 418 642 l 383 803 l 564 803 q 669 851 636 803 q 699 972 701 900 l 246 972 z "},"6":{"ha":764,"x_min":56,"x_max":758,"o":"m 340 219 q 340 203 340 211 q 343 188 340 196 q 353 183 349 185 q 365 181 358 182 q 403 181 385 175 q 438 199 422 186 q 463 234 453 213 q 472 281 472 256 q 465 311 472 294 q 451 315 458 314 q 438 317 444 317 q 379 300 421 317 l 368 310 l 356 285 q 344 256 349 272 q 340 219 340 239 m 400 1001 q 476 978 444 997 q 525 929 507 958 l 556 899 q 594 804 594 860 q 576 731 594 765 l 488 553 q 573 528 531 550 q 651 457 615 507 l 676 433 q 711 390 694 415 q 747 313 735 354 q 758 226 758 271 q 735 105 758 164 q 663 -3 711 46 q 556 -74 614 -51 q 440 -97 499 -97 q 313 -71 374 -97 q 207 1 253 -44 l 193 15 q 93 124 131 58 q 56 274 56 190 q 59 322 56 297 q 71 372 63 346 q 94 428 76 392 q 134 513 111 465 q 185 617 157 561 q 240 726 213 672 q 294 831 268 781 q 340 919 321 881 l 358 951 l 376 988 l 400 1001 m 400 974 q 362 901 388 950 q 304 790 336 851 q 238 660 272 728 q 174 533 204 593 q 124 428 144 474 q 97 364 103 382 q 88 224 75 290 q 137 108 100 158 q 229 25 174 57 q 347 -15 285 -7 q 472 -4 408 -24 q 590 69 536 15 q 651 153 629 107 q 678 249 672 200 q 673 346 683 299 q 636 433 663 393 q 572 498 607 476 q 501 524 536 519 q 433 517 465 528 q 377 488 400 507 q 343 442 354 468 q 339 388 332 415 q 397 395 368 399 q 448 376 425 392 q 485 335 471 360 q 500 281 500 311 q 488 221 500 247 q 454 177 475 194 q 408 153 433 160 q 357 154 382 147 q 292 191 314 167 q 265 244 271 215 q 263 302 258 274 q 279 351 268 331 l 500 797 q 515 858 515 828 q 502 913 515 888 q 463 953 489 938 q 400 974 436 969 z "},"7":{"ha":806,"x_min":50,"x_max":801,"o":"m 750 1000 l 750 992 l 801 940 l 801 815 l 365 -79 l 121 -79 l 69 -28 l 58 -28 l 424 719 l 299 719 q 168 764 213 719 l 136 796 q 58 1000 50 846 l 750 1000 m 85 972 q 121 842 81 885 q 243 799 161 799 l 493 799 l 103 0 l 296 0 l 722 875 l 722 972 l 85 972 z "},"8":{"ha":803,"x_min":56,"x_max":799,"o":"m 374 661 q 375 643 374 649 q 401 639 388 639 q 457 662 433 639 q 481 717 481 685 q 476 742 481 729 q 467 744 471 743 q 457 744 463 744 q 398 721 422 744 q 374 661 374 697 m 338 240 q 339 217 338 228 q 344 194 340 206 q 401 181 368 181 q 482 214 449 181 q 515 296 515 247 q 503 347 515 324 q 457 358 481 358 q 372 324 407 358 q 338 240 338 289 m 401 1015 q 540 981 476 1015 q 643 890 603 947 l 664 869 q 727 776 704 829 q 750 661 750 724 q 694 488 750 563 l 699 483 q 772 375 746 436 q 799 240 799 314 q 772 107 799 169 q 698 -1 744 44 q 590 -74 651 -47 q 457 -101 528 -101 q 324 -75 386 -101 q 215 -1 261 -49 l 199 15 q 94 135 132 63 q 56 296 56 208 q 83 433 56 371 q 158 544 110 496 q 116 625 129 582 q 103 717 103 668 q 126 833 103 779 q 190 928 150 888 q 285 992 231 968 q 401 1015 339 1015 m 401 824 q 477 792 446 824 q 508 717 508 761 q 477 642 508 672 q 401 611 446 611 q 326 642 357 611 q 294 717 294 672 q 326 792 294 761 q 401 824 357 824 m 401 438 q 456 426 431 438 q 501 396 482 415 q 532 351 521 376 q 543 296 543 325 q 532 240 543 267 q 501 194 521 214 q 456 164 482 175 q 401 153 431 153 q 346 164 372 153 q 300 194 319 175 q 269 240 281 214 q 258 296 258 267 q 269 351 258 325 q 300 396 281 376 q 346 426 319 415 q 401 438 372 438 m 401 988 q 295 966 344 988 q 210 908 246 944 q 152 822 174 872 q 131 717 131 772 q 148 622 131 667 q 197 540 165 576 q 114 433 144 496 q 83 296 83 371 q 108 172 83 229 q 176 71 133 114 q 277 3 219 28 q 401 -22 335 -22 q 525 3 467 -22 q 626 71 583 28 q 694 172 669 114 q 719 296 719 229 q 689 433 719 371 q 606 540 658 496 q 653 622 636 576 q 671 717 671 667 q 649 822 671 772 q 592 908 628 872 q 506 966 556 944 q 401 988 457 988 z "},"9":{"ha":769,"x_min":57,"x_max":765,"o":"m 447 622 q 450 610 447 618 l 451 608 l 464 633 q 475 665 471 647 q 479 700 479 683 q 472 739 479 718 q 460 744 464 742 q 419 744 439 750 q 383 724 399 739 q 356 688 367 710 q 346 639 346 665 q 346 626 346 632 q 347 613 346 619 q 383 606 365 606 q 408 609 393 606 q 447 622 424 613 m 175 451 q 106 524 136 478 q 69 603 82 560 q 57 692 57 647 q 82 816 57 754 q 156 926 107 878 q 264 998 204 974 q 382 1022 324 1022 q 538 983 464 1022 q 658 878 611 944 l 672 864 q 740 767 714 822 q 765 644 765 711 q 762 597 765 621 q 750 547 758 574 q 714 460 743 522 q 646 322 685 399 q 566 166 607 246 q 493 25 525 86 l 443 -72 l 419 -85 q 363 -70 388 -82 q 321 -40 339 -58 l 289 -8 q 240 42 257 11 q 222 111 222 74 q 240 183 222 143 l 332 368 q 264 383 297 369 q 200 428 231 396 l 175 451 m 367 -6 q 405 68 379 18 q 463 181 431 118 q 530 310 494 243 q 595 438 565 378 q 646 545 625 499 q 672 610 667 592 q 681 751 694 685 q 631 867 668 817 q 539 951 594 918 q 421 992 483 985 q 294 981 358 1000 q 175 907 229 961 q 114 821 136 868 q 86 725 92 774 q 92 628 81 676 q 129 539 103 579 q 194 473 158 494 q 265 447 229 451 q 334 454 301 443 q 390 485 367 465 q 425 531 414 504 q 429 586 436 558 q 371 578 400 574 q 319 597 342 582 q 281 638 296 613 q 267 694 267 663 q 279 754 267 728 q 313 799 292 781 q 359 823 333 817 q 411 822 385 829 q 476 785 454 810 q 503 731 497 760 q 504 672 510 701 q 489 622 499 643 l 265 172 q 251 110 250 140 q 265 56 251 81 q 304 15 278 31 q 367 -6 331 -1 z "},"\u0000":{"ha":0,"x_min":0,"x_max":0,"o":""},"\r":{"ha":417,"x_min":0,"x_max":0,"o":""}," ":{"ha":347,"x_min":0,"x_max":0,"o":""},"E":{"ha":726,"x_min":56,"x_max":724,"o":"m 671 992 l 722 940 l 722 711 l 347 711 l 347 603 l 672 603 q 672 599 672 600 q 671 594 671 597 l 724 543 q 711 463 721 503 q 681 390 701 422 q 627 338 660 358 q 546 318 594 318 l 347 318 l 347 210 l 671 210 l 671 201 l 722 150 l 722 -79 l 115 -79 l 64 -28 l 56 -28 l 56 804 q 108 949 56 899 q 243 1000 161 1000 l 671 1000 l 671 992 m 643 972 l 243 972 q 128 928 174 972 q 83 804 83 885 l 83 0 l 643 0 l 643 182 l 268 182 l 268 397 l 490 397 q 560 413 532 397 q 607 454 589 429 q 633 511 625 479 q 643 575 642 543 l 268 575 l 268 790 l 643 790 l 643 972 z "},"F":{"ha":726,"x_min":56,"x_max":724,"o":"m 671 992 l 722 940 l 722 711 l 346 711 l 346 603 l 672 603 q 672 599 672 600 q 671 594 671 597 l 724 543 q 711 463 721 503 q 681 390 701 422 q 626 338 660 358 q 544 318 593 318 l 346 318 l 346 -79 l 115 -79 l 64 -28 l 56 -28 l 56 808 q 65 887 56 851 q 95 947 74 922 q 151 986 117 972 q 238 1000 186 1000 l 671 1000 l 671 992 m 643 972 l 238 972 q 117 928 151 972 q 83 808 83 883 l 83 0 l 267 0 l 267 397 l 489 397 q 560 413 532 397 q 607 454 589 429 q 633 511 625 479 q 643 575 642 543 l 267 575 l 267 790 l 643 790 l 643 972 z "},"G":{"ha":1133,"x_min":42,"x_max":1143,"o":"m 246 64 q 174 133 207 94 q 114 217 140 171 q 42 488 42 347 q 74 663 42 576 q 158 821 106 750 q 340 963 229 907 q 589 1019 450 1019 q 710 1008 651 1019 q 821 977 769 997 q 913 928 872 957 q 981 863 954 899 l 1007 836 q 1068 700 1068 775 q 1054 629 1068 665 q 1008 554 1040 593 l 968 563 l 918 613 l 910 614 q 897 643 904 629 q 878 671 889 657 q 776 717 833 700 q 657 733 718 733 q 532 713 593 733 q 424 644 471 692 q 356 544 378 599 q 335 433 335 490 q 388 260 335 338 q 481 203 428 224 q 601 182 535 182 q 701 196 657 182 q 778 240 746 210 l 654 240 q 594 252 621 240 q 549 283 568 264 l 519 313 q 449 399 471 340 q 432 519 426 457 l 1088 519 l 1088 510 l 1139 460 q 1142 421 1140 446 q 1143 383 1143 396 q 1098 173 1143 264 q 981 20 1053 82 q 817 -73 908 -42 q 633 -103 726 -104 q 432 -62 531 -100 q 257 53 333 -24 l 246 64 m 935 625 q 989 768 997 701 q 924 885 981 835 q 778 963 868 935 q 589 992 689 992 q 350 940 454 992 q 179 803 246 888 q 106 675 133 744 q 72 531 78 606 q 81 378 65 456 q 139 229 97 301 q 223 119 174 167 q 330 41 272 72 q 451 -6 388 10 q 578 -24 514 -22 q 763 8 671 -25 q 924 107 854 42 q 1033 269 994 172 q 1061 492 1072 365 l 458 492 q 464 429 456 460 q 490 374 472 399 q 535 335 507 350 q 599 319 563 319 l 856 319 q 763 194 829 235 q 601 154 696 154 q 459 182 522 154 q 351 256 396 210 q 281 360 306 301 q 256 482 257 419 q 277 606 254 544 q 351 717 300 667 q 454 784 397 761 q 572 811 511 807 q 691 803 632 815 q 800 765 750 790 q 885 704 850 740 q 935 625 921 668 z "},"H":{"ha":867,"x_min":56,"x_max":863,"o":"m 299 992 l 350 940 l 350 603 l 568 603 l 568 1000 l 811 1000 l 811 992 l 863 940 l 863 -79 l 628 -79 l 576 -28 l 568 -28 l 568 318 l 467 318 q 404 326 435 318 q 350 354 374 335 l 350 -79 l 115 -79 l 64 -28 l 56 -28 l 56 824 q 76 903 56 869 q 131 959 97 938 q 209 990 165 981 q 299 1000 253 1000 l 299 992 m 271 972 q 201 964 235 972 q 141 938 167 956 q 99 891 115 919 q 83 824 83 863 l 83 0 l 271 0 l 271 504 q 289 453 275 474 q 322 421 303 433 q 364 403 340 408 q 411 397 388 397 l 596 397 l 596 0 l 783 0 l 783 972 l 596 972 l 596 575 l 271 575 l 271 972 z "},"I":{"ha":378,"x_min":69,"x_max":360,"o":"m 78 -28 l 69 -28 l 69 826 q 134 955 69 908 q 308 1000 199 1001 l 308 992 l 360 940 l 360 -79 l 129 -79 l 78 -28 m 281 0 l 281 972 q 147 935 197 974 q 97 826 97 896 l 97 0 l 281 0 z "},"J":{"ha":651,"x_min":56,"x_max":633,"o":"m 215 258 q 223 231 218 243 q 233 207 228 218 q 249 198 242 201 q 265 193 257 194 q 307 194 292 189 q 331 215 322 200 q 341 251 339 229 q 343 299 343 272 l 343 828 q 408 955 343 908 q 582 1000 472 1001 l 582 992 l 633 940 l 633 278 q 631 172 633 221 q 617 82 628 124 q 583 6 606 40 q 519 -54 560 -28 q 374 -94 456 -94 q 253 -75 303 -94 q 171 -24 203 -56 l 142 6 q 76 78 97 36 q 56 164 56 121 q 83 248 56 207 q 163 321 110 289 l 165 307 l 215 258 m 554 333 l 554 972 q 421 935 471 974 q 371 828 371 896 l 371 299 q 369 235 371 263 q 356 188 367 207 q 323 163 346 169 q 260 165 300 157 q 191 199 225 172 q 144 276 157 225 q 101 232 117 260 q 83 172 85 204 q 95 106 82 139 q 137 46 108 72 q 210 2 165 19 q 318 -15 256 -15 q 451 21 394 -15 q 508 76 488 44 q 538 147 528 108 q 551 233 549 186 q 554 333 554 279 z "},"K":{"ha":844,"x_min":68,"x_max":904,"o":"m 76 -28 l 68 -28 l 68 1001 l 311 1001 l 311 993 l 363 942 l 363 781 l 453 899 q 547 986 493 958 q 667 1014 601 1014 q 730 1008 692 1014 q 818 992 768 1003 l 814 986 l 867 933 l 664 675 q 590 579 626 626 q 514 483 553 532 l 904 -79 l 626 -79 l 575 -28 l 569 -28 l 363 269 l 363 -79 l 128 -79 l 76 -28 m 283 636 l 283 974 l 96 974 l 96 0 l 283 0 l 283 433 l 583 0 l 803 0 l 429 539 l 590 744 l 769 974 q 600 978 671 996 q 475 882 529 960 l 283 636 z "},"L":{"ha":696,"x_min":68,"x_max":692,"o":"m 76 -28 l 68 -28 l 68 826 q 133 955 68 908 q 307 1000 197 1001 l 307 992 l 358 940 l 358 204 l 640 204 l 640 196 l 692 144 l 692 -79 l 128 -79 l 76 -28 m 279 176 l 279 972 q 146 935 196 974 q 96 826 96 896 l 96 0 l 613 0 l 613 176 l 279 176 z "},"M":{"ha":1104,"x_min":56,"x_max":1100,"o":"m 346 990 l 396 942 l 565 431 l 758 1001 l 1049 1001 l 1049 993 l 1100 942 l 1100 -78 l 868 -78 l 817 -26 l 808 -26 l 808 233 l 763 99 q 751 60 756 79 q 746 21 746 40 q 747 8 746 13 q 750 7 749 7 q 749 6 749 7 q 747 6 749 6 q 753 -3 750 0 l 797 -47 q 660 -87 714 -87 q 586 -75 615 -87 q 522 -32 551 -61 l 494 -4 q 427 67 453 24 q 388 154 401 111 q 367 216 376 186 q 347 275 357 246 l 347 -78 l 115 -78 l 64 -26 l 56 -26 l 56 828 q 106 956 56 910 q 242 1001 156 1001 l 343 1001 l 346 990 m 324 974 l 242 974 q 126 935 168 974 q 83 828 83 896 l 83 1 l 268 1 l 268 600 l 414 163 q 433 115 422 139 q 458 69 443 90 q 494 30 474 47 q 539 3 514 13 q 613 -8 568 -8 q 696 13 658 -7 q 673 41 679 24 q 667 78 667 58 q 673 120 668 99 q 685 163 678 142 l 836 613 l 836 1 l 1021 1 l 1021 974 l 838 974 l 836 974 l 778 974 l 550 294 l 324 974 z "},"N":{"ha":944,"x_min":56,"x_max":940,"o":"m 56 825 q 66 892 56 860 q 98 947 76 924 q 152 985 119 971 q 228 1000 185 1000 l 274 1000 l 286 979 l 326 940 l 650 446 l 650 1000 l 889 1000 l 889 992 l 940 940 l 940 -79 l 728 -79 l 676 -28 l 669 -28 l 346 464 l 346 -79 l 115 -79 l 64 -28 l 56 -28 l 56 825 m 83 825 l 83 0 l 267 0 l 267 638 l 685 0 l 861 0 l 861 972 l 678 972 l 678 332 l 258 972 l 228 972 q 165 960 192 972 q 119 928 138 949 q 92 881 101 907 q 83 825 83 854 z "},"O":{"ha":1113,"x_min":28,"x_max":1136,"o":"m 321 406 q 365 256 325 315 q 374 249 371 250 q 460 199 414 217 q 560 182 506 182 q 761 268 675 182 q 844 482 844 356 q 776 678 844 596 q 611 731 704 731 q 494 708 557 731 l 500 704 q 533 655 521 683 q 544 590 544 626 q 540 550 544 576 q 526 489 535 524 l 479 535 l 474 539 l 474 536 l 467 543 q 425 560 443 560 q 385 550 404 560 q 351 522 365 540 q 328 474 336 503 q 321 406 319 444 m 558 1018 q 929 861 776 1018 l 974 811 l 982 803 q 1136 425 1136 649 q 985 51 1136 203 q 615 -101 832 -101 q 249 44 396 -101 l 225 67 q 179 108 200 85 q 67 283 106 188 q 28 485 28 379 q 30 532 28 506 q 38 586 32 558 q 50 640 43 614 q 68 689 57 667 q 108 743 83 719 q 161 783 132 767 l 138 811 q 212 890 174 856 q 290 947 250 924 q 558 1018 413 1018 m 558 990 q 306 922 424 990 q 165 801 224 874 q 237 832 199 822 q 313 840 275 842 q 385 826 351 839 q 444 792 419 814 q 556 810 494 810 q 781 715 686 810 q 872 482 872 619 q 781 249 872 344 q 560 154 689 154 q 356 228 444 154 q 242 460 247 315 q 263 569 239 528 q 321 628 286 611 q 394 636 356 644 q 458 596 432 628 q 458 692 472 651 q 410 757 443 733 q 331 788 376 781 q 241 786 286 796 q 156 749 196 776 q 93 676 115 721 q 75 631 82 656 q 64 581 68 607 q 58 530 60 554 q 56 485 56 506 q 199 128 56 276 q 560 -22 342 -22 q 913 124 767 -22 q 1057 481 1057 268 q 910 842 1057 694 q 558 990 764 990 z "},"P":{"ha":821,"x_min":56,"x_max":844,"o":"m 346 524 q 404 503 374 508 q 454 500 435 497 l 453 500 q 522 551 496 510 q 549 640 549 592 q 533 703 549 672 q 508 710 521 707 q 479 713 494 713 l 346 713 l 346 524 m 450 1000 q 617 965 549 1000 q 728 871 686 929 l 749 850 q 821 735 797 801 q 844 596 844 668 q 822 456 844 525 q 756 333 799 388 q 649 245 713 279 q 504 211 585 211 q 408 225 446 211 q 346 263 369 239 l 346 -79 l 115 -79 l 64 -28 l 56 -28 l 56 801 q 65 883 56 846 q 97 945 75 919 q 153 985 118 971 q 236 1000 188 1000 l 450 1000 m 236 972 q 118 925 153 972 q 83 801 83 878 l 83 0 l 267 0 l 267 792 l 424 792 q 510 770 476 792 q 560 715 544 749 q 576 642 576 682 q 563 567 576 603 q 523 506 550 532 q 458 472 496 479 q 419 469 443 469 q 372 474 396 469 q 328 486 347 478 q 301 510 308 494 q 275 444 282 482 q 282 373 268 407 q 335 315 296 339 q 449 290 375 290 q 615 341 546 290 q 722 467 685 392 q 765 631 760 543 q 737 795 769 719 q 633 922 704 871 q 450 972 563 972 l 236 972 z "},"R":{"ha":881,"x_min":56,"x_max":900,"o":"m 347 522 q 406 502 375 507 q 456 500 436 497 l 454 500 q 524 551 497 510 q 550 640 550 592 q 535 703 550 672 q 509 710 522 707 q 481 713 496 713 l 347 713 l 347 522 m 450 1000 q 619 964 550 1000 q 728 869 688 928 l 749 850 q 821 735 797 801 q 844 596 844 668 q 831 490 844 543 q 793 390 818 438 q 731 305 768 343 q 646 243 693 267 q 708 165 675 207 q 775 80 742 122 q 841 -3 808 38 q 900 -79 874 -44 l 615 -79 l 564 -28 l 558 -28 l 347 239 l 347 -79 l 115 -79 l 64 -28 l 56 -28 l 56 801 q 97 945 56 890 q 238 1000 139 1000 l 450 1000 m 238 972 q 118 925 153 972 q 83 801 83 878 l 83 0 l 268 0 l 268 792 l 425 792 q 512 770 478 792 q 562 715 546 749 q 578 642 578 682 q 565 567 578 603 q 524 506 551 532 q 460 472 497 479 q 419 469 443 469 q 372 474 396 469 q 328 486 347 478 q 301 510 308 494 q 274 428 278 475 q 301 342 271 381 l 571 0 l 797 0 l 554 308 q 676 396 626 336 q 747 529 725 456 q 765 681 769 603 q 724 824 760 760 q 619 931 688 889 q 450 972 551 972 l 238 972 z "},"S":{"ha":788,"x_min":26,"x_max":803,"o":"m 422 361 q 374 401 399 381 q 325 444 349 422 q 254 510 289 475 q 192 583 219 544 q 147 662 164 621 q 131 747 131 703 q 155 858 131 808 q 219 944 179 908 q 314 1001 260 981 q 426 1021 368 1021 q 561 1000 499 1021 q 664 942 624 979 q 697 903 685 921 l 721 879 q 778 754 778 822 q 759 685 778 718 q 700 625 740 651 l 667 633 l 617 682 l 608 685 q 583 722 596 706 q 510 743 546 743 q 447 728 472 743 q 421 690 421 713 q 422 676 421 681 q 460 644 440 661 q 503 610 481 628 q 599 526 550 569 q 685 436 649 483 q 738 378 714 407 q 776 317 761 349 q 803 193 803 256 q 782 83 803 136 q 720 -12 761 29 q 619 -79 679 -54 q 481 -104 560 -104 q 324 -68 400 -104 q 185 31 247 -32 l 174 42 q 26 221 82 113 l 218 360 l 224 346 l 272 299 q 306 242 285 268 q 349 208 326 222 q 390 186 371 193 q 393 185 392 186 q 396 185 394 185 q 429 181 413 181 q 488 197 464 181 q 511 242 511 214 q 486 301 511 265 q 478 310 482 306 q 468 319 474 315 l 422 361 m 632 700 q 683 751 667 722 q 699 809 699 779 q 685 868 699 839 q 644 921 671 897 q 551 974 608 956 q 426 993 493 993 q 325 975 374 993 q 240 925 276 957 q 181 847 203 893 q 158 747 158 801 q 200 617 158 676 q 299 506 242 557 q 414 408 356 454 q 507 319 472 363 q 539 245 539 279 q 518 188 539 211 q 460 157 497 165 q 382 160 424 149 q 333 183 358 167 q 283 220 307 199 q 240 267 260 242 q 208 318 221 292 l 63 211 q 128 115 89 158 q 215 41 168 72 q 316 -8 263 10 q 425 -25 369 -25 q 583 12 518 -25 q 684 106 649 49 q 724 231 719 163 q 700 363 728 300 q 631 458 678 411 q 531 550 583 506 q 431 634 479 594 q 356 707 382 674 q 342 756 336 732 q 369 796 347 779 q 426 819 392 813 q 497 817 460 826 q 569 779 533 807 q 632 700 606 751 z "},"T":{"ha":818,"x_min":56,"x_max":828,"o":"m 776 1000 l 776 992 l 828 940 q 813 844 828 886 q 775 772 799 801 q 719 726 751 742 q 653 710 688 710 l 565 710 l 565 -79 l 331 -79 l 279 -28 l 271 -28 l 271 710 l 115 710 l 64 761 l 56 761 l 56 1000 l 776 1000 m 83 972 l 83 789 l 299 789 l 299 0 l 486 0 l 486 789 l 597 789 q 655 801 628 789 q 703 838 682 814 q 736 895 724 861 q 749 972 749 929 l 83 972 z "},"V":{"ha":967,"x_min":10,"x_max":1007,"o":"m 257 997 l 261 986 l 310 938 l 497 408 l 642 810 q 739 954 679 908 q 876 1000 799 1000 q 916 999 896 1000 q 957 994 936 997 l 954 988 l 1007 935 l 640 -79 l 429 -79 l 378 -28 l 371 -28 l 10 997 l 257 997 m 49 969 l 390 0 l 568 0 l 918 969 q 769 944 832 981 q 668 800 707 907 l 481 281 l 238 969 l 49 969 z "},"W":{"ha":1250,"x_min":26,"x_max":1293,"o":"m 268 997 l 271 986 l 319 938 l 408 543 l 485 810 q 567 952 510 901 q 732 996 625 1003 l 735 986 l 785 936 l 899 532 l 961 810 q 1034 948 982 899 q 1183 997 1086 997 q 1209 996 1194 997 q 1243 992 1224 994 l 1242 985 l 1293 933 l 1063 -79 l 849 -79 l 797 -28 l 790 -28 l 667 406 l 532 -79 l 319 -79 l 268 -28 l 260 -28 l 26 997 l 268 997 m 63 969 l 283 0 l 458 0 l 633 626 l 811 0 l 988 0 l 1208 969 q 1061 938 1113 982 q 989 803 1010 893 l 888 350 l 711 969 q 581 930 628 976 q 511 801 535 883 l 385 350 l 244 969 l 63 969 z "},"Q":{"ha":1147,"x_min":42,"x_max":1161,"o":"m 588 481 q 706 458 644 488 q 811 368 767 428 l 832 347 q 863 482 863 417 q 844 590 863 538 q 789 683 825 642 q 715 719 756 707 q 629 732 674 732 q 503 706 558 732 q 411 636 449 679 q 354 538 374 593 q 335 425 335 482 q 347 335 335 381 q 386 250 360 290 q 389 249 388 249 q 431 224 407 236 q 479 203 454 213 q 529 188 504 194 q 575 182 554 182 q 653 193 611 182 l 626 225 q 608 234 617 231 q 588 238 599 238 q 558 228 576 238 q 513 199 540 219 l 458 251 l 453 247 q 451 269 451 258 q 450 296 450 281 q 463 375 450 342 q 497 431 476 408 q 541 465 517 453 q 588 481 565 476 m 247 61 q 196 108 219 82 q 80 289 118 192 q 42 482 42 386 q 81 683 42 586 q 190 855 119 781 q 358 974 260 929 q 575 1019 456 1019 q 813 964 708 1019 q 988 817 917 908 l 996 810 q 1114 632 1072 733 q 1156 422 1156 531 q 1128 247 1156 332 q 1033 86 1100 163 l 1161 -78 l 879 -78 l 856 -54 q 633 -103 750 -103 q 432 -62 532 -103 q 257 53 332 -22 l 247 61 m 832 292 l 796 343 q 699 431 754 401 q 592 453 643 461 q 548 439 571 449 q 508 411 525 429 q 481 365 490 393 q 476 297 472 336 q 541 316 510 321 q 600 290 572 311 q 652 238 628 269 q 699 179 676 207 q 529 158 617 146 q 371 228 442 169 q 289 331 317 271 q 257 457 261 392 q 272 585 253 522 q 331 699 290 649 q 432 780 371 749 q 574 811 493 811 q 744 761 671 811 q 855 634 817 711 q 890 465 893 557 q 832 292 886 374 m 947 143 q 1050 317 1019 224 q 1076 506 1081 411 q 1033 688 1071 600 q 929 843 994 775 q 774 951 864 911 q 575 992 683 992 q 373 951 464 992 q 215 841 282 910 q 111 683 149 772 q 70 498 74 594 q 101 306 67 401 q 215 128 136 210 q 348 31 274 67 q 501 -17 422 -6 q 660 -17 581 -29 q 811 33 740 -4 l 836 1 l 1057 1 l 947 143 z "},"U":{"ha":858,"x_min":56,"x_max":854,"o":"m 296 1000 l 296 992 l 347 940 l 347 311 q 351 251 347 279 q 364 200 354 222 q 424 188 386 188 q 531 235 499 188 q 564 371 564 283 l 564 804 q 574 885 564 849 q 612 949 585 922 q 685 988 639 975 q 803 1000 732 1001 l 803 992 l 854 940 l 854 342 q 838 165 854 246 q 779 27 821 85 q 665 -63 738 -31 q 481 -96 593 -96 q 322 -73 386 -96 q 215 -8 257 -50 l 192 14 q 83 169 111 69 q 56 397 56 268 l 56 1000 l 296 1000 m 83 972 l 83 397 q 97 230 83 306 q 149 99 111 154 q 254 14 188 44 q 425 -17 321 -17 q 597 14 529 -17 q 705 99 665 44 q 760 231 744 154 q 775 397 775 307 l 775 972 q 685 962 721 974 q 629 928 650 950 q 600 874 608 906 q 592 804 592 842 l 592 371 q 553 215 592 271 q 424 160 514 160 q 349 175 379 160 q 301 217 319 190 q 276 283 283 244 q 268 367 268 321 l 268 972 l 83 972 z "},"X":{"ha":990,"x_min":11,"x_max":1026,"o":"m 307 999 l 319 978 l 360 939 l 501 721 l 599 868 q 694 975 644 938 q 817 1013 743 1013 q 872 1007 839 1013 q 953 988 904 1001 l 949 982 l 1001 929 l 683 443 l 1026 -79 l 760 -79 l 708 -28 l 701 -28 l 539 221 l 342 -79 l 75 -79 l 24 -28 l 11 -28 l 357 499 l 31 999 l 307 999 m 82 971 l 390 499 l 63 0 l 274 0 l 496 339 l 717 0 l 928 0 l 600 499 l 910 971 q 811 984 853 985 q 737 968 769 983 q 677 924 704 953 q 622 853 650 894 l 496 660 l 292 971 l 82 971 z "},"Y":{"ha":806,"x_min":56,"x_max":801,"o":"m 339 692 q 340 613 339 651 q 342 542 340 575 q 345 483 343 508 q 350 446 347 458 l 351 440 q 365 436 358 438 q 379 436 372 435 q 440 466 414 436 q 465 540 467 496 q 501 533 490 536 q 517 526 511 529 l 517 1000 l 750 1000 l 750 992 l 801 940 l 801 288 q 776 131 801 201 q 703 12 751 61 q 582 -65 654 -37 q 414 -92 510 -92 q 276 -71 339 -92 q 174 -10 214 -50 l 150 14 q 81 87 106 43 q 56 192 56 131 q 88 344 56 229 q 94 332 90 338 q 101 321 97 326 l 144 278 l 157 256 q 253 196 201 215 q 189 244 218 213 l 165 268 q 128 300 146 279 q 58 504 58 369 l 58 1000 l 289 1000 l 289 992 l 340 940 l 340 850 q 340 776 340 817 q 339 692 339 735 m 358 -12 q 630 84 538 -12 q 722 343 722 181 l 722 972 l 544 972 l 544 457 q 526 488 538 475 q 494 506 514 500 q 485 467 494 485 q 460 437 476 450 q 424 416 444 424 q 379 408 403 408 q 313 430 343 407 q 272 496 283 453 q 265 548 268 513 q 261 628 263 583 q 260 724 260 674 q 260 822 260 775 q 260 909 260 869 q 261 972 261 949 l 86 972 l 86 504 q 147 319 86 381 q 240 260 189 276 q 343 246 290 243 q 399 254 368 247 q 458 274 429 261 q 511 307 488 288 q 544 351 535 326 q 492 203 544 251 q 340 153 439 156 q 269 158 306 151 q 200 180 233 165 q 140 217 167 194 q 96 271 113 240 q 88 147 75 200 q 139 58 101 93 q 233 5 176 22 q 358 -12 290 -12 z "},"Z":{"ha":872,"x_min":33,"x_max":882,"o":"m 833 1000 l 829 992 l 882 940 l 513 207 l 793 207 l 793 199 l 844 147 l 844 -79 l 96 -79 l 44 -28 l 33 -28 l 413 710 l 358 710 q 312 708 333 710 q 271 699 290 707 q 232 672 251 690 q 192 621 213 654 l 140 672 q 138 668 138 669 q 85 758 101 719 q 69 824 69 797 q 88 897 69 864 q 139 952 107 929 q 213 988 171 975 q 300 1000 254 1000 l 833 1000 m 300 972 q 200 953 247 972 q 126 901 153 935 q 98 822 99 868 q 135 719 97 775 q 170 761 151 747 q 211 781 189 775 q 259 788 233 788 q 315 789 285 789 l 485 789 l 79 0 l 765 0 l 765 179 l 390 179 l 789 972 l 300 972 z "},"a":{"ha":883,"x_min":28,"x_max":879,"o":"m 800 0 l 800 719 l 619 719 l 619 643 l 619 424 q 610 326 619 375 q 580 237 601 276 q 522 172 558 197 q 431 147 486 147 q 322 178 365 147 q 256 257 278 210 q 235 359 235 304 q 258 461 236 414 q 324 540 281 508 q 431 571 367 571 q 514 559 471 571 q 581 513 557 547 q 592 572 593 535 q 573 644 592 608 q 514 708 554 681 q 407 738 474 735 q 276 713 339 740 q 163 636 213 686 q 85 515 114 586 q 56 361 56 444 q 83 205 56 274 q 155 87 110 136 q 259 11 200 38 q 381 -17 318 -15 q 505 3 443 -19 q 619 79 567 26 l 619 0 l 800 0 m 189 19 q 73 156 118 69 q 28 361 28 243 q 60 526 28 451 q 144 656 92 601 q 266 739 197 710 q 408 765 335 768 q 521 735 478 763 q 589 672 564 708 l 592 669 l 592 747 l 828 747 l 828 739 l 879 688 l 879 -79 l 651 -79 l 621 -49 q 536 -86 579 -75 q 447 -97 493 -97 q 316 -71 379 -97 q 203 6 253 -44 l 189 19 m 431 175 q 509 197 478 175 q 558 256 540 219 q 584 335 576 292 q 592 424 592 379 l 592 458 l 586 464 l 583 460 l 576 469 q 529 487 553 482 q 486 492 506 492 q 411 475 443 492 q 358 432 379 458 q 326 371 336 406 q 315 301 315 336 q 320 250 315 275 q 336 203 325 225 q 431 175 375 175 z "},"b":{"ha":879,"x_min":56,"x_max":889,"o":"m 338 357 q 345 269 338 313 q 372 189 353 225 q 444 171 404 171 q 515 186 485 171 q 566 226 546 201 q 596 282 586 250 q 606 347 606 314 q 597 406 606 376 q 574 458 589 435 q 499 478 539 478 q 424 462 465 478 q 351 400 383 446 l 338 414 l 338 357 m 338 710 q 465 747 386 743 q 627 710 550 750 q 757 599 704 669 l 774 583 q 858 458 826 531 q 889 296 889 385 q 859 131 889 204 q 780 8 829 58 q 667 -70 731 -43 q 536 -97 604 -97 q 434 -82 483 -97 q 338 -31 385 -67 l 338 -79 l 115 -79 l 64 -28 l 56 -28 l 56 829 q 72 893 56 863 q 117 947 88 924 q 190 985 147 971 q 286 1000 232 999 l 286 992 l 338 940 l 338 710 m 258 0 l 258 76 q 371 3 310 25 q 493 -17 432 -19 q 611 11 554 -15 q 713 85 668 38 q 783 199 757 132 q 810 351 810 267 q 781 502 810 433 q 705 619 753 571 q 595 694 657 668 q 467 719 533 721 q 358 690 397 717 q 301 629 319 664 q 284 558 283 594 q 297 500 285 522 q 363 545 321 533 q 443 557 406 557 q 548 526 506 557 q 612 450 590 496 q 634 350 633 404 q 614 250 635 296 q 551 174 593 204 q 444 143 508 143 q 354 167 390 143 q 297 231 318 192 q 267 317 276 269 q 258 413 258 365 l 258 972 q 130 928 176 969 q 83 829 83 886 l 83 0 l 258 0 z "},"c":{"ha":792,"x_min":28,"x_max":825,"o":"m 183 36 q 67 179 106 93 q 28 360 28 265 q 78 558 28 464 q 228 711 128 653 q 433 764 321 764 q 465 763 449 764 q 494 760 481 763 q 613 720 565 749 q 688 656 660 692 l 719 624 q 763 560 749 594 q 776 493 776 525 q 758 423 776 454 q 708 376 740 392 l 676 390 l 628 438 l 617 443 q 604 469 613 457 q 556 486 582 481 q 504 492 531 492 q 441 483 472 492 q 383 457 410 475 q 336 412 356 439 q 308 347 317 385 q 304 301 304 328 q 309 253 304 276 q 325 208 314 231 q 371 187 344 194 q 429 179 397 179 q 599 271 528 179 l 775 144 q 772 140 772 142 l 825 88 q 488 -90 699 -90 q 323 -60 394 -90 q 201 19 251 -31 l 183 36 m 643 453 q 691 510 678 469 q 689 597 704 551 q 626 681 674 642 q 492 732 578 719 q 362 730 426 742 q 240 686 297 718 q 119 574 164 643 q 62 428 75 506 q 65 273 49 351 q 129 131 82 194 q 252 28 176 68 q 432 -11 328 -11 q 736 138 631 -11 l 604 233 q 429 151 542 151 q 327 175 369 151 q 260 235 285 199 q 228 318 235 272 q 231 408 221 364 q 275 498 243 463 q 349 551 307 533 q 439 570 392 569 q 528 558 486 571 q 601 518 569 544 q 643 453 632 492 z "},"d":{"ha":863,"x_min":28,"x_max":858,"o":"m 779 1 l 779 829 q 733 926 779 885 q 604 971 686 968 l 604 414 q 595 319 604 367 q 565 232 586 271 q 509 169 544 193 q 419 144 474 144 q 314 175 356 144 q 251 251 272 206 q 231 351 231 297 q 252 450 231 404 q 316 526 274 496 q 421 557 358 557 q 501 545 458 557 q 567 500 543 533 q 580 558 579 522 q 563 628 581 593 q 506 689 546 663 q 397 718 467 715 q 269 694 331 721 q 160 619 208 668 q 84 501 113 569 q 56 351 56 433 q 82 200 56 267 q 152 85 108 133 q 253 12 196 38 q 371 -16 310 -14 q 492 4 432 -18 q 604 78 553 26 l 604 1 l 779 1 m 181 21 q 70 154 113 71 q 28 351 28 238 q 59 513 28 439 q 142 639 90 586 q 260 720 193 692 q 399 746 326 749 q 510 719 468 743 q 576 661 553 694 l 576 999 q 704 970 651 996 q 783 904 757 944 l 810 879 l 815 874 q 858 774 858 831 l 858 -78 l 636 -78 l 607 -49 q 524 -85 567 -74 q 438 -96 482 -96 q 309 -70 371 -96 q 199 4 247 -44 l 181 21 m 419 172 q 496 194 465 172 q 544 250 526 215 q 569 328 561 285 q 576 414 576 371 l 576 446 l 575 447 q 574 448 574 447 q 572 449 574 449 l 571 446 q 565 454 568 449 q 519 473 542 468 q 476 478 496 478 q 403 462 435 478 q 351 419 372 446 q 320 360 331 393 q 310 293 310 328 q 333 196 310 238 q 419 172 368 172 z "},"e":{"ha":819,"x_min":35,"x_max":835,"o":"m 318 271 q 343 194 324 231 q 397 174 368 178 q 447 172 421 169 q 500 185 474 174 q 412 201 451 188 q 349 242 372 215 l 318 271 m 496 511 q 365 446 418 507 q 399 439 382 440 q 431 438 415 438 q 497 442 464 438 q 553 456 536 444 q 569 483 569 468 q 569 491 569 488 q 567 499 568 494 q 533 509 551 506 q 496 511 515 513 m 192 31 q 74 176 113 89 q 35 360 35 264 q 65 514 35 438 q 147 649 94 590 q 287 739 207 711 q 449 767 367 767 q 622 729 550 767 q 735 635 694 692 l 757 613 q 815 526 796 574 q 835 431 835 479 q 795 301 835 361 q 672 208 756 240 l 786 154 l 782 149 l 835 97 q 681 -50 767 -6 q 489 -94 594 -94 q 327 -65 397 -94 q 208 14 257 -35 l 192 31 m 574 278 q 690 337 647 296 q 748 429 733 378 q 750 535 763 481 q 699 635 738 590 q 597 710 660 681 q 449 739 535 739 q 297 714 371 739 q 167 629 222 689 q 90 508 115 576 q 63 367 64 439 q 84 227 61 296 q 153 104 107 158 q 270 17 200 50 q 433 -15 340 -15 q 611 22 533 -15 q 746 143 689 58 l 600 214 q 501 153 557 169 q 393 146 446 136 q 326 173 356 151 q 276 226 297 194 q 245 294 256 257 q 236 371 235 332 q 254 457 238 418 q 299 525 271 496 q 363 571 326 554 q 439 590 399 588 q 508 581 476 592 q 560 551 539 569 q 592 511 582 533 q 596 469 601 489 q 567 433 590 449 q 500 414 544 418 q 390 412 447 408 q 290 451 333 415 q 283 359 269 400 q 335 294 296 318 q 437 264 375 269 q 574 278 499 258 z "},"f":{"ha":553,"x_min":56,"x_max":604,"o":"m 486 749 l 478 756 l 474 751 q 466 769 469 761 q 457 786 463 778 q 447 788 454 788 q 419 778 432 788 q 407 749 407 768 l 486 749 m 119 749 l 119 756 q 125 881 118 821 q 164 982 132 940 q 224 1025 186 1008 q 321 1044 263 1042 q 453 1020 396 1046 q 536 950 511 994 l 567 921 q 604 836 604 883 q 549 725 604 793 l 585 689 q 572 607 585 644 q 538 543 560 569 q 488 502 517 517 q 425 488 458 488 l 407 488 l 407 -79 l 179 -79 l 128 -28 l 119 -28 l 119 488 l 115 488 l 64 539 l 56 539 l 56 749 l 119 749 m 83 721 l 83 567 l 147 567 l 147 0 l 328 0 l 328 567 l 369 567 q 467 609 428 567 q 506 721 506 651 l 328 721 l 328 804 q 349 853 328 839 q 397 867 369 868 q 449 849 424 865 q 485 804 475 832 q 524 886 524 847 q 499 955 525 925 q 426 1001 474 985 q 322 1017 379 1018 q 237 1001 269 1014 q 185 964 204 988 q 160 917 168 943 q 149 859 153 890 q 147 792 146 828 q 147 721 147 757 l 83 721 z "},"g":{"ha":883,"x_min":28,"x_max":879,"o":"m 431 192 q 509 212 478 192 q 558 264 540 232 q 584 338 576 296 q 592 424 592 379 l 592 457 l 589 460 q 585 463 588 460 l 583 460 l 578 467 q 530 487 554 481 q 486 493 506 493 q 411 477 443 493 q 358 435 379 461 q 326 377 336 410 q 315 311 315 344 q 336 218 315 260 q 431 192 375 192 m 189 35 q 73 172 118 85 q 28 376 28 258 q 60 540 28 467 q 144 663 92 613 q 266 741 197 714 q 408 765 335 768 q 521 735 478 763 q 589 672 564 708 l 592 669 l 592 747 l 828 747 l 828 739 l 879 688 l 879 25 q 854 -133 879 -62 q 780 -254 829 -204 q 657 -331 731 -304 q 488 -358 583 -358 q 328 -335 404 -358 q 204 -264 253 -312 l 182 -242 q 112 -169 138 -212 q 86 -68 86 -126 q 92 -19 86 -49 q 110 54 97 11 q 176 -3 138 22 q 256 -48 214 -29 q 338 -76 297 -67 q 411 -85 379 -86 l 444 -82 q 315 -54 378 -81 q 203 21 251 -28 l 189 35 m 432 -279 q 591 -254 522 -279 q 706 -182 660 -229 q 776 -68 753 -135 q 800 81 800 -1 l 800 719 l 619 719 l 619 643 l 619 424 q 610 328 619 375 q 580 245 601 282 q 522 186 558 208 q 431 164 486 164 q 322 194 365 164 q 256 270 278 225 q 235 368 235 315 q 258 466 236 421 q 324 542 281 511 q 431 572 367 572 q 472 569 450 572 q 513 560 493 567 q 551 541 533 553 q 581 513 568 529 q 592 572 593 535 q 573 645 592 610 q 514 708 554 681 q 407 738 474 735 q 276 715 339 740 q 163 643 213 690 q 85 528 114 596 q 56 376 56 460 q 83 220 56 289 q 155 103 110 151 q 259 27 200 54 q 381 -2 318 0 q 505 19 443 -4 q 619 94 567 43 q 611 19 619 56 q 580 -45 603 -17 q 517 -92 557 -74 q 413 -112 476 -110 q 337 -106 378 -114 q 256 -83 296 -97 q 181 -47 217 -68 q 124 -1 146 -26 q 122 -126 103 -74 q 188 -212 142 -178 q 298 -262 233 -246 q 432 -279 363 -279 z "},"h":{"ha":788,"x_min":56,"x_max":783,"o":"m 286 992 l 338 940 l 338 719 q 394 738 365 731 q 449 747 424 744 q 561 731 504 750 q 663 665 618 711 q 674 651 669 658 q 685 636 679 644 l 713 610 l 703 618 l 715 607 q 783 407 783 536 l 783 -79 l 563 -79 l 511 -28 l 503 -28 l 503 135 q 503 177 503 156 q 504 222 504 199 q 503 297 504 260 q 501 366 503 333 q 498 424 500 399 q 493 464 496 450 l 488 476 q 469 479 476 479 q 414 452 433 479 q 394 381 394 425 q 361 392 378 386 q 338 404 344 399 l 338 -79 l 115 -79 l 64 -28 l 56 -28 l 56 831 q 117 956 56 910 q 286 1000 179 1001 l 286 992 m 258 972 q 131 935 178 974 q 83 831 83 897 l 83 0 l 258 0 l 258 525 q 283 489 265 506 q 315 468 300 472 q 341 533 315 508 q 414 558 367 558 q 479 536 450 558 q 519 472 508 514 q 526 421 524 456 q 531 341 529 386 q 532 245 532 296 q 532 148 532 194 q 531 62 532 101 q 531 0 531 22 l 704 0 l 704 463 q 643 646 704 582 q 551 706 601 689 q 450 719 501 722 q 397 711 425 718 q 341 692 368 704 q 292 663 314 681 q 258 621 269 644 l 258 972 z "},"i":{"ha":400,"x_min":57,"x_max":396,"o":"m 83 575 q 90 615 85 597 q 101 649 94 633 q 86 704 94 674 q 72 765 78 735 q 61 824 65 796 q 57 872 57 851 q 66 943 57 910 q 100 1001 75 976 q 201 1043 142 1043 q 301 1000 261 1043 q 326 969 317 985 l 358 938 q 396 843 396 897 q 356 743 396 785 q 332 725 343 731 l 369 688 l 369 -79 l 143 -79 l 92 -28 l 83 -28 l 83 575 m 201 1015 q 119 982 153 1015 q 90 923 96 958 q 85 850 83 888 q 95 778 88 813 q 110 721 103 743 q 140 755 118 744 q 187 773 161 765 q 238 788 213 781 q 283 815 264 796 q 317 899 317 850 q 282 981 317 947 q 201 1015 249 1015 m 111 574 l 111 0 l 290 0 l 290 719 q 222 712 253 719 q 167 688 190 704 q 128 643 143 671 q 111 574 114 615 z "},"j":{"ha":396,"x_min":-96,"x_max":399,"o":"m -19 -279 q -75 -224 -54 -257 q -96 -156 -96 -192 q -51 -53 -96 -118 q -3 -93 -31 -76 q 46 -110 25 -110 q 75 -99 65 -110 q 86 -40 86 -85 l 86 417 q 85 494 86 456 q 85 571 85 532 q 91 613 86 594 q 103 647 96 632 q 88 703 96 672 q 74 763 81 733 q 64 821 68 793 q 60 869 60 849 q 69 941 60 907 q 103 1000 78 975 q 204 1042 144 1042 q 306 999 263 1042 l 328 971 l 358 940 q 399 840 399 900 q 358 742 399 782 q 336 724 346 729 l 374 686 l 374 -83 q 353 -244 374 -190 q 276 -337 328 -308 q 160 -365 225 -365 q 74 -349 113 -365 q 7 -306 35 -333 l -19 -279 m 204 1014 q 122 981 156 1014 q 92 922 99 957 q 88 848 86 886 q 98 775 90 810 q 113 718 106 740 q 142 753 121 742 q 190 771 164 764 q 241 786 215 778 q 286 814 267 794 q 319 896 319 847 q 286 979 319 946 q 204 1014 251 1014 m 294 -28 l 294 718 q 225 710 257 717 q 169 686 193 703 q 130 642 144 669 q 113 571 115 614 q 113 265 113 417 q 114 -40 114 113 q 96 -117 114 -97 q 63 -137 82 -133 q 22 -135 43 -140 q -17 -119 1 -131 q -49 -96 -36 -108 q -68 -163 -72 -129 q -41 -224 -64 -197 q 20 -269 -18 -251 q 104 -286 58 -286 q 208 -261 163 -286 q 275 -181 253 -236 q 294 -28 294 -129 z "},"k":{"ha":804,"x_min":56,"x_max":888,"o":"m 64 -28 l 56 -28 l 56 831 q 118 956 56 910 q 288 1000 181 1001 l 288 992 l 339 940 l 339 542 l 390 599 q 489 688 439 653 q 607 728 539 724 q 697 715 657 731 q 754 664 738 700 l 789 631 q 817 561 817 603 q 810 526 817 550 q 789 461 804 501 l 772 478 q 719 490 751 492 q 658 458 686 489 l 525 313 l 842 -28 l 840 -28 l 888 -79 l 603 -79 l 551 -28 l 546 -28 l 339 197 l 339 -79 l 115 -79 l 64 -28 m 260 413 l 260 972 q 131 935 179 974 q 83 831 83 897 l 83 0 l 260 0 l 260 324 l 557 0 l 776 0 l 438 367 l 585 529 q 631 569 607 556 q 674 586 654 582 q 709 587 694 590 q 729 574 724 583 q 736 633 742 608 q 713 673 731 657 q 667 695 694 689 q 608 700 639 701 q 501 664 546 696 q 411 581 457 632 l 260 413 z "},"l":{"ha":342,"x_min":56,"x_max":338,"o":"m 286 992 l 338 940 l 338 -79 l 115 -79 l 64 -28 l 56 -28 l 56 831 q 117 956 56 910 q 286 1000 179 1001 l 286 992 m 258 972 q 131 935 178 974 q 83 831 83 897 l 83 0 l 258 0 l 258 972 z "},"m":{"ha":1254,"x_min":56,"x_max":1250,"o":"m 292 738 l 310 719 q 384 750 344 739 q 457 764 424 761 q 573 747 514 767 q 676 682 632 728 q 686 674 683 674 q 691 672 690 671 q 694 664 692 672 q 718 685 706 675 q 746 704 731 694 q 747 706 747 704 q 760 713 751 707 l 771 719 q 774 721 772 721 q 778 722 775 721 l 794 731 q 851 753 822 744 q 904 764 881 761 q 1022 747 963 767 q 1128 682 1081 728 q 1140 667 1135 675 q 1151 653 1146 660 l 1181 624 q 1250 419 1250 551 l 1250 -79 l 1022 -79 l 971 -28 l 963 -28 q 963 38 963 -4 q 962 128 963 79 q 961 232 961 178 q 960 334 961 286 q 956 421 958 382 q 951 479 954 460 l 947 496 l 932 499 q 869 467 894 499 q 846 390 844 435 q 799 411 821 399 l 799 -79 l 574 -79 l 522 -28 l 514 -28 l 514 139 q 515 183 514 161 q 515 229 515 206 q 515 306 515 268 q 513 378 514 344 q 509 437 511 411 q 504 476 507 463 q 501 483 503 479 q 499 490 500 486 q 478 493 485 493 q 421 465 442 493 q 400 392 400 438 q 365 404 381 399 q 343 414 349 410 l 343 -79 l 115 -79 l 64 -28 l 56 -28 l 56 746 l 292 746 l 292 738 m 264 636 l 264 718 l 83 718 l 83 0 l 264 0 l 264 539 q 288 502 271 519 q 321 479 304 485 q 347 547 321 521 q 422 572 374 572 q 489 550 458 572 q 531 483 519 528 q 538 431 535 467 q 542 349 540 394 q 543 251 543 303 q 543 152 543 200 q 542 64 543 104 q 542 0 542 24 l 719 0 l 719 475 q 719 497 719 486 q 718 518 719 507 q 740 494 728 504 q 765 479 753 483 q 797 550 764 521 q 878 578 829 579 q 979 483 964 574 q 984 431 982 467 q 988 349 986 394 q 989 251 989 303 q 990 152 989 200 q 990 64 990 104 q 990 0 990 24 l 1171 0 l 1171 475 q 1108 663 1171 597 q 1012 723 1064 706 q 906 736 960 740 q 838 725 872 735 q 773 698 803 715 q 722 656 743 681 q 697 601 701 632 q 680 634 690 619 q 657 663 669 649 q 563 723 615 706 q 458 736 511 740 q 404 728 433 735 q 347 709 375 721 q 297 679 319 697 q 264 636 275 661 z "},"n":{"ha":803,"x_min":56,"x_max":799,"o":"m 290 739 l 307 719 q 383 752 343 742 q 457 765 424 763 q 573 749 517 768 q 676 682 629 729 q 689 667 683 675 q 700 653 694 660 l 729 624 q 799 419 799 551 l 799 -79 l 574 -79 l 522 -28 l 514 -28 l 514 139 q 515 183 514 161 q 515 229 515 206 q 515 306 515 268 q 513 378 514 344 q 509 437 511 411 q 504 476 507 463 q 499 489 501 485 q 476 493 488 493 q 420 465 440 493 q 400 392 400 438 q 342 422 368 400 l 342 -79 l 115 -79 l 64 -28 l 56 -28 l 56 747 l 290 747 l 290 739 m 263 636 l 263 719 l 83 719 l 83 0 l 263 0 l 263 501 l 263 539 q 288 502 271 519 q 321 479 304 485 q 347 547 321 521 q 421 572 374 572 q 488 550 457 572 q 531 483 519 528 q 538 431 535 467 q 542 349 540 394 q 543 251 543 303 q 543 152 543 200 q 542 64 543 104 q 542 0 542 24 l 719 0 l 719 475 q 657 663 719 597 q 563 723 614 706 q 458 738 511 740 q 404 729 433 736 q 347 710 375 722 q 297 679 319 697 q 263 636 274 661 z "},"o":{"ha":869,"x_min":29,"x_max":893,"o":"m 317 301 q 339 206 317 246 q 433 178 382 178 q 496 189 465 178 q 550 223 526 200 q 588 280 574 246 q 603 360 603 314 q 572 468 603 422 q 493 488 536 488 q 473 485 485 488 q 443 481 461 483 q 476 426 463 457 q 493 354 489 394 q 410 399 432 399 q 377 392 393 399 q 348 374 361 386 q 326 343 335 361 q 317 301 317 325 m 432 764 q 621 719 536 764 q 760 600 706 674 l 775 586 q 863 456 832 529 q 893 303 893 383 q 839 104 893 201 q 773 18 811 56 q 689 -45 735 -19 q 592 -84 643 -71 q 489 -97 540 -97 q 340 -69 413 -97 q 207 19 267 -40 l 192 35 q 149 72 171 50 q 59 207 89 132 q 29 361 29 282 q 33 419 29 390 q 46 476 36 447 q 81 538 58 511 q 133 581 104 564 l 113 606 q 256 722 175 681 q 432 764 338 764 m 432 736 q 271 699 344 736 q 142 596 197 663 q 207 620 172 614 q 276 622 242 626 q 341 602 311 617 q 392 563 371 588 q 483 562 440 572 q 559 524 526 551 q 611 456 592 497 q 631 360 631 414 q 601 244 631 290 q 528 174 572 197 q 434 150 485 150 q 340 173 383 150 q 267 242 296 196 q 238 357 238 288 q 256 424 238 397 q 302 465 275 451 q 358 477 329 478 q 408 461 388 476 q 381 527 404 500 q 325 569 358 554 q 253 585 292 583 q 178 574 214 586 q 113 535 142 561 q 72 468 85 508 q 68 268 43 368 q 168 92 93 168 q 319 -1 235 25 q 486 -15 403 -26 q 643 44 569 -3 q 763 171 717 92 q 813 367 817 267 q 761 549 810 467 q 627 683 713 631 q 432 736 542 736 z "},"p":{"ha":878,"x_min":56,"x_max":901,"o":"m 263 718 q 194 711 226 719 q 138 684 163 703 q 98 638 113 665 q 83 574 83 610 l 83 -271 l 263 -271 l 263 297 q 272 394 263 346 q 302 483 281 443 q 360 547 324 522 q 450 572 396 572 q 558 541 515 572 q 622 463 601 510 q 643 362 643 417 q 622 260 643 307 q 557 183 600 214 q 450 151 514 151 q 409 154 431 151 q 367 163 388 157 q 330 181 347 169 q 300 210 313 193 q 288 151 288 188 q 306 78 288 114 q 364 16 324 43 q 474 -14 404 -11 q 603 10 540 -17 q 715 88 667 38 q 793 207 764 138 q 822 360 822 276 q 795 515 822 446 q 724 632 768 583 q 621 707 679 681 q 500 736 563 733 q 376 715 438 739 q 263 640 314 692 l 263 718 m 290 736 l 313 714 q 399 751 354 738 q 489 764 444 764 q 643 727 569 764 q 769 621 717 690 l 788 603 q 871 476 840 551 q 901 304 901 400 q 870 142 901 217 q 787 15 839 68 q 667 -67 735 -37 q 528 -93 600 -96 q 435 -74 474 -90 q 372 -33 397 -58 l 346 -7 q 342 -4 343 -4 l 342 -350 l 115 -350 l 64 -299 l 56 -299 l 56 574 q 75 649 56 617 q 126 704 94 682 q 201 737 158 726 q 290 744 244 747 l 290 736 m 342 217 q 398 187 369 194 q 450 179 426 179 q 522 195 492 179 q 574 237 553 211 q 605 295 594 263 q 615 363 615 328 q 582 475 615 426 q 506 493 549 493 q 426 470 457 493 q 376 411 394 447 q 349 331 357 375 q 342 242 342 286 l 342 217 z "},"q":{"ha":876,"x_min":28,"x_max":872,"o":"m 581 263 q 588 250 582 258 l 588 299 q 578 394 588 346 q 546 478 569 442 q 482 493 518 493 q 408 477 440 493 q 356 435 376 461 q 324 376 335 408 q 314 308 314 343 q 338 204 314 254 q 378 186 357 193 q 428 179 400 179 q 503 197 463 179 q 581 263 544 214 m 821 746 l 821 738 l 872 686 l 872 -181 q 856 -244 872 -214 q 811 -297 840 -274 q 740 -333 782 -319 q 647 -349 699 -347 l 596 -297 l 588 -297 l 588 -54 q 533 -79 564 -69 q 461 -92 501 -89 q 323 -67 389 -94 q 204 14 257 -39 l 188 29 q 72 167 117 82 q 28 361 28 253 q 58 531 28 456 q 139 658 89 606 q 254 737 189 710 q 389 764 319 764 q 490 748 438 764 q 588 700 542 732 l 588 746 l 821 746 m 615 718 l 615 640 q 501 715 563 692 q 378 735 440 738 q 257 707 315 733 q 154 633 199 681 q 83 516 110 585 q 56 361 56 447 q 85 208 56 278 q 163 89 114 139 q 274 12 211 39 q 404 -12 336 -15 q 514 17 474 -10 q 572 78 554 43 q 589 151 589 114 q 576 210 589 188 q 547 181 564 193 q 509 163 529 169 q 468 154 489 157 q 428 151 447 151 q 321 183 364 151 q 256 260 278 214 q 234 362 235 307 q 255 463 233 417 q 319 541 276 510 q 426 572 363 572 q 517 547 481 572 q 576 483 554 522 q 606 395 597 444 q 615 299 615 346 l 615 -269 q 746 -224 699 -267 q 793 -125 793 -182 l 793 718 l 615 718 z "},"r":{"ha":619,"x_min":56,"x_max":615,"o":"m 267 750 l 267 742 l 281 728 q 326 753 301 743 q 379 767 351 764 q 477 749 438 771 q 539 692 517 726 l 569 661 q 604 608 593 638 q 615 550 615 579 q 597 487 615 519 q 540 426 578 454 l 488 479 l 482 475 l 475 490 l 472 490 q 431 482 451 490 q 392 457 410 474 q 361 416 374 440 q 346 361 349 392 q 343 296 343 329 q 343 236 343 263 l 343 -79 l 115 -79 l 64 -28 l 56 -28 l 56 750 l 267 750 m 83 722 l 83 0 l 264 0 l 264 292 q 264 352 264 319 q 267 418 264 385 q 303 513 272 476 q 374 562 335 549 q 448 565 413 575 q 496 519 483 554 q 533 580 526 542 q 526 655 540 618 q 475 717 511 692 q 381 739 439 743 q 299 708 336 736 q 239 631 263 679 l 239 722 l 83 722 z "},"s":{"ha":618,"x_min":19,"x_max":642,"o":"m 161 339 q 83 420 113 375 q 54 532 54 465 q 77 632 54 588 q 139 707 100 676 q 228 752 178 738 q 331 764 278 767 q 447 735 403 760 q 514 674 492 710 l 544 644 q 577 597 567 622 q 588 544 588 571 q 566 471 588 504 q 506 421 544 438 l 474 435 l 424 483 q 383 494 404 493 q 350 492 363 496 l 339 486 l 356 479 q 408 454 381 468 q 460 424 435 440 q 510 386 486 407 q 551 339 533 365 l 572 319 q 622 249 603 289 q 642 153 642 208 q 619 49 642 94 q 557 -28 596 3 q 468 -76 518 -60 q 364 -93 418 -93 q 236 -67 301 -93 q 117 14 171 -40 l 100 29 q 58 66 78 46 q 19 111 38 86 l 168 271 q 251 198 213 219 q 318 176 290 176 q 353 183 339 176 q 367 201 367 190 l 367 203 q 361 207 363 203 q 263 259 310 232 q 179 322 215 286 l 161 339 m 440 499 q 498 553 481 515 q 505 630 515 590 q 452 701 494 669 q 329 736 410 732 q 238 725 282 738 q 158 686 193 713 q 103 621 124 660 q 82 532 82 582 q 102 447 82 483 q 155 382 122 411 q 230 329 188 353 q 317 283 272 306 q 381 235 364 260 q 392 191 397 211 q 365 159 388 171 q 310 149 343 147 q 240 169 278 151 q 167 229 201 188 l 56 110 q 147 28 94 58 q 256 -10 200 -1 q 367 -8 313 -18 q 466 31 422 3 q 536 103 510 58 q 563 208 563 149 q 544 297 563 260 q 496 363 525 335 q 431 410 467 390 q 363 447 396 431 q 302 476 329 463 q 263 503 275 489 q 255 541 247 521 q 288 569 263 561 q 323 574 301 575 q 367 565 344 574 q 410 541 390 557 q 440 499 429 525 z "},"t":{"ha":550,"x_min":42,"x_max":574,"o":"m 131 831 q 150 909 131 876 q 201 962 169 942 q 275 991 233 982 q 361 1000 317 1000 l 361 992 l 413 940 l 413 742 l 522 742 l 522 733 l 574 682 q 567 611 574 646 q 545 548 561 576 q 501 502 529 519 q 428 485 472 485 l 413 485 l 413 169 q 472 232 444 188 l 478 213 l 526 165 q 546 105 539 129 q 553 68 553 81 q 537 6 553 33 q 494 -40 521 -21 q 435 -69 468 -58 q 367 -79 401 -79 q 296 -67 331 -79 q 236 -31 261 -56 l 206 0 q 151 56 172 19 q 131 149 131 93 l 131 485 l 101 485 l 50 536 l 42 536 l 42 742 l 131 742 l 131 831 m 158 831 l 158 714 l 69 714 l 69 564 l 158 564 l 158 149 q 186 56 158 90 q 253 9 214 22 q 338 2 293 -4 q 417 30 383 8 q 467 87 451 51 q 465 168 483 122 q 433 142 456 151 q 389 131 411 132 q 350 140 367 131 q 333 171 333 149 l 333 564 l 372 564 q 433 577 410 564 q 471 612 457 590 q 490 660 485 633 q 494 714 494 686 l 333 714 l 333 972 q 268 965 300 972 q 212 940 236 957 q 173 897 188 924 q 158 831 158 869 z "},"u":{"ha":797,"x_min":56,"x_max":793,"o":"m 293 738 l 344 686 l 344 318 q 345 251 344 286 q 357 186 346 217 q 400 179 378 179 q 460 196 435 179 q 487 226 478 208 q 500 266 496 244 q 505 310 504 288 q 506 353 506 332 l 506 575 q 522 653 506 619 q 570 708 539 686 q 644 740 601 729 q 740 749 688 750 l 740 740 l 792 689 l 792 360 q 785 196 793 263 q 761 93 776 129 q 638 -51 718 -7 q 453 -94 558 -94 q 318 -74 379 -94 q 213 -8 257 -53 l 186 18 q 78 175 111 72 q 61 266 67 208 q 56 390 56 324 l 56 746 l 293 746 l 293 738 m 265 718 l 83 718 l 83 390 q 89 270 83 325 q 104 183 94 215 q 214 32 138 79 q 397 -15 290 -15 q 569 25 496 -15 q 683 158 643 65 q 706 258 699 194 q 713 415 714 321 l 713 721 q 582 687 632 724 q 533 575 532 650 l 533 368 q 533 315 533 343 q 528 261 533 288 q 512 212 524 235 q 476 174 500 189 q 440 157 460 163 q 400 151 421 151 q 359 157 379 151 q 324 174 339 163 q 288 214 300 190 q 272 265 276 238 q 266 320 267 292 q 265 374 265 349 l 265 718 z "},"v":{"ha":829,"x_min":-1,"x_max":863,"o":"m 246 746 l 250 733 l 299 686 l 421 399 q 432 424 426 411 q 443 451 438 436 l 517 619 q 592 719 544 679 q 717 758 639 758 q 756 755 732 758 q 813 744 781 751 l 810 739 l 863 686 l 536 -79 l 388 -79 l 336 -28 l 329 -28 l -1 746 l 246 746 m 42 718 l 349 0 l 464 0 l 774 724 q 691 728 728 733 q 626 707 654 724 q 578 665 599 690 q 543 608 557 639 l 407 294 l 226 718 l 42 718 z "},"w":{"ha":1171,"x_min":17,"x_max":1201,"o":"m 250 746 l 253 735 l 303 686 l 392 429 l 468 626 q 549 724 497 699 q 661 744 601 749 l 665 733 l 714 685 l 808 436 l 878 631 q 951 728 904 700 q 1050 757 997 757 q 1094 751 1069 757 q 1151 735 1119 746 l 1149 728 l 1201 676 l 928 -81 l 779 -81 l 728 -29 l 721 -29 l 621 236 l 500 -81 l 353 -81 l 301 -29 l 294 -29 l 17 746 l 250 746 m 56 718 l 314 -1 l 428 -1 l 586 408 l 740 -1 l 856 -1 l 1115 718 q 1056 729 1086 728 q 997 720 1025 731 q 944 686 968 710 q 904 621 919 663 l 794 314 l 642 718 q 598 716 619 719 q 558 701 576 713 q 523 670 539 690 q 494 617 507 650 l 376 308 l 231 718 l 56 718 z "},"x":{"ha":882,"x_min":7,"x_max":922,"o":"m 313 746 l 326 725 l 367 686 l 444 575 l 458 594 q 486 633 472 614 q 514 671 500 653 q 597 738 550 715 q 693 760 643 760 q 753 753 717 760 q 835 735 790 746 l 831 729 l 883 676 l 629 325 l 922 -79 l 653 -79 l 601 -28 l 596 -28 l 485 125 q 410 22 449 72 q 338 -79 372 -28 l 71 -79 l 19 -28 l 7 -28 l 303 378 q 168 563 236 469 q 33 746 100 656 l 313 746 m 89 718 l 336 378 l 63 0 l 269 0 l 439 235 l 610 0 l 819 0 l 544 381 l 789 718 q 716 731 751 728 q 648 727 681 733 q 587 703 615 721 q 536 654 558 686 l 440 522 l 299 718 l 89 718 z "},"y":{"ha":788,"x_min":35,"x_max":783,"o":"m 318 438 q 319 359 318 397 q 321 288 319 321 q 324 229 322 254 q 329 192 326 204 l 331 186 q 360 181 342 181 q 422 211 396 181 q 449 286 449 242 q 482 278 469 281 q 497 274 494 276 l 497 749 l 732 749 l 732 740 l 783 689 l 783 32 q 758 -126 783 -56 q 685 -245 733 -196 q 563 -322 636 -294 q 394 -349 490 -349 q 256 -328 319 -349 q 153 -267 193 -307 l 125 -239 q 59 -166 83 -210 q 35 -64 35 -122 q 43 -3 35 -40 q 67 90 51 35 l 79 68 l 124 24 q 138 -3 131 8 q 254 -68 192 -51 q 165 -8 203 -46 l 143 13 q 124 27 133 19 q 107 44 115 35 q 54 131 72 81 q 36 250 36 182 l 36 749 l 268 749 l 268 740 l 319 689 l 319 597 q 319 522 319 563 q 318 438 318 481 m 339 -269 q 612 -173 519 -269 q 704 88 704 -76 l 704 721 l 525 721 l 525 203 q 476 251 511 242 q 467 213 476 231 q 441 182 457 196 q 404 160 425 168 q 360 153 383 153 q 293 175 324 153 q 251 242 263 197 q 244 294 247 258 q 240 375 242 329 q 239 472 239 421 q 239 570 239 522 q 240 658 239 618 q 240 721 240 697 l 64 721 l 64 250 q 126 64 64 128 q 219 4 168 21 q 324 -10 271 -12 q 379 -1 349 -8 q 439 19 410 6 q 492 51 468 32 q 525 97 515 71 q 472 -52 525 -4 q 319 -104 419 -100 q 249 -98 285 -106 q 179 -75 213 -90 q 119 -37 146 -60 q 75 17 92 -14 q 67 -108 54 -54 q 118 -198 81 -162 q 213 -251 156 -233 q 339 -269 271 -269 z "},"z":{"ha":768,"x_min":36,"x_max":781,"o":"m 732 747 l 728 740 l 781 688 l 490 181 l 693 181 l 693 172 l 744 121 l 744 -79 l 99 -79 l 47 -28 l 36 -28 l 331 488 q 296 481 314 486 q 262 467 278 476 q 233 440 246 457 q 217 396 221 422 l 201 410 l 164 446 l 164 443 q 97 524 119 483 q 74 597 74 564 q 84 652 74 625 q 117 700 94 679 q 176 734 140 721 q 261 747 211 747 l 732 747 m 261 719 q 156 694 193 719 q 107 635 118 669 q 106 562 96 600 q 144 499 117 524 q 165 534 149 521 q 202 555 181 547 q 248 565 224 563 q 293 567 272 567 l 407 567 l 83 0 l 665 0 l 665 153 l 361 153 l 685 719 l 261 719 z "},"!":{"ha":392,"x_min":56,"x_max":388,"o":"m 197 -14 q 275 19 243 -14 q 308 100 308 53 q 276 179 308 144 q 233 206 258 197 q 182 221 207 214 q 136 238 157 228 q 107 272 115 249 q 94 217 101 251 q 84 147 86 183 q 89 75 82 110 q 118 18 96 40 q 197 -14 150 -14 m 108 415 q 125 347 111 374 q 163 303 139 319 q 217 281 186 288 q 283 274 247 274 l 283 972 l 108 972 l 108 415 m 125 -22 q 99 -1 113 -15 q 65 57 74 24 q 56 126 56 90 q 60 175 56 147 q 69 233 64 203 q 82 292 75 263 q 96 344 89 321 q 81 414 82 375 l 81 1000 l 311 1000 l 311 992 l 363 940 l 363 194 q 296 199 326 194 l 314 175 l 349 140 q 388 44 388 99 q 347 -53 388 -12 q 253 -93 311 -93 q 157 -54 196 -93 l 125 -22 m 172 261 q 173 257 172 258 q 174 254 174 256 l 182 250 l 172 261 m 172 261 q 179 254 175 257 l 172 261 z "},"\"":{"ha":560,"x_min":56,"x_max":558,"o":"m 89 618 l 81 618 l 60 817 q 56 846 57 831 q 56 872 56 861 q 63 928 56 904 q 90 967 71 951 q 140 990 108 982 q 218 997 171 997 q 244 997 229 997 q 272 996 258 997 l 271 988 l 308 950 q 358 985 324 974 q 451 997 393 997 q 477 997 463 997 q 507 996 492 997 l 506 988 l 558 936 l 528 660 q 480 594 524 618 q 375 567 436 569 l 324 618 l 315 618 l 301 738 l 293 660 q 245 594 289 618 q 140 567 201 569 l 89 618 m 449 718 l 476 969 q 387 967 419 974 q 338 941 354 960 q 319 892 321 922 q 321 819 317 863 l 340 646 q 415 667 383 647 q 449 718 446 686 m 214 718 l 242 969 q 152 967 185 974 q 103 941 119 960 q 85 892 88 922 q 88 819 82 863 l 106 646 q 180 667 149 647 q 214 718 211 686 z "},"#":{"ha":860,"x_min":38,"x_max":874,"o":"m 456 464 l 463 464 q 464 471 463 467 q 465 478 465 475 l 460 478 l 456 464 m 708 464 l 788 464 q 786 456 788 458 l 839 404 q 794 278 828 328 q 707 229 760 229 l 675 229 q 659 121 668 175 q 643 14 650 67 q 621 -37 639 -19 q 577 -65 603 -56 q 519 -77 551 -75 q 451 -79 486 -79 l 400 -28 l 392 -28 l 429 229 l 422 229 q 399 74 411 154 q 378 -79 388 -7 l 200 -79 l 149 -28 l 140 -28 l 178 229 l 97 229 l 46 281 l 38 281 l 63 464 l 213 464 q 214 471 213 467 q 215 478 215 475 l 135 478 l 83 529 l 75 529 q 86 597 76 564 q 113 655 96 629 q 153 697 129 681 q 210 713 178 713 l 249 713 l 276 894 q 419 999 293 999 q 474 993 442 999 l 472 986 l 525 935 l 492 713 l 501 713 l 542 997 l 728 997 l 726 989 l 779 938 l 746 713 l 822 713 l 821 704 l 874 653 l 849 478 l 711 478 l 708 464 m 506 557 l 488 436 l 365 436 l 383 557 l 506 557 m 651 308 q 722 344 694 308 q 756 436 749 381 l 618 436 l 635 557 l 772 557 l 790 685 l 654 685 l 696 969 l 567 969 l 525 685 l 403 685 l 443 969 q 347 959 383 978 q 304 892 311 940 l 274 685 l 210 685 q 166 674 185 685 q 134 644 147 663 q 113 603 121 626 q 104 557 106 581 l 256 557 l 238 436 l 88 436 l 69 308 l 218 308 l 172 0 l 301 0 l 346 308 l 469 308 l 424 0 q 473 1 449 0 q 516 10 497 3 q 547 33 535 18 q 564 72 560 47 l 599 308 l 651 308 z "},"$":{"ha":782,"x_min":28,"x_max":799,"o":"m 694 368 q 627 463 674 415 q 528 553 581 510 q 428 636 476 597 q 354 708 379 675 q 340 757 335 733 q 368 797 346 781 q 424 820 390 814 q 494 817 457 826 q 566 781 531 808 q 628 701 601 753 q 677 752 661 724 q 694 810 693 781 q 681 869 694 840 q 642 922 667 899 q 569 965 613 949 q 475 989 526 982 l 475 1061 l 365 1061 l 365 986 q 285 957 322 978 q 219 906 247 936 q 174 835 190 875 q 158 750 158 796 q 178 661 158 703 q 228 582 197 619 q 297 510 258 544 q 374 444 335 476 q 447 383 413 413 q 504 325 481 354 q 535 251 535 285 q 515 195 536 218 q 458 164 494 172 q 381 167 422 156 q 332 188 357 172 q 283 225 307 204 q 240 272 260 246 q 208 322 221 297 l 64 218 q 190 65 110 126 q 365 -12 271 4 l 365 -103 l 475 -103 l 475 -12 q 607 37 553 -3 q 689 131 661 76 q 719 247 717 185 q 694 368 721 310 m 419 692 q 421 678 419 682 q 458 647 438 663 q 499 614 478 631 q 596 531 547 574 q 681 442 644 489 l 688 436 q 738 380 715 408 q 772 322 760 351 l 771 322 q 799 199 799 260 q 783 103 799 150 q 735 17 767 56 q 659 -49 704 -21 q 554 -89 614 -78 l 554 -182 l 397 -182 l 346 -131 l 338 -131 l 338 -68 q 258 -25 296 -51 q 186 35 219 1 l 174 46 q 92 126 129 81 q 28 226 56 172 l 218 364 q 221 356 219 360 q 225 349 222 353 l 272 303 q 300 253 283 275 q 345 215 322 231 q 388 193 368 200 q 407 189 396 190 q 426 188 418 188 q 485 204 461 188 q 508 247 508 221 q 483 307 508 271 l 464 328 l 422 364 q 364 412 393 388 q 307 464 335 436 q 240 525 272 493 q 184 592 208 557 q 145 667 160 628 q 131 750 131 706 q 147 840 131 799 q 191 915 163 882 q 257 972 219 949 q 338 1008 294 996 l 338 1089 l 503 1089 l 503 1081 l 554 1029 l 554 1000 q 660 942 617 979 q 693 903 681 921 l 717 879 q 774 757 774 822 q 749 683 774 721 q 674 611 725 646 l 621 664 q 617 661 618 661 q 599 692 608 678 q 579 719 589 707 q 507 743 543 743 q 445 728 471 743 q 419 692 419 714 z "},"%":{"ha":1119,"x_min":35,"x_max":1136,"o":"m 850 103 q 775 133 806 103 q 744 208 744 164 q 775 282 744 251 q 850 313 806 313 q 924 282 894 313 q 954 208 954 251 q 924 133 954 164 q 850 103 894 103 m 850 415 q 769 399 807 415 q 703 354 732 382 q 659 289 675 326 q 643 208 643 251 q 659 128 643 165 q 703 62 675 90 q 769 17 732 33 q 850 1 807 1 q 931 17 893 1 q 996 62 968 33 q 1040 128 1024 90 q 1057 208 1057 165 q 1040 289 1057 251 q 996 354 1024 326 q 931 399 968 382 q 850 415 893 415 m 164 763 q 194 836 164 806 q 269 867 225 867 q 344 836 314 867 q 375 763 375 806 q 344 688 375 718 q 269 657 314 657 q 194 688 225 657 q 164 763 164 718 m 476 763 q 460 843 476 806 q 415 908 443 881 q 350 953 388 936 q 269 969 313 969 q 189 953 226 969 q 123 908 151 936 q 78 843 94 881 q 63 763 63 806 q 78 682 63 719 q 123 616 94 644 q 189 572 151 588 q 269 556 226 556 q 350 572 313 556 q 415 616 388 588 q 460 682 443 644 q 476 763 476 719 m 178 1 q 228 1 203 0 q 275 7 253 1 q 317 25 297 13 q 351 61 336 38 l 942 969 q 841 964 888 976 q 765 906 794 951 l 178 1 m 742 921 q 811 983 771 965 q 900 1000 851 1000 q 917 999 906 1000 q 942 997 928 999 l 990 992 l 986 985 l 1038 933 l 426 -7 q 384 -47 410 -32 q 327 -68 358 -61 q 261 -76 296 -75 q 192 -75 226 -78 l 142 -25 q 134 -24 138 -25 q 128 -24 131 -24 l 742 921 m 142 564 q 64 648 93 596 q 35 763 35 700 q 53 853 35 811 q 104 928 72 896 q 178 978 136 960 q 269 997 221 997 q 383 969 332 997 q 465 892 433 940 l 488 869 q 538 796 519 838 q 556 707 556 754 q 538 617 556 658 q 488 544 519 575 q 415 494 457 513 q 325 476 372 476 q 235 494 276 476 q 163 544 194 513 l 142 564 m 850 443 q 963 415 913 443 q 1046 338 1014 386 l 1068 315 q 1118 242 1100 283 q 1136 153 1136 200 q 1118 63 1136 104 q 1069 -10 1100 21 q 995 -60 1038 -42 q 906 -78 953 -78 q 816 -60 857 -78 q 743 -10 775 -42 l 722 10 q 644 94 674 42 q 615 208 615 146 q 634 299 615 257 q 685 374 653 342 q 759 424 717 406 q 850 443 801 443 m 243 707 q 244 689 243 694 q 269 685 254 685 q 324 708 301 685 q 347 763 347 731 q 343 786 347 774 q 325 788 338 788 q 267 764 290 788 q 243 707 243 740 m 850 131 q 904 153 882 131 q 926 208 926 176 q 922 232 926 219 q 914 233 918 232 q 906 233 910 233 q 847 210 871 233 q 824 153 824 186 q 825 135 824 140 q 850 131 835 131 z "},"&":{"ha":968,"x_min":43,"x_max":985,"o":"m 539 636 q 604 662 576 639 q 647 717 632 685 q 662 786 663 749 q 641 857 661 824 q 578 916 621 890 q 465 950 535 942 q 348 947 408 957 q 237 910 288 938 q 151 838 186 883 q 111 726 117 792 q 139 611 107 665 q 243 521 171 557 q 133 451 174 500 q 78 340 92 401 q 77 214 64 279 q 131 95 90 149 q 236 7 171 42 q 393 -28 301 -28 q 540 3 476 -28 q 646 90 603 35 q 727 206 696 153 q 783 301 758 260 q 834 367 808 342 q 899 401 860 393 q 852 469 885 447 q 781 490 819 492 q 703 465 742 489 q 639 397 665 442 q 588 306 614 353 q 531 221 561 260 q 465 157 501 182 q 383 133 429 132 q 331 144 357 133 q 286 172 306 154 q 254 215 267 190 q 240 272 242 240 q 259 340 240 310 q 309 392 278 371 q 378 422 340 413 q 452 428 415 432 q 520 406 489 424 q 568 351 551 388 q 603 413 600 378 q 590 480 607 447 q 539 537 574 513 q 460 568 504 561 q 401 580 431 572 q 348 602 372 588 q 308 639 324 617 q 293 693 293 661 q 330 760 293 731 q 439 789 367 789 q 498 776 474 789 q 535 740 522 763 q 549 691 547 718 q 539 636 550 664 m 513 646 q 521 686 521 667 q 518 707 521 693 q 506 709 511 708 q 494 710 501 710 q 403 688 433 710 q 372 638 372 665 l 372 619 q 415 604 392 610 q 463 596 439 599 q 546 565 510 589 q 604 508 582 542 l 635 479 l 651 460 q 715 503 681 489 q 785 518 750 518 q 848 501 817 518 q 903 447 879 483 l 933 418 q 963 380 949 403 q 985 328 976 357 q 896 279 928 317 q 833 189 864 242 q 787 112 814 156 q 719 19 760 68 l 718 19 q 605 -73 672 -39 q 449 -107 538 -107 q 305 -81 367 -107 q 199 -11 243 -56 l 176 10 q 76 131 110 58 q 43 278 43 203 q 77 417 43 353 q 182 522 111 482 l 178 526 q 100 618 121 567 q 83 728 79 669 q 120 840 89 793 q 198 919 151 888 q 301 965 244 950 q 417 981 358 981 q 444 980 432 981 q 468 978 457 979 q 592 940 544 968 q 664 872 640 911 l 690 847 q 730 788 718 819 q 742 725 742 757 q 731 665 742 693 q 701 613 721 636 q 656 575 682 590 q 597 557 629 560 l 544 608 l 540 608 l 513 646 m 383 161 q 434 172 410 160 q 480 204 458 183 q 521 252 501 225 q 558 310 540 279 l 542 338 q 488 350 514 350 q 427 340 457 350 q 373 313 397 331 q 334 272 349 296 q 319 218 319 247 l 319 217 q 326 178 319 192 q 383 161 351 161 z "},"'":{"ha":342,"x_min":71,"x_max":326,"o":"m 103 646 l 94 646 l 74 835 q 72 857 72 846 q 71 879 71 868 q 104 972 71 943 q 229 1000 138 1000 q 252 1000 240 1000 q 275 999 264 1000 l 274 990 l 326 939 l 297 682 q 253 619 293 642 q 154 594 213 597 l 103 646 m 218 740 l 244 972 q 163 969 193 975 q 117 946 132 963 q 100 901 103 929 q 101 833 97 872 l 119 674 q 188 692 160 675 q 218 740 215 710 z "},"(":{"ha":561,"x_min":71,"x_max":583,"o":"m 486 983 l 533 938 l 551 899 q 395 636 446 778 q 344 346 344 494 q 405 31 344 190 q 583 -274 465 -128 q 479 -272 525 -274 q 399 -265 433 -271 q 338 -246 364 -258 q 290 -212 311 -233 l 263 -185 q 190 -103 218 -157 q 101 136 131 13 q 71 390 71 260 q 103 652 71 522 q 199 899 136 782 q 287 980 233 960 q 403 1000 340 1000 q 431 1000 417 1000 q 461 999 446 1000 q 465 998 463 999 q 469 997 467 997 l 481 997 l 486 983 m 478 969 q 400 972 438 971 q 330 965 363 972 q 270 940 297 958 q 224 886 243 922 q 131 650 163 774 q 99 399 100 526 q 126 148 97 272 q 215 -90 156 24 q 257 -147 235 -126 q 309 -178 279 -168 q 380 -192 339 -189 q 478 -194 421 -194 q 321 83 375 -68 q 265 389 267 233 q 315 694 263 544 q 478 969 367 844 z "},")":{"ha":563,"x_min":25,"x_max":543,"o":"m 83 969 q 247 694 194 844 q 297 389 299 544 q 240 83 294 233 q 83 -194 186 -68 q 182 -192 140 -194 q 253 -178 224 -189 q 306 -147 283 -168 q 347 -90 328 -126 q 436 148 407 24 q 464 399 465 272 q 431 650 463 526 q 339 886 400 774 q 292 940 319 922 q 233 965 265 958 q 163 972 200 972 q 83 969 125 971 m 81 997 l 92 997 q 96 998 94 997 q 100 999 97 999 q 131 1000 113 1000 q 160 1000 149 1000 q 271 982 219 1000 q 358 908 322 964 l 383 883 q 415 842 401 865 q 510 596 478 726 q 543 335 543 465 q 513 82 543 206 q 424 -157 483 -42 q 376 -221 403 -197 q 310 -256 349 -244 q 217 -271 271 -268 q 89 -274 164 -274 l 38 -222 l 25 -222 q 207 88 144 -72 q 269 401 269 247 q 218 690 269 549 q 60 954 167 832 l 81 997 z "},"*":{"ha":650,"x_min":61,"x_max":639,"o":"m 256 869 q 292 972 256 944 q 394 996 328 1000 l 394 988 l 446 936 l 446 878 q 492 886 468 886 q 571 833 536 886 l 604 800 q 639 750 625 779 l 528 683 q 538 672 533 676 q 544 660 542 667 l 578 628 q 607 564 607 599 q 572 486 607 533 l 446 560 l 446 533 q 411 434 446 461 q 315 413 376 407 l 264 463 q 260 463 261 463 q 256 464 258 464 l 256 529 q 233 524 244 525 q 213 522 222 522 q 184 529 197 522 q 158 547 171 536 l 124 582 q 61 658 89 600 l 176 725 l 158 743 q 94 840 94 786 q 129 921 94 867 l 256 849 l 256 869 m 283 869 l 283 801 l 138 885 q 124 823 115 853 q 183 764 133 793 l 242 729 l 97 646 q 144 602 114 610 q 224 624 174 594 l 283 658 l 283 490 q 344 509 322 488 q 367 589 367 531 l 367 658 l 511 574 q 526 636 535 606 q 467 696 517 667 l 407 729 l 553 814 q 506 857 536 850 q 425 836 475 864 l 367 801 l 367 969 q 305 950 326 972 q 283 869 283 928 z "},"+":{"ha":792,"x_min":69,"x_max":774,"o":"m 294 692 q 348 794 294 767 q 497 818 401 822 l 497 810 l 549 758 l 549 596 l 593 596 q 694 542 664 596 l 731 507 q 764 442 754 483 q 771 342 774 400 l 549 342 l 549 242 q 497 143 549 171 q 354 119 446 115 l 303 171 l 294 171 l 294 342 l 254 342 q 172 371 201 342 l 135 407 q 83 476 97 428 q 72 596 69 524 l 294 596 l 294 692 m 322 692 l 322 568 l 99 568 q 118 459 96 497 q 199 421 140 421 l 322 421 l 322 197 q 431 217 393 194 q 469 297 469 239 l 469 421 l 693 421 q 674 530 696 492 q 593 568 651 568 l 469 568 l 469 792 q 360 772 399 794 q 322 692 322 750 z "},",":{"ha":451,"x_min":61,"x_max":443,"o":"m 75 -60 l 61 -53 l 136 117 q 184 197 158 167 q 251 226 210 226 q 393 161 299 226 l 390 157 l 443 104 l 292 -103 q 215 -137 265 -137 q 122 -107 179 -137 l 75 -60 m 217 -33 l 354 154 q 282 193 311 183 q 231 195 253 203 q 194 165 210 188 q 163 106 178 142 l 97 -42 q 165 -59 132 -61 q 217 -33 199 -57 z "},"-":{"ha":586,"x_min":83,"x_max":554,"o":"m 500 369 q 501 368 501 369 l 500 369 m 364 456 q 476 393 442 456 l 500 369 l 501 368 l 507 364 q 544 294 533 338 q 551 188 554 250 l 278 188 q 190 219 222 188 l 157 253 q 99 326 115 274 q 86 456 83 378 l 364 456 m 364 428 l 113 428 q 134 309 110 351 q 222 267 158 267 l 474 267 q 452 385 476 343 q 364 428 428 428 z "},"@":{"ha":1149,"x_min":42,"x_max":1131,"o":"m 856 733 l 725 733 l 692 519 q 674 448 686 483 q 641 384 661 413 q 592 338 621 356 q 522 319 563 319 q 447 342 475 319 q 409 399 419 365 q 405 473 399 433 q 433 547 411 513 q 489 603 454 581 q 571 626 524 626 q 629 617 599 626 q 674 583 660 608 q 688 627 685 600 q 682 680 692 654 q 646 725 672 706 q 572 747 619 744 q 474 729 524 749 q 384 673 425 710 q 314 585 343 636 q 275 474 285 535 q 277 360 265 411 q 316 274 289 310 q 383 219 343 239 q 467 199 422 200 q 560 215 513 197 q 653 269 608 232 q 653 224 649 240 q 670 201 657 208 q 704 196 683 194 q 754 201 725 197 q 803 213 781 206 q 839 228 825 221 q 983 352 931 274 q 1048 521 1036 431 q 1027 703 1060 611 q 915 871 994 796 q 722 978 832 949 q 503 991 613 1008 q 296 911 393 974 q 139 743 199 849 q 76 567 90 657 q 78 391 63 476 q 138 229 94 306 q 247 96 181 153 q 398 6 313 39 q 585 -28 483 -28 q 710 -14 654 -28 q 815 27 767 0 q 907 94 864 54 q 992 186 950 133 l 867 186 q 740 99 804 129 q 596 69 676 69 q 428 98 503 69 q 301 175 354 126 q 214 287 247 224 q 170 420 181 350 q 172 562 160 490 q 221 699 185 633 q 310 806 257 763 q 427 873 364 849 q 558 901 490 897 q 689 889 625 904 q 793 846 744 875 q 878 773 842 817 q 937 671 915 729 q 960 540 958 613 q 948 460 961 499 q 915 390 935 421 q 873 338 896 358 q 832 313 850 318 q 804 322 814 308 q 800 372 794 336 l 856 733 m 254 53 q 98 242 154 129 q 42 485 42 356 q 114 756 42 625 q 203 872 151 822 q 317 956 256 922 q 447 1008 379 990 q 585 1025 515 1025 q 770 992 681 1025 q 935 890 860 960 q 963 860 950 875 q 988 831 976 846 l 999 821 q 1098 674 1065 754 q 1131 513 1131 594 q 1097 350 1131 428 q 996 214 1063 272 l 1050 214 l 1044 207 l 1097 154 q 995 42 1046 90 q 890 -40 944 -7 q 774 -90 836 -74 q 640 -107 713 -107 q 426 -65 522 -107 q 260 47 331 -24 l 254 53 m 522 347 q 574 364 551 347 q 615 407 597 381 q 645 465 633 433 q 664 524 657 496 l 665 536 q 663 540 663 539 q 626 547 639 547 q 566 533 593 547 q 520 495 539 518 q 492 444 501 472 q 482 388 482 415 q 482 369 482 378 q 485 353 482 360 q 522 347 500 347 m 700 761 l 844 761 q 842 764 842 761 q 792 791 818 779 q 739 811 767 803 q 640 822 692 822 q 540 810 590 822 q 446 775 490 799 q 363 715 401 751 q 297 632 324 679 q 265 558 276 596 q 247 482 253 521 q 267 547 254 515 q 297 606 281 578 q 368 690 326 653 q 467 753 414 731 q 574 775 521 776 q 648 757 618 772 q 693 718 678 742 l 700 761 m 343 210 q 292 260 314 231 q 257 328 269 289 q 314 200 274 258 q 435 125 364 153 q 596 97 506 97 q 717 121 658 97 q 697 133 706 124 l 672 157 q 602 127 636 135 q 532 119 568 119 q 371 183 435 119 l 343 210 m 932 540 q 924 606 929 575 l 893 404 q 922 467 910 432 q 932 540 933 501 z "},"?":{"ha":814,"x_min":68,"x_max":793,"o":"m 301 260 q 287 203 294 238 q 277 132 279 169 q 281 59 275 94 q 311 1 288 24 q 392 -32 344 -32 q 458 -11 431 -32 q 497 40 485 10 q 503 105 508 71 q 472 165 499 139 q 428 192 454 183 q 378 208 403 201 q 331 226 353 215 q 301 260 310 236 m 569 954 q 458 988 521 978 q 331 989 394 997 q 213 951 268 981 q 124 865 157 921 q 96 778 99 824 q 110 697 93 732 q 164 642 128 661 q 253 633 200 624 q 235 711 228 672 q 269 778 242 750 q 340 819 297 806 q 429 822 383 832 q 483 798 460 815 q 514 753 507 781 q 507 690 521 726 q 450 606 493 653 q 395 549 421 574 q 350 499 369 524 q 319 447 331 475 q 307 381 307 419 q 315 336 307 358 q 344 297 324 314 q 397 269 364 279 q 481 260 431 258 q 489 347 476 310 q 524 415 501 385 q 574 474 546 446 q 628 533 601 501 q 678 602 656 564 q 710 693 700 640 q 710 783 718 743 q 681 856 701 824 q 632 913 661 889 q 569 954 603 938 m 326 272 q 344 253 332 261 q 372 240 357 246 l 346 265 q 294 318 310 288 q 279 381 279 349 q 288 438 279 411 q 312 489 297 465 q 344 533 326 513 q 381 572 363 553 l 429 624 q 489 733 489 694 q 488 740 489 738 l 479 743 q 419 743 449 749 q 365 723 389 738 q 327 687 342 708 q 313 640 313 665 q 320 608 313 628 q 347 561 328 589 q 242 563 286 550 q 169 603 197 575 l 140 631 q 86 688 104 653 q 68 765 68 724 q 99 878 68 821 q 153 944 121 917 q 224 988 186 971 q 305 1013 263 1006 q 389 1021 347 1021 q 490 1009 440 1021 q 581 979 540 997 l 582 979 q 647 936 617 961 q 700 878 678 911 l 719 860 q 772 785 751 828 q 793 685 793 742 q 789 633 793 658 q 768 562 782 593 q 736 505 754 531 q 698 456 718 479 q 657 413 678 433 q 617 370 636 392 q 585 322 599 349 q 565 262 572 296 q 563 182 558 228 q 525 181 543 181 q 492 185 507 182 q 502 172 497 178 q 511 158 507 165 l 544 126 q 585 29 585 85 q 575 -24 585 1 q 547 -68 565 -49 q 503 -99 529 -87 q 447 -111 478 -111 q 350 -71 390 -111 l 319 -40 q 292 -18 307 -33 q 258 40 267 7 q 249 110 249 74 q 259 199 249 154 q 276 271 269 243 l 326 272 z "},">":{"ha":854,"x_min":67,"x_max":836,"o":"m 71 922 l 672 615 q 757 540 728 586 l 786 513 q 836 389 836 463 q 826 326 836 367 l 133 -28 l 81 24 l 74 21 q 91 194 67 121 q 167 296 115 268 l 482 460 l 131 643 l 85 688 l 71 696 l 71 922 m 99 713 l 564 471 l 179 271 q 114 192 135 247 q 99 65 93 138 l 751 399 q 742 513 767 465 q 660 590 717 561 l 99 876 l 99 713 z "},"=":{"ha":768,"x_min":83,"x_max":736,"o":"m 113 425 q 129 331 110 364 q 199 297 149 297 l 656 297 q 639 392 658 358 q 569 425 619 425 l 113 425 m 113 651 q 129 557 110 590 q 199 524 149 524 l 656 524 q 639 618 658 585 q 569 651 619 651 l 113 651 m 569 679 q 661 629 633 679 l 697 593 q 728 534 719 571 q 733 444 736 497 l 615 444 q 661 403 644 432 l 697 367 q 728 308 719 344 q 733 218 736 271 l 254 218 q 181 244 207 218 l 143 282 q 96 343 108 300 q 86 453 83 386 l 206 453 q 181 471 193 458 l 143 508 q 96 569 108 526 q 86 679 83 613 l 569 679 z "},"<":{"ha":854,"x_min":69,"x_max":839,"o":"m 783 239 l 835 188 l 835 -29 l 239 275 q 179 318 203 293 l 154 342 q 92 408 114 369 q 69 497 69 446 q 79 563 69 522 l 781 921 l 781 908 l 832 858 q 815 692 839 763 q 742 594 792 622 l 426 431 l 783 246 l 783 239 m 756 229 l 290 471 l 675 671 q 740 749 719 694 q 756 876 761 804 l 103 543 q 113 428 88 476 q 194 351 138 381 l 756 65 l 756 229 z "},";":{"ha":507,"x_min":61,"x_max":471,"o":"m 239 746 q 331 707 294 746 q 343 692 338 700 q 354 678 349 685 l 374 657 q 373 658 374 658 q 372 660 372 658 l 388 644 q 421 560 421 608 q 383 471 421 506 q 294 433 346 433 q 206 471 243 433 l 174 503 q 147 524 161 510 q 108 615 108 563 q 147 707 108 668 q 239 746 182 746 m 76 -144 l 61 -136 l 143 47 q 196 133 167 100 q 268 167 225 167 q 421 97 317 167 l 418 93 l 471 40 l 304 -186 q 269 -215 290 -206 q 224 -224 247 -224 q 178 -215 204 -224 q 122 -190 153 -207 l 76 -144 m 229 -117 l 382 90 q 302 133 335 122 q 246 135 269 143 q 205 101 222 126 q 169 36 188 76 l 97 -125 q 173 -145 136 -146 q 229 -117 210 -144 m 239 718 q 167 688 196 718 q 136 615 136 657 q 167 543 136 574 q 239 513 197 513 q 311 543 281 513 q 342 615 342 572 q 311 688 342 658 q 239 718 282 718 z "},":":{"ha":500,"x_min":115,"x_max":426,"o":"m 246 746 q 338 707 299 746 q 348 694 343 700 q 357 681 353 688 l 390 649 q 426 560 426 613 q 390 471 426 508 q 301 433 350 433 q 252 443 274 433 q 211 471 231 453 l 176 504 q 153 524 164 513 q 115 615 115 561 q 153 707 115 669 q 246 746 192 746 m 246 206 q 338 167 299 206 q 358 139 349 156 l 390 108 q 426 19 426 72 q 390 -69 426 -33 q 301 -107 353 -107 q 211 -69 249 -107 l 181 -39 q 153 -17 168 -32 q 115 75 115 21 q 153 167 115 129 q 246 206 192 206 m 246 178 q 172 147 203 178 q 143 75 143 118 q 172 3 143 32 q 246 -28 203 -28 q 318 3 288 -28 q 347 75 347 32 q 318 147 347 118 q 246 178 288 178 m 246 718 q 172 688 203 718 q 143 615 143 658 q 172 543 143 572 q 246 513 206 513 q 318 543 285 513 q 347 615 347 574 q 318 688 347 658 q 246 718 288 718 z "},"/":{"ha":697,"x_min":44,"x_max":731,"o":"m 464 921 q 529 988 483 969 q 633 1006 575 1006 q 658 1006 646 1006 q 681 1004 669 1006 l 678 997 l 731 944 l 308 -186 q 276 -227 297 -211 q 228 -251 256 -243 q 170 -261 201 -260 q 106 -258 139 -262 l 56 -208 q 50 -208 53 -208 q 44 -207 47 -207 l 464 921 m 83 -182 q 130 -184 107 -185 q 173 -177 153 -183 q 208 -158 193 -171 q 231 -122 222 -144 l 642 979 q 549 972 590 983 q 490 911 508 960 l 83 -182 z "},".":{"ha":468,"x_min":97,"x_max":408,"o":"m 226 206 q 318 167 282 206 q 342 136 335 150 l 361 117 l 356 121 l 375 104 q 408 19 408 68 q 371 -69 408 -35 q 282 -107 335 -107 q 193 -69 231 -107 l 163 -39 q 135 -17 150 -32 q 97 75 97 21 q 135 167 97 129 q 226 206 174 206 m 226 178 q 154 147 185 178 q 125 75 125 118 q 154 3 125 32 q 226 -28 185 -28 q 299 3 269 -28 q 329 75 329 32 q 299 147 329 118 q 226 178 269 178 z "},"}":{"ha":725,"x_min":69,"x_max":725,"o":"m 592 443 q 517 461 544 444 q 476 506 490 478 q 459 576 463 535 q 456 667 456 617 q 442 840 456 776 q 378 935 428 903 q 301 963 346 954 q 179 971 257 971 l 99 971 q 103 913 97 940 q 122 865 108 886 q 154 833 135 844 q 199 821 174 821 q 231 820 219 821 q 248 817 242 819 q 258 813 254 815 q 268 804 261 810 q 285 777 281 794 q 292 730 290 760 q 294 656 293 700 q 299 553 294 613 q 328 447 303 490 q 408 368 354 404 q 328 289 354 332 q 299 182 303 246 q 294 78 294 121 q 292 5 293 35 q 285 -42 290 -25 q 268 -69 281 -60 q 258 -78 261 -75 q 248 -82 254 -81 q 231 -84 242 -83 q 199 -85 219 -85 q 122 -130 147 -86 q 99 -236 96 -174 l 179 -236 q 301 -228 257 -236 q 378 -199 346 -219 q 442 -105 428 -168 q 456 69 456 -42 q 460 174 456 129 q 489 247 465 218 q 508 269 500 261 q 539 282 517 276 q 621 333 596 297 q 640 443 646 369 l 592 443 m 667 471 l 667 461 l 718 411 q 697 267 725 313 q 600 203 668 222 q 578 193 585 199 q 563 176 571 188 q 539 112 543 153 q 535 14 535 71 q 531 -91 535 -44 q 519 -172 528 -137 q 492 -233 510 -207 q 446 -275 475 -258 l 444 -274 q 362 -306 408 -297 q 235 -315 315 -315 l 132 -315 l 81 -264 l 72 -264 q 77 -185 69 -222 q 101 -119 85 -147 q 141 -74 117 -90 q 199 -57 165 -57 q 235 -57 229 -57 q 244 -54 242 -57 l 251 -47 q 263 -18 263 -40 q 265 47 264 4 q 267 108 265 74 q 271 183 268 142 q 293 289 275 247 q 361 368 311 331 q 296 449 317 404 q 271 551 275 493 q 267 626 268 589 q 265 688 265 664 q 264 717 264 704 q 264 742 264 731 l 254 742 q 181 772 211 742 l 146 807 q 88 882 106 829 q 72 999 69 935 l 179 999 q 309 990 261 999 q 393 958 357 981 q 446 904 428 938 l 475 876 q 524 775 513 839 q 535 611 535 711 q 536 538 535 571 q 546 479 538 504 q 567 474 556 476 q 592 471 578 471 l 667 471 z "},"|":{"ha":368,"x_min":104,"x_max":315,"o":"m 104 899 q 118 940 104 921 q 154 973 132 960 q 205 992 176 986 q 264 994 233 999 l 264 986 l 315 935 l 315 -208 q 302 -248 315 -229 q 267 -279 289 -267 q 219 -297 246 -292 q 164 -300 192 -303 l 113 -249 l 104 -249 l 104 899 m 132 899 l 132 -224 q 170 -222 151 -226 q 203 -207 189 -217 q 227 -183 218 -197 q 236 -153 236 -169 l 236 969 q 198 967 217 972 q 165 953 179 963 q 141 929 150 943 q 132 899 132 915 z "},"{":{"ha":729,"x_min":57,"x_max":713,"o":"m 138 292 q 213 273 185 289 q 254 228 240 257 q 272 160 268 200 q 275 69 275 119 q 289 -105 275 -42 q 353 -199 303 -168 q 388 -217 369 -210 q 429 -228 406 -224 q 482 -234 453 -232 q 550 -236 511 -236 l 631 -236 q 609 -130 635 -174 q 532 -85 583 -86 q 500 -84 511 -85 q 483 -82 489 -83 q 472 -78 476 -81 q 463 -69 468 -75 q 445 -42 450 -60 q 439 5 440 -25 q 437 78 438 35 q 432 182 436 121 q 401 289 426 246 q 321 368 375 332 q 401 447 375 404 q 432 553 426 490 q 437 656 436 613 q 439 730 438 700 q 445 777 440 760 q 463 804 450 794 q 472 813 468 810 q 483 817 476 815 q 500 820 489 819 q 532 821 511 821 q 576 833 557 821 q 608 865 596 844 q 626 913 621 886 q 631 971 632 940 l 550 971 q 482 969 511 971 q 429 963 453 967 q 388 951 406 958 q 353 935 369 944 q 289 840 303 903 q 275 667 275 776 q 269 562 275 607 q 242 489 264 517 q 222 467 231 474 q 192 453 214 460 q 110 401 135 438 q 89 292 85 365 l 138 292 m 338 -224 q 290 -180 308 -206 q 263 -119 272 -154 q 251 -37 254 -83 q 247 69 247 10 q 244 147 247 113 q 231 206 242 181 q 213 210 222 208 q 193 213 204 211 l 122 213 l 71 264 l 63 264 q 87 413 57 364 q 183 479 117 461 q 206 490 199 485 q 219 506 213 494 q 242 571 238 529 q 247 667 247 613 q 251 772 247 725 q 263 853 254 818 q 290 915 272 889 q 338 958 308 940 q 376 977 356 969 q 421 990 396 985 q 478 997 446 994 q 550 999 510 999 l 657 999 l 657 989 l 708 939 q 704 863 711 899 q 682 801 697 828 q 643 758 667 774 q 588 742 619 742 q 553 740 563 742 q 539 736 543 739 l 532 729 q 519 699 521 722 q 517 632 518 676 q 515 572 517 606 q 511 496 514 538 q 484 392 506 435 q 418 314 463 350 l 442 290 q 490 219 474 258 q 511 128 507 181 q 515 52 514 86 q 517 -8 517 18 q 516 -34 517 -22 q 517 -57 515 -46 l 532 -57 q 588 -72 564 -57 q 626 -112 611 -87 l 661 -147 q 701 -218 689 -174 q 708 -315 713 -262 l 606 -315 q 478 -306 525 -315 q 396 -274 432 -297 l 396 -275 q 367 -253 378 -264 l 338 -224 z "},"`":{"ha":543,"x_min":72,"x_max":507,"o":"m 290 844 q 349 818 314 819 q 418 836 385 817 l 326 992 q 282 1053 303 1031 q 237 1083 261 1076 q 183 1081 213 1090 q 114 1043 153 1071 l 290 844 m 72 1047 q 156 1098 121 1082 q 215 1114 190 1114 q 278 1094 251 1114 q 332 1036 306 1075 l 347 1021 l 353 1017 q 403 949 379 990 l 507 772 q 410 739 450 739 q 331 769 364 739 l 296 803 q 269 825 278 813 l 72 1047 z "},"_":{"ha":822,"x_min":53,"x_max":824,"o":"m 774 -43 q 772 -51 772 -46 l 824 -103 q 790 -186 814 -157 q 721 -215 765 -215 l 113 -215 l 61 -164 l 53 -164 q 62 -122 54 -143 q 83 -83 69 -100 q 113 -54 96 -65 q 150 -43 129 -43 l 774 -43 m 150 -71 q 103 -92 121 -71 q 83 -136 86 -112 l 665 -136 q 717 -119 700 -136 q 740 -71 735 -103 l 150 -71 z "},"^":{"ha":817,"x_min":51,"x_max":814,"o":"m 568 288 q 522 342 533 310 l 443 561 q 378 379 411 469 q 315 200 346 289 l 113 200 l 61 251 l 51 251 l 279 888 q 364 978 303 953 q 500 997 425 1004 l 504 986 l 553 938 l 814 203 q 694 208 753 196 q 604 253 636 221 l 568 288 m 243 279 l 408 746 l 549 351 q 575 315 557 329 q 617 291 593 300 q 670 279 642 282 q 726 279 699 276 l 481 971 q 374 956 422 978 q 306 878 325 933 l 90 279 l 243 279 z "},"]":{"ha":469,"x_min":69,"x_max":451,"o":"m 78 782 l 69 782 l 69 997 l 400 997 l 400 989 l 451 938 l 451 -111 q 399 -250 451 -197 q 258 -303 347 -303 l 129 -303 l 78 -251 l 69 -251 l 69 -37 l 171 -37 l 171 731 l 129 731 l 78 782 m 372 -56 l 372 969 l 97 969 l 97 810 l 199 810 l 199 -65 l 97 -65 l 97 -224 l 203 -224 q 327 -177 282 -224 q 372 -56 372 -131 z "},"\\":{"ha":731,"x_min":49,"x_max":701,"o":"m 233 907 q 176 965 217 953 q 88 972 136 976 l 482 -85 q 538 -136 497 -126 q 624 -142 578 -146 l 233 907 m 507 -154 q 456 -94 472 -136 l 49 997 q 170 988 115 1001 q 253 931 225 975 l 288 896 q 311 860 303 881 l 701 -189 l 682 -221 q 603 -219 642 -225 q 540 -187 565 -212 l 507 -154 z "},"[":{"ha":469,"x_min":69,"x_max":451,"o":"m 69 801 q 122 943 69 889 q 267 997 175 997 l 400 997 l 400 989 l 451 938 l 451 731 l 350 731 l 350 -37 l 400 -37 l 400 -46 l 451 -97 l 451 -303 l 129 -303 l 78 -251 l 69 -251 l 69 801 m 97 801 l 97 -224 l 372 -224 l 372 -65 l 271 -65 l 271 810 l 372 810 l 372 969 l 267 969 q 142 923 188 969 q 97 801 97 876 z "},"":{"ha":697,"x_min":31,"x_max":717,"o":"m 450 1174 q 515 1240 469 1222 q 619 1258 561 1258 q 644 1258 632 1258 q 667 1257 656 1258 l 664 1250 l 717 1197 l 294 67 q 263 26 283 42 q 215 1 242 10 q 156 -8 188 -7 q 92 -6 125 -10 l 42 44 q 36 45 39 44 q 31 46 33 46 l 450 1174 m 69 71 q 116 69 93 68 q 159 76 139 69 q 194 95 179 82 q 217 131 208 108 l 628 1232 q 535 1224 576 1236 q 476 1164 494 1213 l 69 71 z "},"~":{"ha":956,"x_min":57,"x_max":951,"o":"m 129 349 l 128 349 q 76 406 96 372 q 57 476 57 439 q 74 544 57 511 q 133 607 92 578 q 214 645 174 635 q 294 656 254 656 q 422 635 360 656 q 542 586 483 614 q 610 560 571 571 q 689 549 650 549 q 751 568 721 549 q 800 636 781 588 q 874 571 846 615 l 904 542 q 938 494 925 521 q 951 439 951 467 q 937 375 951 407 q 886 313 922 343 q 816 274 853 285 q 739 264 779 264 q 610 283 675 264 q 488 326 546 303 q 410 354 446 343 q 351 367 375 365 q 274 355 310 368 q 218 306 238 342 l 183 297 q 173 306 178 301 q 163 315 168 310 l 129 349 m 142 372 q 208 432 165 417 q 297 446 250 447 q 364 431 325 444 q 448 401 403 418 q 542 368 493 385 q 638 345 590 351 q 731 347 686 339 q 815 386 776 354 q 863 449 851 415 q 871 512 875 482 q 851 565 867 542 q 815 597 835 588 q 764 538 799 554 q 688 521 729 521 q 603 533 646 521 q 531 561 561 546 q 438 600 486 582 q 341 625 390 618 q 243 624 292 632 q 150 585 194 615 q 99 531 114 560 q 85 472 83 501 q 101 417 86 443 q 142 372 117 390 z "},"":{"ha":885,"x_min":47,"x_max":885,"o":"m 715 735 q 610 715 660 735 q 518 661 560 696 l 754 661 q 753 654 753 658 l 806 601 q 776 509 797 547 q 718 456 756 471 l 763 411 q 628 257 733 254 l 463 257 l 463 256 q 556 201 504 219 q 663 183 607 183 q 829 224 726 183 l 829 213 l 881 161 l 881 -76 q 798 -94 838 -89 q 722 -100 758 -100 q 550 -75 635 -100 q 397 -1 465 -50 q 340 47 365 21 l 328 58 q 175 257 228 136 l 108 257 l 57 308 l 47 308 l 85 471 l 57 499 l 47 499 l 86 661 l 158 661 q 236 814 185 747 q 355 926 288 881 q 501 994 422 971 q 661 1018 579 1018 q 835 988 738 1018 l 833 981 l 885 929 l 835 711 q 715 735 761 735 m 369 336 l 572 336 q 678 443 657 333 l 340 443 l 340 526 l 614 526 q 690 556 664 526 q 722 633 715 585 l 371 633 q 440 727 397 688 q 534 788 482 767 q 644 813 586 810 q 761 797 703 815 l 801 969 q 610 987 707 997 q 426 933 513 976 q 274 813 340 889 q 178 633 208 736 l 110 633 l 83 526 l 158 526 l 158 443 l 108 443 l 83 336 l 176 336 q 356 74 224 167 q 456 19 401 42 q 570 -12 511 -3 q 688 -20 629 -22 q 801 -3 747 -18 l 801 182 q 674 155 739 157 q 551 173 610 153 q 445 234 493 193 q 369 336 397 275 z "},"":{"ha":438,"x_min":83,"x_max":406,"o":"m 174 190 q 122 138 140 174 q 117 58 103 101 q 141 17 125 35 q 170 -24 157 -1 q 187 -78 183 -46 q 174 -161 190 -110 q 247 -106 213 -146 q 303 -18 281 -67 q 324 58 318 19 q 321 128 331 96 q 298 167 314 150 q 262 192 282 183 q 218 201 242 201 q 174 190 194 200 m 163 215 q 219 229 193 229 q 286 209 254 229 q 336 157 318 189 l 338 156 l 367 128 q 399 79 388 106 q 404 55 403 68 q 406 31 406 42 q 398 -26 406 3 q 379 -83 390 -56 q 306 -183 356 -136 q 190 -258 257 -231 l 139 -207 l 128 -211 q 152 -131 144 -161 q 160 -87 160 -101 q 149 -41 160 -60 q 126 -8 138 -22 q 106 18 115 6 q 90 49 97 31 q 83 93 83 72 q 106 166 83 133 q 161 215 128 199 l 163 215 z "},"":{"ha":813,"x_min":46,"x_max":817,"o":"m 764 960 l 817 908 l 788 700 q 678 756 707 756 q 654 743 664 756 q 642 712 647 735 q 632 654 638 689 l 629 642 l 717 642 l 715 633 l 768 582 l 740 382 l 592 382 l 525 -90 q 508 -177 518 -139 q 483 -242 497 -215 q 408 -324 456 -297 l 407 -322 q 307 -353 360 -353 q 222 -339 264 -353 q 106 -282 179 -325 l 63 -239 l 46 -229 l 78 -7 q 203 -76 168 -76 q 222 -69 215 -76 q 231 -45 226 -64 q 239 3 235 -26 l 296 382 l 217 382 l 165 433 l 157 433 l 186 642 l 333 642 q 343 710 339 676 q 351 779 347 744 q 421 971 369 907 q 574 1033 475 1033 q 618 1031 597 1033 q 658 1022 639 1029 q 704 1001 678 1015 q 765 967 731 988 l 764 960 m 736 953 q 690 979 711 968 q 650 996 668 990 q 614 1003 633 1001 q 574 1006 594 1006 q 442 953 488 1006 q 379 776 396 899 l 357 614 l 211 614 l 189 461 l 335 461 l 267 0 q 243 -86 258 -67 q 203 -104 229 -104 q 99 -57 160 -104 l 76 -214 q 174 -261 133 -249 q 251 -274 213 -274 q 340 -247 300 -274 q 407 -175 382 -222 q 429 -116 419 -151 q 446 -32 439 -81 l 517 461 l 664 461 l 685 614 l 539 614 l 553 713 q 579 813 564 790 q 622 835 596 835 q 714 797 660 835 l 736 953 z "},"":{"ha":669,"x_min":71,"x_max":651,"o":"m 567 128 q 544 167 560 150 q 508 192 528 183 q 464 201 488 201 q 419 190 440 200 q 366 138 385 174 q 363 58 347 101 q 386 17 369 35 q 416 -24 403 -1 q 433 -78 429 -46 q 419 -161 436 -110 q 492 -106 458 -146 q 547 -18 526 -67 q 570 58 564 19 q 567 128 576 96 m 160 190 q 107 138 125 174 q 103 58 89 101 q 126 17 110 35 q 156 -24 143 -1 q 173 -78 169 -46 q 160 -161 176 -110 q 233 -106 199 -146 q 289 -18 267 -67 q 310 58 304 19 q 307 128 317 96 q 284 167 300 150 q 248 192 268 183 q 204 201 228 201 q 160 190 181 200 m 125 -207 l 114 -211 q 138 -132 131 -161 q 146 -89 146 -103 q 135 -43 146 -61 q 113 -10 125 -25 q 92 18 103 1 q 76 50 82 35 q 71 90 71 67 q 92 165 71 131 q 149 215 114 200 q 206 229 179 229 q 274 208 242 229 q 324 156 306 188 l 340 140 q 408 215 360 190 q 465 229 439 229 q 533 211 501 229 q 582 161 564 193 l 583 160 l 613 132 q 632 108 624 121 q 644 79 640 94 q 650 55 649 68 q 651 31 651 42 q 644 -27 651 3 q 625 -83 636 -57 q 551 -183 601 -133 q 436 -258 501 -232 l 383 -206 l 374 -211 q 398 -132 390 -161 q 406 -89 406 -103 q 399 -51 406 -67 q 383 -24 393 -36 q 376 -53 381 -39 q 365 -83 371 -68 q 292 -183 342 -136 q 176 -258 243 -231 l 125 -207 z "},"":{"ha":1263,"x_min":57,"x_max":1258,"o":"m 769 131 q 771 129 771 131 l 769 131 m 324 131 q 325 129 325 131 l 324 131 m 1215 131 q 1217 129 1217 131 l 1215 131 m 1078 219 q 1146 202 1118 219 q 1189 157 1174 185 l 1215 131 l 1217 129 l 1222 125 q 1249 83 1240 107 q 1258 33 1258 58 q 1250 -13 1258 10 q 1226 -54 1242 -36 q 1188 -83 1211 -72 q 1133 -93 1164 -93 q 1082 -83 1104 -93 q 1044 -58 1060 -74 l 1013 -26 q 965 22 981 -10 q 949 89 949 53 q 957 136 949 113 q 981 178 965 160 q 1022 208 997 197 q 1078 219 1046 219 m 632 219 q 700 202 672 219 q 743 157 728 185 l 769 131 l 771 129 l 776 125 q 803 83 794 107 q 813 33 813 58 q 805 -13 813 10 q 781 -54 797 -36 q 742 -83 765 -72 q 688 -93 718 -93 q 636 -83 658 -93 q 599 -58 614 -74 l 567 -26 q 519 22 535 -10 q 503 89 503 53 q 511 136 503 113 q 535 178 519 160 q 576 208 551 197 q 632 219 600 219 m 186 219 q 254 202 226 219 q 297 157 282 185 l 324 131 l 325 129 l 331 125 q 358 83 349 107 q 367 33 367 58 q 359 -13 367 10 q 335 -54 351 -36 q 296 -83 319 -72 q 242 -93 272 -93 q 190 -83 213 -93 q 153 -58 168 -74 l 121 -26 q 73 22 89 -10 q 57 89 57 53 q 65 136 57 113 q 90 178 74 160 q 130 208 106 197 q 186 219 154 219 m 1078 192 q 1001 160 1026 192 q 976 89 976 128 q 1002 18 976 50 q 1078 -14 1028 -14 q 1153 18 1128 -14 q 1179 89 1179 50 q 1153 160 1179 128 q 1078 192 1128 192 m 186 192 q 110 160 135 192 q 85 89 85 128 q 110 18 85 50 q 186 -14 136 -14 q 262 18 236 -14 q 288 89 288 50 q 263 160 288 128 q 186 192 238 192 m 632 192 q 556 160 581 192 q 531 89 531 128 q 556 18 531 50 q 632 -14 582 -14 q 708 18 682 -14 q 733 89 733 50 q 708 160 733 128 q 632 192 683 192 z "},"":{"ha":701,"x_min":14,"x_max":733,"o":"m 199 990 q 265 1038 229 1018 q 353 1057 301 1058 l 433 1057 l 688 817 l 682 817 l 733 765 l 479 765 l 426 817 l 422 817 l 403 835 l 335 765 l 79 765 l 28 817 l 14 817 l 199 990 m 83 844 l 269 844 l 353 929 l 433 844 l 618 844 l 422 1029 l 353 1029 q 277 1014 308 1031 q 218 971 246 997 l 83 844 z "},"":{"ha":1804,"x_min":56,"x_max":1800,"o":"m 953 57 q 870 91 904 57 q 836 174 836 125 q 870 256 836 222 q 953 290 904 290 q 1035 256 1001 290 q 1068 174 1068 222 q 1035 91 1068 125 q 953 57 1001 57 m 953 403 q 864 385 906 403 q 791 335 822 367 q 742 263 760 304 q 724 174 724 221 q 742 85 724 126 q 791 13 760 43 q 864 -36 822 -18 q 953 -54 906 -54 q 1042 -36 1000 -54 q 1114 13 1083 -18 q 1163 85 1144 43 q 1181 174 1181 126 q 1163 263 1181 221 q 1114 335 1144 304 q 1042 385 1083 367 q 953 403 1000 403 m 194 786 q 228 868 194 835 q 311 901 263 901 q 394 868 360 901 q 428 786 428 835 q 394 703 428 738 q 311 669 360 669 q 228 703 263 669 q 194 786 194 738 m 540 786 q 522 875 540 833 q 473 947 504 917 q 400 996 442 978 q 311 1014 358 1014 q 222 996 264 1014 q 150 947 181 978 q 101 875 119 917 q 83 786 83 833 q 101 697 83 739 q 150 624 119 656 q 222 575 181 593 q 311 557 264 557 q 400 575 358 557 q 473 624 442 593 q 522 697 504 656 q 540 786 540 739 m 1492 57 q 1410 91 1443 57 q 1376 174 1376 125 q 1410 256 1376 222 q 1492 290 1443 290 q 1538 281 1517 290 q 1574 256 1558 272 q 1599 219 1590 240 q 1608 174 1608 197 q 1599 128 1608 150 q 1574 91 1590 107 q 1538 66 1558 75 q 1492 57 1517 57 m 1492 403 q 1403 385 1444 403 q 1331 335 1363 367 q 1282 263 1300 304 q 1264 174 1264 221 q 1282 85 1264 126 q 1331 13 1300 43 q 1403 -36 1363 -18 q 1492 -54 1444 -54 q 1581 -36 1539 -54 q 1653 13 1622 -18 q 1703 85 1685 43 q 1721 174 1721 126 q 1703 263 1721 221 q 1653 335 1685 304 q 1581 385 1622 367 q 1492 403 1539 403 m 210 -54 q 265 -55 238 -56 q 317 -48 292 -54 q 364 -28 342 -42 q 403 13 386 -14 l 1054 1014 q 942 1010 993 1024 q 860 944 892 996 l 210 -54 m 1492 431 q 1616 399 1560 431 q 1707 314 1672 367 l 1725 296 q 1780 216 1760 261 q 1800 118 1800 171 q 1780 20 1800 65 q 1726 -60 1760 -25 q 1645 -114 1692 -94 q 1547 -133 1599 -133 q 1449 -114 1494 -133 q 1369 -60 1404 -94 l 1344 -35 q 1292 13 1315 -14 q 1256 75 1269 40 q 1225 -7 1247 31 q 1170 -73 1203 -44 q 1096 -117 1138 -101 q 1008 -133 1054 -133 q 910 -113 956 -133 q 829 -58 864 -93 l 808 -37 q 726 51 757 -4 q 696 174 696 107 q 716 274 696 226 q 771 356 736 321 q 853 410 806 390 q 953 431 900 431 q 1072 401 1018 431 q 1161 322 1125 371 l 1186 297 q 1239 217 1219 261 q 1269 301 1247 263 q 1326 369 1292 340 q 1402 414 1360 397 q 1492 431 1444 431 m 836 960 q 910 1027 867 1008 q 1004 1046 953 1046 q 1044 1044 1019 1046 q 1101 1035 1068 1042 l 1097 1028 l 1149 976 l 478 -56 q 400 -119 446 -104 q 306 -135 354 -135 q 281 -134 296 -135 q 225 -129 267 -133 l 174 -78 q 161 -76 169 -76 l 836 960 m 165 574 q 85 665 115 610 q 56 786 56 719 q 76 885 56 839 q 131 967 96 932 q 212 1022 165 1001 q 311 1042 258 1042 q 434 1010 378 1042 q 525 926 490 979 l 546 907 q 600 828 581 872 q 619 731 619 783 q 599 632 619 678 q 545 552 579 586 q 465 498 511 518 q 367 478 418 478 q 269 497 314 478 q 189 551 224 517 l 165 574 m 1492 85 q 1554 111 1528 85 q 1581 174 1581 138 q 1574 207 1581 189 q 1560 210 1567 208 q 1547 211 1554 211 q 1482 184 1508 211 q 1456 118 1456 157 q 1456 104 1456 111 q 1458 90 1456 97 q 1492 85 1471 85 m 274 731 q 274 717 274 724 q 276 704 274 711 q 311 697 294 697 q 374 724 347 697 q 400 786 400 750 q 394 818 400 806 q 381 821 388 819 q 367 822 374 822 q 301 796 328 822 q 274 731 274 769 m 953 85 q 1015 111 989 85 q 1040 174 1040 138 q 1033 207 1040 190 q 1008 211 1021 211 q 942 184 969 211 q 915 118 915 157 q 915 105 915 111 q 918 92 915 99 q 953 85 936 85 z "},"":{"ha":831,"x_min":40,"x_max":835,"o":"m 524 1053 l 721 1240 l 535 1240 l 453 1154 l 368 1240 l 181 1240 l 315 1113 q 375 1069 343 1086 q 453 1053 407 1051 l 524 1053 m 715 357 q 647 453 693 406 q 547 544 600 500 q 446 628 494 589 q 371 701 397 668 q 357 751 351 726 q 385 792 363 775 q 440 815 407 808 q 511 812 474 821 q 585 775 549 803 q 647 694 621 747 q 698 747 682 718 q 715 805 714 775 q 701 864 715 835 q 661 918 688 893 q 567 970 625 951 q 442 989 508 989 q 339 971 388 989 q 253 921 290 953 q 195 843 217 889 q 174 743 174 797 q 215 611 174 671 q 314 500 257 551 q 429 403 371 449 q 522 314 488 357 q 554 239 554 274 q 533 181 554 204 q 476 150 513 158 q 397 154 439 142 q 348 176 374 160 q 299 213 322 192 q 255 260 275 235 q 222 311 235 286 l 76 204 q 142 108 103 151 q 230 34 182 65 q 331 -15 278 3 q 440 -32 385 -32 q 599 5 533 -32 q 699 99 664 42 q 740 224 735 156 q 715 357 744 293 m 517 604 q 611 522 564 564 q 694 436 658 481 l 704 428 q 754 372 732 400 q 790 314 776 343 l 793 311 q 819 186 819 254 q 799 76 819 129 q 737 -19 778 22 q 635 -86 696 -61 q 496 -111 575 -111 q 338 -75 415 -111 q 199 24 261 -39 l 188 33 q 106 115 143 69 q 40 213 68 160 l 232 351 q 235 344 233 347 q 239 336 236 340 l 286 290 q 299 266 292 278 q 313 243 306 254 q 360 204 336 221 q 407 181 385 188 q 426 176 415 178 q 444 175 436 175 q 503 191 479 175 q 526 235 526 207 q 501 296 526 260 l 482 317 l 440 353 q 383 399 411 376 q 328 450 356 422 q 260 512 293 479 q 202 581 228 544 q 161 657 176 617 q 146 743 146 697 q 165 842 146 797 q 216 922 183 888 q 292 980 249 957 q 386 1011 336 1003 q 354 1040 368 1025 l 322 1069 l 296 1093 l 111 1268 l 379 1268 l 451 1193 l 524 1268 l 789 1268 l 782 1261 l 835 1208 l 601 986 q 679 939 646 968 q 713 901 697 919 l 740 874 q 794 751 794 819 q 771 678 794 715 q 694 604 747 640 l 642 657 q 638 654 639 654 q 619 685 628 671 q 601 713 611 700 q 525 738 561 738 q 461 722 488 738 q 435 685 435 707 q 439 669 435 678 q 476 638 456 654 q 517 604 496 621 z "},"":{"ha":511,"x_min":82,"x_max":486,"o":"m 178 643 q 241 719 193 689 q 357 750 289 750 q 391 748 371 750 q 436 740 411 746 l 433 733 l 486 682 l 358 300 l 486 -81 q 440 -88 454 -87 q 414 -89 425 -89 q 331 -74 368 -89 q 269 -36 293 -60 l 239 -6 q 178 68 193 24 l 82 356 l 178 642 l 178 643 m 204 633 l 111 356 l 204 78 q 273 8 219 33 q 400 -7 326 -18 l 279 356 l 400 718 q 273 704 326 731 q 204 633 219 678 z "},"":{"ha":1553,"x_min":35,"x_max":1536,"o":"m 329 407 q 379 250 333 317 l 383 247 q 471 199 424 217 q 571 182 518 182 q 775 268 689 182 q 858 483 858 356 q 789 682 858 600 q 622 735 715 735 q 506 714 565 735 l 496 721 l 504 713 l 510 708 q 543 658 531 688 q 556 593 556 629 q 551 553 556 579 q 538 492 546 526 l 494 533 l 485 540 l 485 539 q 479 546 482 540 q 435 563 454 563 q 360 524 393 563 q 329 407 326 486 m 569 1024 q 894 910 754 1024 q 1056 999 946 999 l 1483 999 l 1483 990 l 1535 939 l 1535 711 l 1158 711 l 1158 603 l 1485 603 q 1484 599 1485 600 q 1483 594 1483 597 l 1536 543 q 1524 461 1533 501 q 1493 388 1514 421 q 1439 336 1472 356 q 1357 317 1406 317 l 1158 317 l 1158 208 l 1483 208 l 1483 200 l 1535 149 l 1535 -81 l 928 -81 l 885 -37 q 626 -104 769 -104 q 420 -65 514 -104 q 251 50 326 -25 l 246 56 q 189 107 217 76 q 75 282 115 186 q 35 486 35 378 q 45 588 35 529 q 76 690 56 647 q 116 747 92 722 q 169 788 140 771 l 144 814 q 300 953 211 901 q 569 1024 422 1024 m 569 996 q 315 928 433 996 q 174 806 231 878 q 246 836 207 826 q 323 844 285 846 q 396 831 361 843 q 456 796 431 818 q 567 814 506 814 q 793 718 701 814 q 886 483 886 624 q 794 249 886 344 q 571 154 701 154 q 365 226 454 154 q 250 461 258 313 q 271 572 247 529 q 330 631 294 614 q 403 639 365 647 q 469 599 442 631 q 468 696 483 656 q 419 760 453 736 q 341 792 386 785 q 250 790 296 800 q 164 753 204 781 q 101 679 124 725 q 83 634 90 658 q 72 583 76 610 q 65 532 67 557 q 63 486 63 507 q 208 126 63 276 q 571 -25 351 -25 q 896 93 760 -25 l 896 -1 l 1456 -1 l 1456 181 l 1079 181 l 1079 396 l 1301 396 q 1373 412 1344 396 q 1419 453 1401 428 q 1446 510 1438 478 q 1456 575 1454 542 l 1079 575 l 1079 790 l 1456 790 l 1456 971 l 1056 971 q 961 944 1001 971 q 904 865 921 917 q 569 996 764 996 z "},"":{"ha":839,"x_min":28,"x_max":878,"o":"m 522 1050 l 721 1238 l 533 1238 l 451 1151 l 368 1238 l 181 1238 l 315 1110 q 375 1066 343 1083 q 451 1050 407 1049 l 522 1050 m 294 971 q 194 952 242 971 q 120 900 147 933 q 92 820 93 867 q 129 718 92 774 q 165 760 146 746 q 206 780 183 774 q 253 787 228 786 q 310 788 279 788 l 479 788 l 74 -1 l 760 -1 l 760 178 l 385 178 l 783 971 l 294 971 m 825 990 l 878 939 l 507 206 l 788 206 l 788 197 l 839 146 l 839 -81 l 90 -81 l 39 -29 l 28 -29 l 407 708 l 353 708 q 306 707 328 708 q 265 697 285 706 q 226 671 246 689 q 186 619 207 653 l 135 671 q 132 667 132 668 q 80 757 96 718 q 64 822 64 796 q 83 895 64 863 q 133 951 101 928 q 207 986 165 974 q 294 999 249 999 l 401 999 q 354 1038 376 1014 l 322 1067 l 296 1090 l 111 1265 l 379 1265 l 450 1190 l 522 1265 l 789 1265 l 782 1258 l 835 1206 l 617 999 l 829 999 l 825 990 z "},"":{"ha":496,"x_min":111,"x_max":438,"o":"m 293 600 q 347 653 328 617 q 351 733 365 690 q 327 775 343 757 q 297 816 311 793 q 280 871 283 839 q 293 956 276 903 q 219 900 254 940 q 164 811 185 860 q 141 734 147 772 q 144 664 135 696 q 167 624 151 640 q 204 598 183 607 q 249 589 225 589 q 293 600 272 589 m 178 583 q 118 656 135 610 q 113 679 114 667 q 111 704 111 692 q 119 764 111 733 q 138 822 126 794 q 217 925 163 874 q 339 1004 271 976 l 335 993 l 388 942 q 365 868 372 896 q 358 826 358 840 q 369 778 358 797 q 393 744 379 760 q 394 743 393 743 q 414 717 406 731 q 429 685 422 703 q 435 635 438 660 q 423 588 433 610 q 396 550 413 567 q 358 524 379 533 q 303 510 328 510 q 253 521 278 510 q 210 551 229 532 l 178 583 z "},"":{"ha":497,"x_min":113,"x_max":438,"o":"m 204 946 q 150 892 169 929 q 146 813 131 856 q 170 771 154 789 q 199 730 186 753 q 217 674 213 707 q 203 590 221 642 q 278 646 243 606 q 333 735 313 686 q 356 811 350 772 q 353 882 363 850 q 330 922 346 906 q 293 948 314 939 q 249 956 272 957 q 204 946 225 956 m 193 971 q 250 985 224 985 q 314 965 282 985 q 365 917 346 946 l 399 883 q 431 833 419 863 q 436 809 435 822 q 438 785 438 796 q 430 726 438 757 q 411 669 422 696 q 336 569 388 618 q 221 494 285 519 l 168 547 l 158 543 q 181 624 174 596 q 189 665 189 653 q 178 712 189 693 q 156 746 168 731 q 135 772 144 757 q 119 804 125 788 q 113 847 113 828 q 135 920 113 888 q 193 971 158 953 z "},"":{"ha":749,"x_min":111,"x_max":699,"o":"m 546 638 q 599 690 581 654 q 604 771 618 726 q 580 813 596 794 q 550 853 564 831 q 533 908 536 876 q 546 993 529 940 q 472 938 507 978 q 417 849 438 897 q 394 771 400 810 q 397 700 388 732 q 420 660 404 676 q 457 635 436 644 q 501 626 478 626 q 546 638 525 626 m 293 638 q 347 690 328 654 q 351 771 365 726 q 327 813 343 794 q 297 853 311 831 q 280 908 283 876 q 293 993 276 940 q 219 938 254 978 q 163 849 185 897 q 141 771 147 810 q 144 700 135 732 q 167 660 151 676 q 204 635 183 644 q 249 626 225 626 q 293 638 272 626 m 358 864 q 372 808 358 832 q 380 835 375 822 q 390 860 385 847 q 469 963 415 911 q 592 1042 524 1014 l 588 1031 l 640 979 q 618 906 625 933 q 611 864 611 878 q 622 815 611 835 q 647 781 633 796 q 667 754 658 768 q 682 722 675 740 q 676 626 699 669 q 611 561 653 582 q 556 547 581 547 q 506 558 531 547 q 463 589 482 569 l 433 618 q 422 625 426 619 q 358 561 400 581 q 303 547 328 547 q 253 558 278 547 q 210 589 229 569 l 181 618 q 143 649 160 631 q 118 692 126 668 q 111 742 111 711 q 118 799 111 769 q 136 858 125 829 q 215 963 161 913 q 339 1043 268 1014 l 335 1032 l 388 979 q 365 906 372 933 q 358 864 358 878 z "},"":{"ha":749,"x_min":111,"x_max":689,"o":"m 203 983 q 149 930 168 967 q 144 850 131 893 q 169 808 153 826 q 199 767 185 790 q 216 712 213 744 q 203 626 219 679 q 276 683 242 643 q 332 772 311 724 q 355 849 349 810 q 351 919 361 888 q 328 960 344 943 q 292 985 313 976 q 247 993 271 993 q 203 983 224 993 m 456 983 q 402 930 421 967 q 397 850 383 893 q 422 808 406 826 q 451 767 438 790 q 469 712 465 744 q 456 626 472 679 q 529 683 494 643 q 585 772 564 724 q 608 849 601 810 q 604 919 614 888 q 581 960 597 943 q 544 985 565 976 q 500 993 524 993 q 456 983 476 993 m 167 579 l 157 575 q 181 655 174 625 q 189 700 189 685 q 178 747 189 728 q 154 782 167 765 q 134 809 143 796 q 118 840 125 822 q 111 883 111 864 q 133 958 111 924 q 190 1007 156 992 l 190 1008 q 249 1021 217 1021 q 314 1002 282 1021 q 365 953 346 983 l 376 940 q 443 1007 397 986 l 443 1008 q 501 1021 469 1021 q 567 1002 535 1021 q 618 953 599 983 l 650 921 q 682 871 671 900 q 688 847 686 860 q 689 822 689 833 q 681 764 689 794 q 663 707 674 733 q 588 606 639 656 q 472 528 536 556 l 419 579 l 410 575 q 434 655 426 625 q 442 700 442 685 q 438 730 442 717 q 426 754 433 743 l 410 707 q 335 606 386 656 q 219 528 283 556 l 167 579 z "},"":{"ha":1157,"x_min":0,"x_max":0,"o":""},"":{"ha":674,"x_min":69,"x_max":656,"o":"m 192 1065 q 278 1029 242 1065 q 299 1003 292 1015 l 331 971 q 365 888 365 936 q 331 804 365 839 q 247 769 296 769 q 164 804 199 769 l 132 836 q 106 857 119 843 q 69 943 69 893 q 106 1029 69 993 q 192 1065 142 1065 m 482 1065 q 568 1029 532 1065 q 590 1000 582 1018 l 621 971 q 656 888 656 938 q 621 804 656 838 q 538 769 586 769 q 492 778 513 769 q 454 804 472 788 l 419 838 q 396 857 407 846 q 360 943 360 893 q 396 1029 360 993 q 435 1056 415 1046 q 482 1065 456 1065 m 482 1038 q 415 1010 446 1038 q 388 943 388 982 q 415 876 388 904 q 482 849 446 849 q 549 876 521 849 q 576 943 576 903 q 549 1010 576 983 q 482 1038 521 1038 m 192 1038 q 125 1010 153 1038 q 97 943 97 982 q 125 876 97 904 q 192 849 153 849 q 258 876 231 849 q 286 943 286 904 q 258 1010 286 982 q 192 1038 231 1038 z "},"":{"ha":742,"x_min":139,"x_max":653,"o":"m 369 722 q 484 693 435 722 q 564 618 533 664 l 585 597 q 635 523 617 565 q 653 435 653 481 q 637 351 653 392 q 586 276 621 310 q 510 225 551 242 q 426 208 468 208 q 338 226 381 208 q 264 276 296 244 l 240 299 q 167 378 196 328 q 139 492 139 428 q 157 581 139 539 q 206 655 175 624 q 279 704 238 686 q 369 722 321 722 m 369 694 q 290 678 328 694 q 226 635 253 663 q 183 571 199 608 q 167 492 167 533 q 203 375 167 424 q 292 304 239 326 q 405 291 344 282 q 514 349 465 300 q 570 456 561 396 q 558 569 579 515 q 487 658 536 622 q 369 694 438 694 z "},"":{"ha":701,"x_min":54,"x_max":692,"o":"m 108 838 l 107 838 q 69 879 83 854 q 54 932 54 904 q 67 982 54 957 q 110 1026 81 1007 q 166 1053 138 1046 q 224 1061 194 1061 q 311 1047 268 1061 q 393 1013 354 1032 q 438 996 413 1003 q 489 989 464 989 q 526 1001 508 989 q 557 1050 544 1014 q 625 989 601 1028 l 651 964 l 647 967 l 657 958 q 682 925 672 943 q 692 888 692 907 q 680 841 692 865 q 644 797 668 817 q 594 770 621 778 q 540 763 568 763 q 453 776 500 763 q 369 804 407 790 q 319 822 344 813 q 279 831 294 831 q 231 824 254 832 q 197 794 208 817 l 163 786 l 147 799 l 108 838 m 121 861 q 165 901 136 892 q 225 910 193 911 q 297 892 254 910 q 389 858 340 874 q 486 841 438 843 q 574 871 535 839 q 606 913 599 890 q 611 955 614 935 q 598 990 608 975 q 574 1013 588 1006 q 540 972 563 983 q 488 961 517 961 q 431 969 460 961 q 382 988 403 978 q 320 1014 353 1001 q 255 1031 288 1026 q 190 1030 222 1035 q 126 1004 157 1025 q 92 967 101 988 q 83 928 82 947 q 94 891 83 908 q 121 861 104 874 z "},"":{"ha":1153,"x_min":125,"x_max":1079,"o":"m 258 817 l 185 817 l 133 868 l 125 868 l 125 1000 l 538 1000 l 538 992 l 539 990 l 539 1000 l 722 1000 l 725 990 l 775 940 l 800 843 l 840 1000 l 1028 1000 l 1028 992 l 1079 940 l 1079 443 l 949 443 l 911 481 l 901 443 l 775 443 l 729 489 l 729 443 l 599 443 l 547 494 l 539 494 l 539 817 l 456 817 l 456 443 l 318 443 l 267 494 l 258 494 l 258 817 m 567 522 l 650 522 l 650 878 l 739 522 l 826 522 l 917 878 l 917 522 l 1000 522 l 1000 972 l 863 972 l 783 665 l 703 972 l 567 972 l 567 522 l 567 522 m 286 522 l 376 522 l 376 896 l 510 896 l 510 972 l 153 972 l 153 896 l 286 896 l 286 522 l 286 522 z "},"":{"ha":513,"x_min":75,"x_max":482,"o":"m 307 639 q 239 710 292 683 q 111 724 186 736 l 232 361 l 232 360 l 111 -3 q 239 11 186 -15 q 307 82 292 38 l 401 361 l 307 639 m 85 -26 q 80 -26 82 -26 q 75 -25 78 -25 l 203 361 q 153 510 179 432 q 103 664 128 589 l 75 746 q 154 756 128 756 q 255 731 211 756 q 321 671 299 707 l 349 643 l 344 647 l 353 640 q 385 590 374 619 l 482 306 l 385 19 q 322 -56 369 -25 q 210 -86 275 -86 q 136 -78 183 -86 l 85 -26 z "},"":{"ha":1438,"x_min":39,"x_max":1432,"o":"m 399 550 l 418 529 l 413 540 l 399 550 m 1232 289 q 1307 340 1276 308 q 1354 407 1338 371 q 1305 340 1336 371 q 1232 289 1274 310 m 911 289 q 938 211 915 249 q 994 188 964 192 l 993 188 q 1042 187 1017 185 q 1093 200 1067 189 q 1006 218 1044 203 q 943 258 967 233 l 915 286 q 911 289 914 286 m 1090 528 q 1018 508 1053 525 q 958 463 983 490 q 1028 453 993 453 q 1092 457 1060 453 q 1148 472 1131 460 q 1165 499 1165 483 q 1163 513 1165 504 q 1090 528 1129 528 m 328 319 q 350 224 328 264 q 444 196 393 196 q 507 207 476 196 q 561 241 538 218 q 599 298 585 264 q 614 378 614 332 q 606 438 614 410 q 582 488 597 465 q 503 507 546 507 q 484 506 496 507 q 457 501 472 504 q 504 379 496 454 q 454 407 476 397 q 421 417 432 417 q 358 392 388 417 q 328 319 329 368 m 443 783 q 606 749 529 783 q 738 661 682 714 l 742 665 q 881 756 801 728 q 1043 783 961 783 q 1217 746 1144 783 q 1329 650 1289 708 l 1353 628 q 1411 542 1392 589 q 1431 446 1431 494 q 1390 315 1431 376 q 1267 224 1350 254 l 1382 167 q 1379 163 1379 164 l 1432 110 q 1277 -37 1363 7 q 1083 -81 1192 -81 q 924 -52 993 -81 q 806 26 856 -24 l 790 40 q 656 -49 732 -17 q 500 -81 579 -81 q 350 -51 424 -81 q 217 38 276 -22 l 201 53 q 158 90 181 68 q 69 224 99 150 q 39 378 39 299 q 42 436 39 407 q 56 494 46 465 q 92 556 68 529 q 144 599 115 582 l 122 625 q 267 742 185 700 q 443 783 349 783 m 443 756 q 281 719 356 756 q 151 615 207 682 q 217 640 182 633 q 288 641 253 646 q 352 622 322 636 q 401 582 382 607 q 494 581 450 592 q 570 544 538 571 q 622 474 603 517 q 642 378 642 432 q 613 262 642 308 q 540 192 583 215 q 445 167 496 168 q 351 190 394 167 q 278 259 307 213 q 249 375 249 306 q 267 444 249 417 q 313 484 286 471 q 368 496 339 497 q 419 481 397 494 q 392 547 415 519 q 336 588 369 574 q 263 603 303 601 q 188 592 224 604 q 123 553 151 579 q 82 486 94 526 q 66 385 67 436 q 78 286 65 335 q 115 192 90 238 q 178 110 140 147 q 313 22 238 49 q 466 0 389 -4 q 614 38 543 4 q 736 133 685 72 q 856 35 783 72 q 1028 -1 928 -1 q 1206 35 1129 -1 q 1342 157 1283 72 l 1196 229 q 1097 168 1151 185 q 989 160 1042 151 q 922 187 951 165 q 871 240 892 208 q 840 309 850 271 q 829 386 829 347 q 847 473 831 433 q 892 542 864 513 q 957 588 921 571 q 1033 607 993 604 q 1102 597 1071 608 q 1155 567 1133 586 q 1186 526 1176 549 q 1190 484 1196 504 q 1162 449 1185 464 q 1094 429 1139 433 q 1041 426 1069 426 q 985 428 1013 425 q 931 440 957 431 q 883 467 906 449 q 876 374 863 415 q 931 309 890 333 q 1033 279 971 285 q 1169 293 1094 274 q 1286 352 1243 311 q 1344 444 1329 393 q 1345 551 1358 496 q 1294 652 1332 607 q 1192 726 1256 697 q 1043 756 1129 756 q 891 731 965 756 q 761 646 817 706 q 749 633 754 639 q 738 619 743 626 q 610 719 686 682 q 443 756 535 756 z "},"":{"ha":824,"x_min":63,"x_max":818,"o":"m 268 1244 q 330 1228 301 1244 q 374 1183 358 1211 l 408 1150 q 443 1065 443 1115 q 415 988 443 1021 q 344 947 386 954 l 349 943 l 349 861 q 348 799 349 833 q 347 729 347 765 q 348 639 347 685 q 350 553 349 593 q 353 484 351 514 q 360 440 356 454 l 361 435 q 390 429 372 429 q 424 438 408 429 q 453 460 440 446 q 472 494 465 475 q 479 538 479 514 q 510 529 494 533 q 531 522 526 525 l 531 982 l 500 1013 q 455 1056 472 1028 q 438 1121 438 1085 q 474 1208 438 1172 q 561 1244 510 1244 q 623 1228 594 1244 q 667 1183 651 1211 l 701 1150 q 736 1065 736 1115 q 718 1003 736 1032 l 767 1003 l 767 994 l 818 943 l 818 279 q 793 121 818 192 q 719 -1 768 50 q 596 -78 669 -51 q 425 -106 522 -106 q 287 -85 350 -106 q 182 -22 224 -64 l 160 0 q 89 74 115 29 q 63 182 63 119 q 71 243 63 206 q 94 336 79 281 q 101 324 97 329 q 108 313 104 318 l 151 269 q 157 257 154 263 q 164 246 160 251 q 222 204 192 221 q 281 178 251 188 q 193 239 231 200 l 171 260 q 152 274 161 267 q 135 292 143 282 q 82 379 100 328 q 64 500 64 431 l 64 1003 l 217 1003 l 206 1013 q 161 1057 178 1028 q 144 1121 144 1086 q 181 1208 144 1172 q 268 1244 217 1244 m 561 1217 q 493 1189 521 1217 q 465 1121 465 1161 q 493 1053 465 1081 q 561 1025 521 1025 q 629 1053 601 1025 q 657 1121 657 1081 q 629 1189 657 1161 q 561 1217 601 1217 m 369 -26 q 530 -1 461 -26 q 645 72 599 25 q 715 186 692 119 q 739 335 739 253 l 739 975 l 558 975 l 558 453 q 540 483 551 469 q 508 501 528 496 q 499 463 508 481 q 474 431 490 444 q 435 409 457 417 q 390 401 414 401 q 324 424 354 401 q 282 490 293 446 q 275 543 278 507 q 271 625 272 579 q 269 723 269 671 q 269 823 268 775 q 269 911 269 871 q 269 975 269 951 l 92 975 l 92 500 q 154 311 92 375 q 249 251 197 268 q 354 236 301 233 q 410 245 379 238 q 472 266 442 253 q 525 299 501 279 q 558 344 549 318 q 505 193 558 242 q 350 142 451 144 q 278 147 315 140 q 208 169 242 154 q 147 208 175 185 q 103 263 119 232 q 95 136 82 190 q 147 46 108 82 q 242 -8 185 10 q 369 -26 300 -26 m 268 1217 q 200 1189 228 1217 q 172 1121 172 1161 q 200 1053 172 1081 q 268 1025 228 1025 q 336 1053 308 1025 q 364 1121 364 1081 q 336 1189 364 1161 q 268 1217 308 1217 z "},"":{"ha":756,"x_min":39,"x_max":803,"o":"m 264 719 q 158 694 196 719 q 110 635 121 669 q 109 562 99 600 q 147 499 119 524 q 167 534 151 521 q 205 555 183 547 q 251 565 226 563 q 296 567 275 567 l 410 567 l 86 0 l 668 0 l 668 153 l 364 153 l 688 719 l 264 719 m 490 772 l 689 960 l 501 960 l 419 874 l 335 960 l 147 960 l 283 832 q 342 788 311 806 q 419 772 374 771 l 490 772 m 335 747 l 322 760 l 294 786 q 264 813 278 799 l 78 988 l 346 988 l 418 913 l 490 988 l 757 988 l 750 981 l 803 928 l 613 747 l 735 747 l 731 740 l 783 688 l 493 181 l 696 181 l 696 172 l 747 121 l 747 -79 l 101 -79 l 50 -28 l 39 -28 l 333 488 q 299 481 317 486 q 265 467 281 476 q 236 440 249 457 q 219 396 224 422 l 204 410 l 167 446 l 167 443 q 99 524 122 483 q 76 597 76 564 q 87 652 76 625 q 120 700 97 679 q 178 734 143 721 q 264 747 214 747 l 335 747 z "},"":{"ha":1417,"x_min":69,"x_max":1399,"o":"m 1344 413 q 1346 411 1346 413 l 1344 413 m 1207 499 q 1275 483 1247 499 q 1318 439 1303 467 l 1344 413 l 1346 411 l 1351 407 q 1388 335 1378 381 q 1396 228 1399 290 l 265 228 q 176 260 208 228 l 142 294 q 85 369 101 317 q 72 499 69 421 l 1207 499 m 1207 471 l 99 471 q 120 350 96 393 q 210 307 144 307 l 1318 307 q 1297 428 1321 385 q 1207 471 1272 471 z "},"":{"ha":899,"x_min":69,"x_max":881,"o":"m 826 413 q 828 411 828 413 l 826 413 m 689 499 q 757 483 729 499 q 800 439 785 467 l 826 413 l 828 411 l 833 407 q 870 335 860 381 q 878 228 881 290 l 265 228 q 176 260 208 228 l 142 294 q 85 369 101 317 q 72 499 69 421 l 689 499 m 689 471 l 99 471 q 120 350 96 393 q 210 307 144 307 l 800 307 q 778 428 803 385 q 689 471 754 471 z "},"":{"ha":871,"x_min":56,"x_max":867,"o":"m 813 413 q 814 411 814 413 l 813 413 m 675 499 q 743 483 715 499 q 786 439 771 467 l 813 413 l 814 411 l 819 407 q 856 335 846 381 q 864 228 867 290 l 251 228 q 163 260 194 228 l 128 294 q 72 369 88 317 q 58 499 56 421 l 675 499 m 85 471 q 106 350 82 393 q 196 307 131 307 l 786 307 q 765 428 789 385 q 675 471 740 471 l 85 471 z "},"":{"ha":399,"x_min":57,"x_max":394,"o":"m 83 318 q 90 358 85 340 q 101 392 94 376 q 86 447 94 417 q 72 506 78 476 q 61 564 65 536 q 57 613 57 592 q 66 683 57 650 q 100 742 75 717 q 200 783 142 783 q 301 740 258 783 q 313 726 308 733 q 324 711 318 718 l 354 682 q 394 583 394 642 q 354 485 394 525 q 343 475 349 479 q 331 467 338 471 l 369 429 l 369 -333 l 143 -333 l 92 -282 l 83 -282 l 83 318 m 200 756 q 119 722 153 756 q 90 664 96 699 q 85 592 83 629 q 95 519 88 554 q 110 463 103 485 q 140 497 118 486 q 186 515 161 507 q 237 530 211 522 q 282 557 263 538 q 315 639 315 590 q 282 721 315 688 q 200 756 247 756 m 111 317 l 111 -254 l 290 -254 l 290 461 q 222 454 253 461 q 167 431 190 447 q 128 386 143 414 q 111 317 114 358 z "},"":{"ha":817,"x_min":35,"x_max":836,"o":"m 128 -161 q 122 -160 125 -161 q 117 -160 119 -160 l 190 40 l 188 43 q 72 185 108 101 q 35 364 35 269 q 85 564 35 468 q 236 718 135 660 q 461 771 342 776 l 476 813 q 538 880 494 861 q 639 899 582 899 q 668 898 654 899 q 694 896 682 897 l 692 889 l 744 836 l 686 678 q 697 665 692 671 q 706 653 701 660 l 725 633 q 771 567 756 603 q 786 500 786 532 q 768 429 786 461 q 718 382 750 397 l 686 396 l 638 443 l 626 449 l 617 472 l 611 476 l 507 196 q 607 278 560 215 l 786 149 q 783 144 783 146 l 836 92 q 497 -87 707 -87 q 451 -86 474 -87 q 404 -79 428 -85 l 381 -139 q 350 -180 371 -164 q 302 -204 329 -196 q 243 -214 275 -212 q 178 -211 211 -215 l 128 -161 m 418 574 l 286 219 q 239 310 250 258 q 239 414 228 363 q 306 526 256 488 q 418 574 356 564 m 653 458 q 697 504 682 472 q 706 574 711 536 q 675 649 701 611 q 597 711 649 686 l 656 871 q 563 863 604 875 q 503 803 521 851 l 481 742 q 360 735 419 747 q 249 693 301 722 q 111 554 157 640 q 63 374 65 468 q 101 194 61 281 q 224 53 142 107 l 154 -135 q 201 -137 178 -137 q 244 -130 225 -136 q 279 -110 264 -124 q 303 -75 294 -97 l 333 6 q 442 -8 381 -8 q 747 142 639 -8 l 614 239 q 439 156 551 156 q 414 157 425 156 q 392 161 403 158 l 542 563 q 612 522 582 549 q 653 458 642 496 z "},"":{"ha":814,"x_min":40,"x_max":817,"o":"m 564 688 l 543 707 l 538 704 l 535 719 q 528 733 531 726 q 524 744 526 739 q 515 745 519 744 q 507 746 511 746 q 442 724 471 746 q 414 667 414 703 q 422 622 414 647 l 628 622 q 627 618 628 619 q 626 614 626 617 l 679 563 q 638 406 675 463 q 518 350 601 350 l 506 350 q 508 324 508 336 q 508 299 508 313 q 492 188 508 246 l 494 188 q 542 192 518 188 q 587 210 567 197 q 622 245 607 222 q 642 304 636 268 q 701 274 674 293 q 746 226 729 254 l 779 194 q 806 156 796 178 q 817 110 817 135 q 806 52 817 82 q 769 -12 794 22 q 681 -79 735 -58 q 567 -100 626 -100 q 503 -97 533 -100 q 444 -89 474 -93 q 384 -80 414 -83 q 325 -76 354 -76 q 262 -83 297 -76 q 179 -106 226 -89 l 126 -53 l 121 -56 l 40 154 q 107 178 76 168 q 163 192 138 189 q 200 273 188 236 q 215 350 213 310 l 111 350 l 60 401 l 51 401 l 51 622 l 138 622 q 125 677 129 649 q 121 731 121 706 q 142 842 121 789 q 203 934 164 894 q 301 997 243 974 q 432 1022 358 1021 q 495 1016 463 1022 q 558 996 528 1010 q 612 963 588 982 q 653 919 636 944 l 683 889 q 700 868 693 879 q 714 846 707 857 q 726 813 721 831 q 731 775 731 794 q 707 692 731 732 q 625 636 683 651 l 601 658 l 596 656 l 565 686 l 564 686 l 564 688 m 564 714 q 619 744 599 724 q 647 791 639 765 q 651 844 654 817 q 638 892 647 871 q 603 935 625 917 q 553 968 582 954 q 494 988 525 982 q 432 994 463 994 q 283 957 346 992 q 185 866 219 922 q 149 739 151 810 q 181 594 146 668 l 79 594 l 79 429 l 238 429 q 242 358 243 390 q 235 294 242 325 q 214 231 228 263 q 181 165 200 200 q 76 138 136 160 l 138 -19 q 240 2 192 0 q 334 -1 289 4 q 422 -13 379 -6 q 511 -21 465 -21 q 615 -2 565 -21 q 694 57 664 17 q 734 135 726 100 q 733 197 742 169 q 706 241 725 224 q 664 267 686 258 q 624 194 656 217 q 550 164 592 171 q 463 161 508 157 q 385 169 418 165 q 411 242 401 210 q 426 305 421 275 q 429 365 431 335 q 422 429 428 394 l 463 429 q 565 473 533 429 q 599 594 596 517 l 374 594 q 349 660 363 622 q 335 722 335 697 q 368 793 335 765 q 442 824 401 821 q 520 802 483 828 q 564 714 557 776 z "},"":{"ha":897,"x_min":25,"x_max":922,"o":"m 144 736 q 145 734 144 735 q 146 732 146 733 l 147 733 l 144 736 m 311 486 q 336 389 311 431 q 388 363 360 372 q 449 353 417 353 q 522 367 488 353 q 583 408 557 382 q 623 468 608 433 q 638 542 638 503 q 628 603 638 574 q 600 656 618 632 q 554 674 579 667 q 504 681 529 681 q 428 665 464 681 q 367 624 393 650 q 326 562 342 597 q 311 486 311 526 m 449 903 q 639 849 556 903 l 686 896 q 751 922 713 922 q 812 903 779 922 q 872 850 844 883 l 871 849 l 907 813 l 922 794 l 806 678 q 860 486 860 592 q 846 387 860 435 q 807 299 832 339 q 818 281 815 288 l 854 247 q 879 183 879 222 q 862 124 879 156 q 813 68 844 93 l 760 121 l 757 118 l 692 183 q 603 145 651 160 q 504 131 556 131 q 314 186 400 131 l 264 136 q 201 111 239 111 q 151 124 178 111 q 101 161 125 138 l 72 190 q 25 235 46 208 l 140 350 q 102 440 115 390 q 89 542 89 489 q 103 643 89 594 q 142 733 117 692 l 96 779 q 69 846 69 806 q 88 906 69 874 q 140 967 107 939 l 258 850 q 449 903 339 903 m 449 760 q 533 742 493 760 q 601 696 572 725 q 648 627 631 667 q 665 542 665 588 q 648 458 665 497 q 601 389 631 418 q 533 342 572 360 q 449 325 493 325 q 365 342 404 325 q 296 389 325 360 q 249 458 267 418 q 232 542 232 497 q 249 627 232 588 q 296 696 267 667 q 365 742 325 725 q 449 760 404 760 m 449 875 q 345 858 394 875 q 256 813 296 842 l 139 929 q 113 899 122 917 q 99 863 103 881 q 99 828 96 844 q 115 799 103 811 l 178 736 q 133 645 149 694 q 117 542 117 596 q 133 439 117 489 q 178 349 149 389 l 63 233 q 92 206 75 217 q 128 192 110 196 q 163 192 146 189 q 192 208 179 196 l 256 272 q 345 226 296 243 q 449 210 394 210 q 552 226 503 210 q 642 272 601 243 l 758 156 q 798 222 790 182 q 782 286 806 261 l 719 349 q 765 440 749 390 q 781 542 781 489 q 765 645 781 596 q 719 736 749 694 l 835 851 q 805 878 822 868 q 769 892 788 889 q 735 892 751 896 q 706 876 718 889 l 642 813 q 552 858 601 842 q 449 875 503 875 z "},"":{"ha":860,"x_min":39,"x_max":869,"o":"m 796 458 q 828 328 832 419 l 729 328 q 758 296 749 314 l 796 258 q 828 128 832 219 l 601 128 l 601 -76 l 368 -76 l 317 -25 l 308 -25 l 308 128 l 243 128 q 175 153 197 128 l 138 189 q 93 245 106 206 q 83 343 81 285 l 183 343 l 175 353 l 138 389 q 93 445 106 406 q 83 543 81 485 l 244 543 l 39 997 l 292 997 l 297 985 l 344 938 l 442 719 q 506 859 474 788 q 568 997 539 931 l 821 997 l 817 989 l 869 938 l 690 542 q 758 496 736 536 l 796 458 m 83 969 l 288 515 l 110 515 q 125 435 107 464 q 188 407 143 407 l 336 407 l 336 315 l 110 315 q 125 235 107 264 q 188 207 143 207 l 336 207 l 336 3 l 522 3 l 522 207 l 750 207 q 735 287 753 258 q 672 315 717 315 l 522 315 l 522 407 l 750 407 q 735 487 753 458 q 672 515 717 515 l 571 515 l 776 969 l 585 969 l 429 626 l 275 969 l 83 969 z "},"":{"ha":497,"x_min":167,"x_max":382,"o":"m 167 919 q 181 963 167 943 q 217 995 194 982 q 270 1015 240 1008 q 331 1019 300 1022 l 331 1011 l 382 960 l 382 469 l 226 413 l 174 465 l 167 463 l 167 919 m 331 399 l 382 347 l 382 -239 q 369 -281 382 -261 q 333 -313 356 -300 q 283 -333 311 -326 q 226 -335 256 -339 l 175 -285 q 171 -284 172 -285 q 167 -283 169 -283 l 167 349 l 331 408 l 331 399 m 303 369 l 194 329 l 194 -258 q 235 -256 215 -261 q 269 -241 254 -251 q 294 -215 285 -231 q 303 -183 303 -200 l 303 369 m 194 919 l 194 501 l 303 542 l 303 994 q 263 991 282 996 q 228 976 243 986 q 203 951 213 965 q 194 919 194 936 z "},"":{"ha":808,"x_min":25,"x_max":757,"o":"m 408 410 q 401 381 396 394 q 433 353 417 367 q 469 324 450 339 l 478 317 q 454 367 474 339 l 442 382 q 415 404 426 392 l 408 410 m 400 83 q 351 123 376 103 q 303 167 326 143 q 238 227 269 196 q 180 294 206 258 q 139 368 154 329 q 124 449 124 407 q 141 541 124 500 q 188 615 158 582 q 142 695 160 651 q 124 783 124 739 q 146 888 124 840 q 206 968 168 935 q 294 1020 244 1001 q 400 1039 344 1039 q 524 1019 465 1039 q 622 967 583 999 q 635 952 629 960 q 646 938 640 944 l 683 901 q 733 788 733 851 q 716 722 733 754 q 661 664 699 689 l 626 672 l 576 721 l 568 724 q 558 741 563 733 q 547 756 553 749 q 482 774 515 774 q 448 769 464 774 q 421 756 432 764 q 404 737 410 747 q 401 715 399 726 l 442 682 l 472 657 q 563 580 517 621 q 642 494 608 539 l 646 492 q 696 436 674 464 q 731 379 718 408 q 757 263 757 318 q 743 175 757 218 q 701 96 729 132 q 717 71 710 83 q 731 44 725 58 l 732 44 q 756 -72 756 -8 q 736 -175 756 -125 q 678 -264 717 -225 q 584 -326 640 -303 q 454 -350 528 -350 q 308 -317 379 -350 q 178 -225 236 -283 l 165 -212 q 87 -137 122 -181 q 25 -43 51 -93 l 207 92 l 215 74 l 261 29 q 274 4 267 17 q 288 -19 281 -8 q 327 -52 307 -39 q 365 -72 347 -65 q 384 -76 374 -75 q 403 -76 394 -76 q 456 -61 435 -76 q 478 -22 478 -46 q 453 32 478 0 q 442 46 447 39 q 429 60 436 53 q 415 71 422 65 q 400 83 407 76 m 492 269 q 401 345 444 310 q 335 411 358 381 q 322 458 315 435 q 351 497 328 482 q 421 440 388 467 q 475 385 454 413 q 505 321 503 350 q 492 269 507 292 m 592 739 q 638 787 624 760 q 653 842 653 814 q 641 897 654 869 q 604 946 628 924 q 516 994 569 978 q 400 1011 463 1011 q 306 994 350 1011 q 226 948 261 978 q 172 876 192 918 q 151 783 151 833 q 172 693 151 735 q 225 614 193 651 q 172 542 192 583 q 151 449 151 500 q 190 326 151 382 q 282 223 229 271 q 389 133 335 175 q 475 50 443 90 q 505 -19 504 13 q 486 -72 506 -51 q 432 -101 467 -93 q 358 -99 397 -110 q 313 -78 336 -93 q 267 -42 289 -62 q 227 1 246 -22 q 197 49 208 25 l 61 -51 q 123 -140 86 -100 q 203 -210 160 -181 q 297 -255 247 -239 q 399 -271 347 -271 q 546 -237 485 -271 q 640 -149 607 -203 q 676 -32 672 -96 q 654 90 681 32 q 615 151 642 119 q 675 281 664 207 q 654 425 686 356 q 590 514 633 469 q 498 599 547 558 q 403 677 449 640 q 335 744 358 714 q 322 790 317 768 q 347 828 326 813 q 399 850 368 844 q 465 847 431 856 q 533 813 500 839 q 592 739 567 788 z "},"":{"ha":1161,"x_min":53,"x_max":1154,"o":"m 857 219 q 731 135 803 167 q 578 104 660 104 q 424 135 496 104 q 299 219 353 167 q 215 345 246 274 q 183 499 183 417 q 215 652 183 581 q 299 778 246 724 q 424 862 353 831 q 578 893 496 893 q 731 862 660 893 q 857 778 803 831 q 941 652 910 724 q 972 499 972 581 q 941 345 972 417 q 857 219 910 274 m 929 850 q 772 957 861 918 q 578 996 682 996 q 384 957 474 996 q 226 850 294 918 q 119 692 158 782 q 81 499 81 603 q 119 305 81 394 q 226 147 158 215 q 384 40 294 79 q 578 1 474 1 q 772 40 682 1 q 929 147 861 79 q 1036 305 997 215 q 1075 499 1075 394 q 1036 692 1075 603 q 929 850 997 782 m 719 357 q 613 301 672 310 q 501 314 553 292 q 413 384 449 336 q 378 499 378 432 q 395 582 378 544 q 442 646 413 619 q 508 686 471 672 q 585 699 544 700 q 668 678 629 697 q 735 624 707 658 q 775 659 767 638 q 777 701 783 681 q 753 741 771 722 q 717 769 736 760 q 651 794 685 785 q 578 803 617 803 q 460 779 515 803 q 363 714 404 756 q 297 617 321 672 q 274 499 274 561 q 299 376 274 432 q 365 281 324 321 q 461 219 407 242 q 573 194 515 196 q 688 215 631 193 q 793 283 744 236 q 812 304 803 294 q 828 325 821 314 l 735 374 l 719 357 m 949 869 q 970 846 960 858 q 992 821 981 833 l 1001 811 q 1113 646 1072 740 q 1154 443 1154 551 q 1113 240 1154 335 q 1001 75 1072 146 q 836 -37 931 4 q 633 -78 742 -78 q 431 -37 525 -78 q 265 75 336 4 l 256 85 q 230 106 242 94 q 207 128 218 117 q 94 294 135 200 q 53 499 53 389 q 94 703 53 608 q 207 869 135 797 q 374 983 279 942 q 578 1024 468 1024 q 782 983 688 1024 q 949 869 876 942 m 728 410 l 868 335 q 865 331 865 332 l 889 306 q 930 397 915 349 q 944 499 944 446 q 920 631 944 568 q 853 742 896 693 q 780 783 818 765 q 700 807 742 800 l 729 794 q 763 769 746 783 q 790 735 779 754 l 821 706 q 849 668 838 689 q 860 626 860 647 q 842 581 860 603 q 783 539 825 558 l 746 575 l 726 589 q 725 590 725 589 q 640 619 683 617 q 572 608 606 621 q 513 572 539 596 q 472 516 488 549 q 457 443 457 483 q 476 360 457 396 q 579 326 519 326 q 642 339 610 326 q 699 375 674 351 l 728 410 m 385 228 q 316 293 346 256 q 268 376 286 331 q 332 225 283 293 q 514 138 408 157 q 400 214 451 163 l 385 228 z "},"":{"ha":617,"x_min":56,"x_max":613,"o":"m 533 538 l 533 971 l 425 971 l 425 925 l 425 793 q 419 734 425 764 q 401 681 414 704 q 365 642 388 657 q 310 626 343 626 q 244 645 271 626 q 206 692 218 664 q 193 754 193 721 q 206 816 193 788 q 246 863 219 844 q 311 882 272 882 q 360 875 335 882 q 401 847 386 868 q 408 883 408 861 q 396 927 407 906 q 360 965 385 949 q 296 982 336 981 q 216 967 254 983 q 149 921 178 951 q 101 848 119 890 q 83 756 83 806 q 119 622 83 676 q 206 544 154 568 q 317 529 258 521 q 425 585 376 538 l 425 538 l 533 538 m 164 536 q 85 623 115 568 q 56 756 56 678 q 76 860 56 813 q 129 941 96 907 q 206 993 163 975 q 297 1010 250 1011 q 358 993 333 1007 q 397 957 382 979 l 397 999 l 561 999 l 561 990 l 613 939 l 613 458 l 457 458 l 443 472 q 343 447 394 447 q 260 464 300 447 q 188 513 219 481 l 164 536 m 310 654 q 352 667 335 654 q 379 699 369 679 q 393 744 389 719 q 397 793 397 768 l 397 797 q 367 803 381 803 q 296 770 319 803 q 272 697 272 738 q 276 660 272 678 q 292 656 283 657 q 310 654 300 654 z "},"":{"ha":846,"x_min":69,"x_max":828,"o":"m 776 110 q 778 108 778 110 l 776 110 m 776 600 q 778 599 778 600 l 776 600 m 315 794 q 372 903 315 874 q 532 929 429 933 l 532 921 l 583 869 l 583 686 l 639 686 q 749 628 717 686 l 776 600 l 778 599 l 783 594 q 819 524 810 568 q 825 418 828 481 l 583 418 l 583 307 q 519 196 583 225 l 639 196 q 749 138 717 196 l 776 110 l 778 108 l 783 104 q 819 34 810 78 q 825 -71 828 -10 l 263 -71 q 175 -39 207 -71 l 140 -4 q 85 67 100 17 q 72 196 69 117 l 356 196 l 324 226 q 319 227 321 226 q 315 228 318 228 l 315 418 l 263 418 q 176 450 208 418 l 143 482 q 85 555 101 503 q 72 686 69 607 l 315 686 l 315 794 m 639 168 l 99 168 q 120 50 96 92 q 207 8 144 8 l 747 8 q 727 126 751 83 q 639 168 703 168 m 343 794 l 343 658 l 99 658 q 120 540 96 582 q 207 497 144 497 l 343 497 l 343 254 q 462 274 419 250 q 504 363 504 299 l 504 497 l 747 497 q 727 616 751 574 q 639 658 703 658 l 504 658 l 504 903 q 385 881 428 906 q 343 794 343 857 z "},"":{"ha":614,"x_min":56,"x_max":610,"o":"m 426 760 q 411 819 426 793 q 365 831 389 831 q 276 794 313 831 q 240 706 240 758 q 249 654 240 679 q 308 639 276 639 q 392 674 357 639 q 426 760 426 708 m 165 553 q 147 567 156 560 q 129 583 138 574 q 56 763 56 657 q 131 938 56 867 q 212 992 168 974 q 308 1011 256 1011 q 485 938 411 1011 l 515 901 l 538 879 q 610 706 610 807 q 538 531 610 603 q 363 458 465 458 q 188 531 260 458 l 165 553 m 454 760 q 411 654 454 700 q 308 611 368 611 q 204 656 247 611 q 161 761 161 699 q 204 867 161 824 q 310 910 247 910 q 411 867 369 910 q 454 760 454 821 m 531 761 q 465 918 531 853 q 308 983 400 983 q 150 918 218 983 q 83 763 83 853 q 149 603 83 668 q 307 538 214 538 q 465 603 400 538 q 531 761 531 668 z "},"":{"ha":744,"x_min":46,"x_max":742,"o":"m 569 626 q 503 694 554 669 q 378 708 451 719 l 496 354 l 496 353 l 378 -1 q 503 13 451 -12 q 569 82 554 38 l 661 354 l 569 626 m 83 711 l 203 357 l 83 8 l 249 8 l 368 357 l 249 711 l 83 711 m 271 728 l 321 679 l 449 301 l 321 -71 l 107 -71 l 56 -19 l 46 -19 l 174 357 l 46 739 l 268 739 l 271 728 m 351 -24 q 347 -23 349 -24 q 342 -22 344 -22 l 467 354 l 342 729 q 392 738 378 736 q 418 739 407 739 q 516 716 472 739 q 583 660 560 693 l 617 626 q 647 578 639 604 l 742 299 l 647 19 q 584 -53 632 -24 q 474 -83 536 -83 q 449 -83 463 -83 q 403 -75 435 -82 l 351 -24 z "},"":{"ha":997,"x_min":56,"x_max":993,"o":"m 575 621 q 510 608 558 608 l 426 608 l 426 715 l 511 715 q 575 704 560 715 q 590 663 590 693 q 575 621 590 633 m 688 375 q 685 406 686 382 q 681 472 683 431 q 669 535 679 517 q 635 567 663 550 q 678 613 665 589 q 689 672 689 638 q 669 744 689 714 q 622 789 653 776 q 528 804 589 804 l 326 804 l 326 349 l 426 349 l 426 525 l 507 525 q 557 518 543 525 q 574 496 569 510 q 581 422 578 486 q 581 397 581 407 q 583 379 582 386 q 593 349 586 365 l 707 349 q 688 375 692 363 m 785 414 q 664 294 740 338 q 499 251 585 251 q 333 296 411 251 q 213 415 256 340 q 168 578 168 492 q 265 810 168 713 q 500 906 363 906 q 732 810 636 906 q 828 575 828 714 q 785 414 828 488 m 858 783 q 707 936 803 879 q 499 992 607 992 q 290 936 389 992 q 139 783 192 878 q 83 576 83 689 q 139 369 83 464 q 290 218 192 276 q 499 163 388 163 q 707 218 610 163 q 858 369 803 274 q 914 576 914 464 q 858 783 914 689 m 719 961 q 853 843 800 913 l 864 832 q 933 742 901 792 l 935 740 q 993 521 993 638 q 935 301 993 403 q 774 142 878 203 q 554 83 671 83 q 333 142 435 83 q 243 211 283 171 l 235 218 q 114 356 161 272 q 56 576 56 457 q 114 797 56 697 l 114 796 q 275 961 175 903 q 381 1004 325 989 q 499 1019 436 1019 q 613 1004 558 1019 q 719 961 667 989 m 760 429 q 800 575 800 497 q 726 775 800 690 q 618 821 676 808 l 633 815 q 690 763 669 799 l 721 733 q 746 700 735 718 l 744 701 q 768 617 768 665 q 750 539 768 579 q 743 526 747 532 q 729 513 739 521 q 747 489 742 500 q 753 463 750 479 q 758 428 757 447 l 760 429 m 297 353 l 299 353 l 299 692 q 247 522 247 618 q 289 371 247 439 l 297 353 m 506 279 q 601 297 550 279 l 581 321 l 574 321 q 560 352 564 339 q 556 375 557 365 q 553 394 554 382 q 553 421 553 406 q 551 433 551 428 q 551 446 551 439 l 506 446 l 506 279 z "},"":{"ha":744,"x_min":54,"x_max":750,"o":"m 697 739 l 694 732 l 747 679 l 621 303 q 653 212 636 260 q 686 115 669 164 q 719 19 703 67 q 750 -71 735 -29 l 535 -71 l 483 -19 l 476 -19 l 347 356 l 328 297 l 451 -75 q 406 -83 419 -82 q 381 -83 392 -83 q 300 -68 336 -83 q 240 -29 264 -53 l 210 0 q 149 74 165 29 l 54 354 l 149 635 l 149 636 q 210 710 164 681 q 325 739 257 739 q 351 738 336 739 q 401 729 365 736 l 399 722 l 451 671 l 361 400 l 476 739 l 697 739 m 175 626 l 83 354 l 175 82 q 242 13 190 38 q 365 -1 293 -12 l 247 353 l 249 354 l 247 354 l 365 708 q 242 694 293 719 q 175 626 190 669 m 496 711 l 376 357 l 496 8 l 661 8 l 540 357 l 660 711 l 496 711 z "},"":{"ha":1106,"x_min":64,"x_max":1088,"o":"m 754 168 l 869 338 l 869 168 l 754 168 m 964 410 q 938 481 964 460 q 868 494 913 503 l 649 168 l 649 81 l 869 81 l 869 -24 l 964 -24 l 964 81 l 1008 81 l 1008 168 l 964 168 l 964 410 m 193 906 l 193 490 l 289 490 l 289 996 l 200 996 q 119 970 146 996 q 99 906 93 944 l 193 906 m 294 -21 q 374 -17 338 -26 q 425 31 410 -8 l 783 994 q 703 988 739 999 q 651 935 667 976 l 294 -21 m 625 944 q 679 1006 640 989 q 771 1022 718 1022 q 799 1022 786 1022 q 822 1019 811 1021 l 819 1013 l 872 960 l 503 -33 q 475 -72 493 -58 q 432 -93 457 -86 q 377 -100 407 -100 q 317 -96 347 -100 l 265 -44 q 256 -43 261 -43 l 625 944 m 629 53 l 621 53 l 621 176 l 854 521 q 930 517 899 528 q 976 476 961 507 l 1015 439 q 1043 354 1043 411 l 1043 181 l 1088 136 l 1088 1 l 1043 1 l 1043 -103 l 901 -103 l 850 -51 l 842 -51 l 842 1 l 681 1 l 629 53 m 71 901 q 97 989 64 954 q 200 1024 131 1024 l 317 1024 l 317 1015 l 368 964 l 368 411 l 225 411 l 174 463 l 165 463 l 165 826 l 154 826 l 131 847 l 100 878 l 97 878 l 71 901 z "},"":{"ha":1147,"x_min":63,"x_max":1129,"o":"m 192 906 l 192 490 l 288 490 l 288 996 l 199 996 q 118 970 144 996 q 99 906 92 944 l 192 906 m 294 -21 q 372 -17 336 -26 q 424 31 408 -8 l 783 994 q 702 988 739 999 q 650 935 665 976 l 294 -21 m 869 65 q 930 128 899 96 q 987 196 961 161 q 1029 267 1013 231 q 1046 344 1046 304 q 1025 419 1046 383 q 968 475 1004 456 q 909 494 943 489 q 840 495 875 500 q 775 474 806 490 q 728 428 744 457 q 715 382 715 406 q 724 340 714 358 q 755 311 735 321 q 803 307 775 301 q 794 340 792 324 q 804 369 796 356 q 826 392 813 382 q 853 404 840 401 q 897 401 875 408 q 932 378 918 394 q 948 335 946 361 q 932 274 950 308 q 909 242 925 261 q 874 201 893 222 q 831 156 854 179 q 788 111 808 132 q 722 37 743 67 q 700 -24 700 7 l 1050 -24 l 1050 65 l 869 65 m 624 944 q 678 1006 639 989 q 771 1022 718 1022 q 799 1022 786 1022 q 822 1019 811 1021 l 819 1013 l 872 960 l 501 -33 q 431 -92 482 -82 q 317 -96 379 -103 l 265 -44 q 260 -44 263 -44 q 256 -43 258 -43 l 624 944 m 738 296 q 699 331 713 308 q 686 379 686 353 q 691 411 686 393 q 703 442 696 429 q 777 503 729 481 q 872 525 825 525 q 932 518 904 525 q 981 500 960 511 q 1046 438 1019 478 l 1072 411 q 1125 289 1125 358 q 1099 187 1125 236 q 1035 93 1072 138 l 1078 93 l 1078 85 l 1129 33 l 1129 -103 l 732 -103 l 681 -51 l 672 -51 q 696 42 672 3 q 768 131 719 82 q 817 180 792 154 q 863 229 842 206 q 809 238 832 228 q 771 263 786 247 l 738 296 m 71 900 q 95 988 63 953 q 199 1024 128 1024 l 315 1024 l 315 1015 l 367 964 l 367 411 l 224 411 l 172 463 l 164 463 l 164 826 l 154 826 l 131 846 l 99 878 l 97 878 l 71 900 m 913 325 q 888 301 897 321 q 886 257 879 282 q 899 272 893 265 q 907 286 904 279 q 915 306 913 296 q 919 325 918 317 l 913 325 z "},"":{"ha":1121,"x_min":68,"x_max":1103,"o":"m 335 -21 q 413 -17 376 -26 q 464 31 450 -8 l 824 994 q 742 988 779 999 q 690 935 706 976 l 335 -21 m 769 176 l 885 346 l 885 176 l 769 176 m 979 417 q 953 489 979 468 q 883 503 928 510 l 664 176 l 664 89 l 885 89 l 885 -15 l 979 -15 l 979 89 l 1024 89 l 1024 176 l 979 176 l 979 417 m 349 768 q 405 817 388 788 q 419 879 422 847 q 398 939 417 914 q 352 978 379 964 q 292 999 325 993 q 228 1000 258 1004 q 142 969 171 993 q 110 916 114 944 q 122 864 106 888 q 175 835 139 840 q 183 889 163 865 q 243 913 204 913 q 302 897 282 913 q 322 861 322 882 q 314 832 322 844 q 292 812 306 819 q 263 799 279 804 q 231 793 246 794 q 192 779 207 790 q 174 753 178 768 q 175 722 169 739 q 197 692 181 706 q 231 716 206 711 q 283 713 257 721 q 330 685 310 704 q 350 635 350 665 q 326 581 349 601 q 276 559 304 561 q 224 575 249 557 q 192 638 199 593 l 97 638 q 147 517 101 561 q 267 472 192 472 q 351 491 315 472 q 409 539 388 510 q 438 603 431 568 q 438 671 446 638 q 408 731 431 704 q 349 768 386 757 m 664 944 q 719 1006 679 989 q 811 1022 758 1022 q 839 1022 826 1022 q 863 1019 851 1021 l 860 1013 l 913 960 l 542 -33 q 513 -71 532 -57 q 469 -92 494 -85 q 415 -99 444 -99 q 357 -96 386 -100 l 307 -46 q 301 -45 304 -46 q 296 -44 299 -44 l 492 481 q 426 418 468 443 q 322 393 383 393 q 190 444 242 393 l 161 472 q 68 665 75 529 l 188 665 q 143 740 143 710 q 165 793 143 772 l 129 831 q 81 904 81 860 q 117 980 81 942 q 225 1028 154 1018 q 338 1011 281 1033 q 426 940 396 989 l 456 911 q 484 873 472 894 q 499 825 496 851 q 488 770 499 799 q 453 719 476 742 l 476 696 q 510 643 500 672 q 521 582 521 614 q 520 568 521 575 q 518 554 519 561 l 664 944 m 644 61 l 636 61 l 636 185 l 869 529 q 994 482 964 542 l 1031 446 q 1058 361 1058 418 l 1058 189 l 1103 144 l 1103 10 l 1058 10 l 1058 -94 l 917 -94 l 865 -43 l 857 -43 l 857 10 l 696 10 l 644 61 m 271 588 q 306 601 290 588 q 322 635 321 614 l 322 636 q 306 639 311 639 q 265 608 282 639 l 268 606 l 271 588 z "},"":{"ha":792,"x_min":54,"x_max":779,"o":"m 494 457 q 508 513 500 479 q 519 585 517 547 q 514 657 521 622 q 485 715 507 692 q 404 749 451 749 q 338 728 365 749 q 299 676 311 707 q 292 612 288 646 q 324 551 297 578 q 367 524 342 532 q 418 508 393 515 q 465 490 443 501 q 494 457 486 479 m 226 -237 q 338 -271 274 -261 q 465 -272 401 -281 q 583 -235 528 -264 q 672 -149 639 -206 q 700 -62 697 -107 q 685 19 703 -17 q 632 74 668 54 q 543 83 596 93 q 561 5 568 43 q 526 -61 554 -33 q 456 -103 499 -89 q 367 -106 413 -117 q 312 -81 335 -99 q 282 -37 289 -64 q 289 27 275 -10 q 346 111 303 64 q 401 168 375 143 q 446 217 426 193 q 477 269 465 242 q 489 336 489 297 q 481 381 489 358 q 452 420 472 403 q 399 448 432 438 q 315 457 365 458 q 307 369 319 407 q 272 301 294 332 q 222 243 250 271 q 167 184 194 215 q 118 115 140 153 q 86 24 96 76 q 86 -67 78 -26 q 115 -140 94 -107 q 164 -197 135 -172 q 226 -237 193 -221 m 358 -72 q 374 -78 363 -75 q 431 -78 403 -83 q 483 -58 460 -72 q 520 -23 506 -43 q 535 21 535 -3 q 526 52 535 32 q 497 103 518 72 q 529 108 515 107 q 557 110 543 110 q 649 89 611 110 q 706 33 686 68 l 738 3 q 779 -104 779 -39 q 749 -217 779 -160 q 694 -281 726 -254 q 625 -324 663 -307 q 546 -348 588 -340 q 463 -356 504 -356 q 362 -344 411 -356 q 272 -314 313 -333 l 271 -314 q 188 -254 224 -290 l 169 -236 q 88 -149 121 -201 q 54 -24 54 -97 q 58 28 54 3 q 81 100 67 68 q 113 158 94 132 q 151 208 131 185 q 192 251 171 231 q 230 293 211 272 q 262 341 249 314 q 282 402 275 368 q 285 483 289 436 q 326 483 307 483 q 361 479 344 482 l 329 511 q 304 532 314 519 q 263 632 263 575 q 272 686 263 660 q 301 733 282 713 q 346 765 319 753 q 404 776 372 776 q 504 735 463 776 q 515 722 510 728 q 524 710 519 717 l 557 676 q 590 620 581 653 q 599 551 599 588 q 589 464 599 507 q 572 394 579 421 l 528 393 l 504 415 q 494 419 499 418 q 482 424 489 421 q 492 413 488 418 q 500 400 496 407 l 531 369 q 559 327 550 350 q 568 281 568 304 q 560 222 568 247 q 539 174 553 196 q 507 132 525 151 q 468 92 489 113 l 419 40 l 418 39 q 372 -24 386 3 q 358 -72 358 -51 z "},"":{"ha":829,"x_min":64,"x_max":811,"o":"m 360 175 q 392 169 372 169 q 446 197 426 169 q 465 269 465 225 q 522 243 497 260 l 522 746 l 760 746 l 760 738 l 811 686 l 811 -85 l 582 -85 l 557 -60 q 483 -90 522 -81 q 411 -103 444 -100 q 380 -104 397 -104 q 349 -101 363 -104 l 349 -349 l 124 -349 l 72 -297 l 64 -297 l 64 590 q 79 656 64 625 q 124 707 94 686 q 197 738 153 728 q 297 744 240 749 l 297 736 l 349 685 l 349 381 q 352 256 350 313 q 360 181 354 200 l 360 175 m 550 -6 l 732 -6 l 732 718 l 550 718 l 550 213 l 550 176 q 526 213 543 196 q 493 235 510 231 q 467 167 493 193 q 392 142 440 142 q 324 164 356 142 q 282 231 293 186 q 273 311 275 254 q 269 436 271 368 l 269 718 q 192 713 225 721 q 137 686 160 704 q 103 644 114 668 q 92 590 92 619 l 92 -269 l 269 -269 l 269 -17 q 312 -24 290 -22 q 354 -24 333 -25 q 409 -15 379 -22 q 467 4 439 -8 q 517 35 494 17 q 550 78 539 53 l 550 -6 z "},"":{"ha":499,"x_min":71,"x_max":507,"o":"m 454 1044 l 507 992 l 311 772 q 231 739 279 739 q 133 772 189 739 l 89 815 l 71 826 l 178 1007 q 241 1087 210 1060 q 314 1114 272 1114 q 374 1098 339 1114 q 457 1047 408 1082 l 454 1044 m 415 1043 q 347 1081 376 1071 q 292 1083 317 1090 q 247 1053 268 1076 q 203 992 225 1031 l 111 836 q 180 818 144 817 q 239 844 215 819 l 415 1043 z "},"":{"ha":811,"x_min":67,"x_max":808,"o":"m 338 393 q 206 465 256 411 l 179 492 q 94 592 122 532 q 67 719 67 653 q 88 831 67 775 q 153 929 110 886 q 264 999 197 972 q 421 1026 331 1026 l 757 1026 q 756 1022 757 1024 q 756 1018 756 1021 l 808 967 q 783 881 806 918 q 725 842 761 844 l 725 -250 q 713 -292 725 -275 q 682 -320 701 -310 q 638 -335 663 -331 q 585 -339 613 -339 l 533 -287 l 526 -287 q 474 -328 511 -315 q 397 -337 438 -340 l 346 -286 l 338 -286 l 338 393 m 365 -260 q 430 -247 401 -262 q 458 -194 458 -231 l 458 921 l 553 921 l 553 -260 q 617 -245 589 -260 q 646 -194 646 -231 l 646 921 l 663 921 q 708 944 690 921 q 728 999 725 967 l 421 999 q 242 959 314 999 q 134 860 171 919 q 94 732 97 801 q 121 603 92 663 q 212 505 150 544 q 365 464 274 465 l 365 -260 z "},"":{"ha":1038,"x_min":38,"x_max":1060,"o":"m 238 54 q 88 249 138 133 q 38 489 38 364 q 106 760 38 635 q 200 883 147 833 q 315 964 253 933 q 445 1008 376 994 q 588 1022 514 1021 q 686 1014 635 1022 q 786 988 738 1006 q 876 943 835 969 q 942 881 917 917 l 969 853 q 1008 799 993 829 q 1022 733 1022 769 q 1006 658 1022 697 q 951 572 989 618 l 911 579 l 861 629 l 853 631 q 839 660 846 646 q 822 685 832 674 q 740 722 785 710 q 647 733 694 733 q 608 731 629 733 q 567 724 586 728 q 469 684 514 711 q 393 618 425 657 q 342 533 361 579 q 324 435 324 486 q 337 333 324 378 q 375 251 350 288 q 465 201 415 218 q 568 183 515 183 q 634 190 600 183 q 697 211 668 197 q 765 258 725 226 q 850 336 806 289 l 1010 164 l 1008 163 l 1060 108 q 886 -32 969 18 q 703 -96 803 -82 q 736 -179 736 -133 q 726 -229 736 -204 q 695 -275 715 -254 q 644 -310 675 -296 q 574 -328 614 -324 q 492 -322 525 -332 q 439 -290 460 -311 l 403 -256 q 358 -208 372 -236 q 344 -149 344 -179 q 364 -79 344 -115 q 406 -107 388 -97 q 438 -122 424 -117 l 411 -94 l 403 -94 l 408 -61 q 251 42 317 -24 l 238 54 m 878 643 q 938 751 926 701 q 933 840 950 800 q 879 908 917 879 q 793 957 842 938 q 690 986 744 976 q 588 994 636 996 q 452 981 518 993 q 328 940 386 968 q 219 864 269 911 q 131 747 169 817 q 77 604 93 681 q 67 450 61 528 q 99 298 72 372 q 172 161 125 224 q 288 53 219 99 q 446 -10 357 8 l 435 -67 l 472 -65 q 522 -78 506 -67 q 538 -103 538 -89 q 524 -132 538 -118 q 489 -151 511 -146 q 436 -151 467 -157 q 372 -121 406 -146 q 364 -166 361 -142 q 384 -210 367 -190 q 434 -242 401 -231 q 515 -249 467 -253 q 611 -213 576 -243 q 654 -147 646 -183 q 644 -76 663 -110 q 583 -25 626 -42 l 572 -22 q 687 -10 635 -22 q 787 24 739 1 q 879 82 835 47 q 971 164 924 117 l 850 296 q 708 186 774 218 q 553 156 635 153 q 403 199 472 160 q 290 310 335 238 q 244 490 244 383 q 264 597 244 546 q 318 690 283 649 q 401 761 353 732 q 507 803 450 790 q 618 811 561 815 q 726 788 675 807 q 818 732 778 768 q 878 643 858 696 z "},"":{"ha":1288,"x_min":10,"x_max":1285,"o":"m 553 404 q 585 406 568 406 q 617 407 601 407 l 617 536 l 553 404 m 439 858 q 544 971 479 942 q 710 999 608 1000 l 1232 999 l 1232 990 l 1283 939 l 1283 711 l 908 711 l 908 603 l 1233 603 q 1233 599 1233 600 q 1232 594 1232 597 l 1285 543 q 1272 463 1282 503 q 1242 390 1263 422 q 1188 338 1221 358 q 1107 318 1156 318 l 908 318 l 908 210 l 1232 210 l 1232 201 l 1283 150 l 1283 -79 l 676 -79 l 625 -28 l 617 -28 l 617 113 q 574 83 589 103 q 568 26 560 63 q 453 88 492 49 l 424 115 l 414 122 l 315 -79 l 72 -79 l 21 -28 l 10 -28 l 439 858 m 464 847 l 54 0 l 246 0 l 646 817 q 644 804 644 813 l 644 379 q 536 374 592 381 q 439 335 481 367 q 396 282 411 314 q 383 217 381 250 q 408 157 385 185 q 481 115 431 129 q 487 158 475 142 q 523 185 499 175 q 579 198 547 194 q 644 201 611 201 l 644 0 l 1204 0 l 1204 182 l 829 182 l 829 397 l 1051 397 q 1122 413 1093 397 q 1168 454 1150 429 q 1194 511 1186 479 q 1204 575 1203 543 l 829 575 l 829 790 l 1204 790 l 1204 971 l 710 971 q 558 946 617 972 q 464 847 499 919 z "},"":{"ha":1071,"x_min":28,"x_max":1092,"o":"m 542 1250 q 584 1233 567 1250 q 601 1190 601 1215 q 584 1148 601 1165 q 542 1131 567 1131 q 500 1148 518 1131 q 482 1190 482 1165 q 500 1233 482 1215 q 542 1250 518 1250 m 542 1342 q 483 1330 510 1342 q 435 1297 456 1318 q 403 1249 415 1276 q 392 1190 392 1221 q 403 1131 392 1158 q 435 1084 415 1104 q 483 1052 456 1064 q 542 1040 510 1040 q 600 1052 572 1040 q 649 1084 628 1064 q 681 1131 669 1104 q 693 1190 693 1158 q 681 1249 693 1221 q 649 1297 669 1276 q 600 1330 628 1318 q 542 1342 572 1342 m 632 971 q 481 955 536 988 q 397 847 425 922 l 632 971 m 558 965 q 475 1013 513 975 l 450 1038 q 387 1101 410 1061 q 364 1190 364 1142 q 378 1260 364 1228 q 416 1317 392 1293 q 472 1356 440 1342 q 542 1369 504 1369 q 628 1347 589 1369 q 692 1286 668 1324 l 721 1258 q 758 1203 744 1235 q 772 1135 772 1171 q 736 1029 772 1075 q 644 968 700 983 l 676 936 l 683 892 q 629 897 656 897 q 614 897 622 897 q 599 896 606 897 l 546 947 l 542 947 l 540 956 l 558 965 m 572 539 l 518 399 q 572 403 544 403 q 625 404 599 404 l 572 539 m 369 853 q 445 962 397 924 q 572 1000 493 1000 q 608 999 589 1000 q 650 992 626 997 l 654 981 l 703 932 l 1092 -79 l 849 -79 l 797 -28 l 790 -28 l 735 119 l 711 119 q 651 117 681 119 q 601 104 622 114 q 572 75 581 94 q 575 24 564 56 q 499 54 531 36 q 447 92 467 72 l 417 119 l 411 124 l 333 -79 l 90 -79 l 39 -28 l 28 -28 l 369 853 m 396 843 l 69 0 l 261 0 q 330 180 299 99 q 392 341 361 261 q 458 509 424 421 q 536 710 492 597 l 667 376 q 603 377 636 376 q 537 374 569 378 q 474 362 504 371 q 421 332 444 353 q 383 280 396 311 q 376 217 371 249 q 408 156 382 185 q 483 114 433 128 q 494 169 472 151 q 556 193 517 186 q 644 199 596 200 q 735 199 693 199 l 810 0 l 1001 0 l 629 967 q 478 950 533 983 q 396 843 424 917 z "},"":{"ha":1071,"x_min":28,"x_max":1092,"o":"m 572 539 l 518 399 q 572 403 544 403 q 625 404 599 404 l 572 539 m 369 853 q 445 962 397 924 q 572 1000 493 1000 q 608 999 589 1000 q 650 992 626 997 l 654 981 l 703 932 l 1092 -79 l 849 -79 l 797 -28 l 790 -28 l 735 119 l 711 119 q 651 117 681 119 q 601 104 622 114 q 572 75 581 94 q 575 24 564 56 q 499 54 531 36 q 447 92 467 72 l 417 119 l 411 124 l 333 -79 l 90 -79 l 39 -28 l 28 -28 l 369 853 m 396 843 l 69 0 l 261 0 q 330 180 299 99 q 392 341 361 261 q 458 509 424 421 q 536 710 492 597 l 667 376 q 603 377 636 376 q 537 374 569 378 q 474 362 504 371 q 421 332 444 353 q 383 280 396 311 q 376 217 371 249 q 408 156 382 185 q 483 114 433 128 q 494 169 472 151 q 556 193 517 186 q 644 199 596 200 q 735 199 693 199 l 810 0 l 1001 0 l 629 967 q 478 950 533 983 q 396 843 424 917 m 419 1318 q 506 1282 469 1318 q 526 1256 519 1268 l 558 1224 q 593 1140 593 1189 q 558 1057 593 1092 q 475 1022 524 1022 q 392 1057 426 1022 l 360 1089 q 333 1110 347 1096 q 297 1196 297 1146 q 333 1282 297 1246 q 419 1318 369 1318 m 710 1318 q 796 1282 760 1318 q 818 1253 810 1271 l 849 1224 q 883 1140 883 1190 q 849 1057 883 1090 q 765 1022 814 1022 q 720 1031 740 1022 q 682 1057 700 1040 l 647 1090 q 624 1110 635 1099 q 588 1196 588 1146 q 624 1282 588 1246 q 663 1308 643 1299 q 710 1318 683 1318 m 710 1290 q 643 1263 674 1290 q 615 1196 615 1235 q 643 1129 615 1157 q 710 1101 674 1101 q 776 1129 749 1101 q 804 1196 804 1156 q 776 1263 804 1236 q 710 1290 749 1290 m 419 1290 q 353 1263 381 1290 q 325 1196 325 1235 q 353 1129 325 1157 q 419 1101 381 1101 q 486 1129 458 1101 q 514 1196 514 1157 q 486 1263 514 1235 q 419 1290 458 1290 z "},"":{"ha":1071,"x_min":28,"x_max":1092,"o":"m 572 539 l 518 399 q 572 403 544 403 q 625 404 599 404 l 572 539 m 369 853 q 445 962 397 924 q 572 1000 493 1000 q 608 999 589 1000 q 650 992 626 997 l 654 981 l 703 932 l 1092 -79 l 849 -79 l 797 -28 l 790 -28 l 735 119 l 711 119 q 651 117 681 119 q 601 104 622 114 q 572 75 581 94 q 575 24 564 56 q 499 54 531 36 q 447 92 467 72 l 417 119 l 411 124 l 333 -79 l 90 -79 l 39 -28 l 28 -28 l 369 853 m 396 843 l 69 0 l 261 0 q 330 180 299 99 q 392 341 361 261 q 458 509 424 421 q 536 710 492 597 l 667 376 q 603 377 636 376 q 537 374 569 378 q 474 362 504 371 q 421 332 444 353 q 383 280 396 311 q 376 217 371 249 q 408 156 382 185 q 483 114 433 128 q 494 169 472 151 q 556 193 517 186 q 644 199 596 200 q 735 199 693 199 l 810 0 l 1001 0 l 629 967 q 478 950 533 983 q 396 843 424 917 m 322 1090 l 321 1090 q 283 1132 297 1107 q 268 1185 268 1157 q 281 1235 268 1210 q 324 1279 294 1260 q 380 1306 351 1299 q 438 1314 408 1314 q 525 1299 482 1314 q 607 1265 568 1285 q 652 1249 626 1256 q 703 1242 678 1242 q 740 1254 722 1242 q 771 1303 758 1267 q 839 1242 815 1281 l 865 1217 l 861 1219 l 871 1211 q 896 1178 886 1196 q 906 1140 906 1160 q 894 1094 906 1118 q 858 1050 882 1069 q 808 1023 835 1031 q 754 1015 782 1015 q 667 1029 714 1015 q 583 1057 621 1043 q 533 1074 558 1065 q 493 1083 508 1083 q 445 1077 468 1085 q 411 1047 422 1069 l 376 1039 l 361 1051 l 322 1090 m 335 1114 q 378 1154 350 1144 q 439 1163 407 1164 q 511 1144 468 1163 q 603 1111 554 1126 q 700 1094 651 1096 q 788 1124 749 1092 q 820 1165 813 1143 q 825 1208 828 1188 q 812 1243 822 1228 q 788 1265 801 1258 q 753 1225 776 1236 q 702 1214 731 1214 q 645 1222 674 1214 q 596 1240 617 1231 q 534 1267 567 1254 q 469 1283 501 1279 q 403 1283 436 1288 q 340 1257 371 1278 q 306 1220 315 1240 q 297 1181 296 1200 q 308 1144 297 1161 q 335 1114 318 1126 z "},"":{"ha":1071,"x_min":28,"x_max":1092,"o":"m 572 539 l 518 399 q 572 403 544 403 q 625 404 599 404 l 572 539 m 369 853 q 445 962 397 924 q 572 1000 493 1000 q 608 999 589 1000 q 650 992 626 997 l 654 981 l 703 932 l 1092 -79 l 849 -79 l 797 -28 l 790 -28 l 735 119 l 711 119 q 651 117 681 119 q 601 104 622 114 q 572 75 581 94 q 575 24 564 56 q 499 54 531 36 q 447 92 467 72 l 417 119 l 411 124 l 333 -79 l 90 -79 l 39 -28 l 28 -28 l 369 853 m 396 843 l 69 0 l 261 0 q 330 180 299 99 q 392 341 361 261 q 458 509 424 421 q 536 710 492 597 l 667 376 q 603 377 636 376 q 537 374 569 378 q 474 362 504 371 q 421 332 444 353 q 383 280 396 311 q 376 217 371 249 q 408 156 382 185 q 483 114 433 128 q 494 169 472 151 q 556 193 517 186 q 644 199 596 200 q 735 199 693 199 l 810 0 l 1001 0 l 629 967 q 478 950 533 983 q 396 843 424 917 m 413 1243 q 479 1291 443 1271 q 567 1310 515 1311 l 647 1310 l 901 1069 l 896 1069 l 947 1018 l 693 1018 l 640 1069 l 636 1069 l 617 1088 l 549 1018 l 293 1018 l 242 1069 l 228 1069 l 413 1243 m 297 1097 l 483 1097 l 567 1182 l 647 1097 l 832 1097 l 636 1282 l 567 1282 q 491 1267 522 1283 q 432 1224 460 1250 l 297 1097 z "},"":{"ha":1071,"x_min":28,"x_max":1092,"o":"m 572 539 l 518 399 q 572 403 544 403 q 625 404 599 404 l 572 539 m 369 853 q 445 962 397 924 q 572 1000 493 1000 q 608 999 589 1000 q 650 992 626 997 l 654 981 l 703 932 l 1092 -79 l 849 -79 l 797 -28 l 790 -28 l 735 119 l 711 119 q 651 117 681 119 q 601 104 622 114 q 572 75 581 94 q 575 24 564 56 q 499 54 531 36 q 447 92 467 72 l 417 119 l 411 124 l 333 -79 l 90 -79 l 39 -28 l 28 -28 l 369 853 m 396 843 l 69 0 l 261 0 q 330 180 299 99 q 392 341 361 261 q 458 509 424 421 q 536 710 492 597 l 667 376 q 603 377 636 376 q 537 374 569 378 q 474 362 504 371 q 421 332 444 353 q 383 280 396 311 q 376 217 371 249 q 408 156 382 185 q 483 114 433 128 q 494 169 472 151 q 556 193 517 186 q 644 199 596 200 q 735 199 693 199 l 810 0 l 1001 0 l 629 967 q 478 950 533 983 q 396 843 424 917 m 756 1297 l 808 1244 l 613 1025 q 532 992 581 992 q 435 1025 490 992 l 390 1068 l 372 1079 l 479 1260 q 542 1340 511 1313 q 615 1367 574 1367 q 675 1351 640 1367 q 758 1300 710 1335 l 756 1297 m 717 1296 q 648 1333 678 1324 q 594 1336 618 1343 q 548 1306 569 1329 q 504 1244 526 1283 l 413 1089 q 481 1071 446 1069 q 540 1097 517 1072 l 717 1296 z "},"":{"ha":1071,"x_min":28,"x_max":1092,"o":"m 572 539 l 518 399 q 572 403 544 403 q 625 404 599 404 l 572 539 m 369 853 q 445 962 397 924 q 572 1000 493 1000 q 608 999 589 1000 q 650 992 626 997 l 654 981 l 703 932 l 1092 -79 l 849 -79 l 797 -28 l 790 -28 l 735 119 l 711 119 q 651 117 681 119 q 601 104 622 114 q 572 75 581 94 q 575 24 564 56 q 499 54 531 36 q 447 92 467 72 l 417 119 l 411 124 l 333 -79 l 90 -79 l 39 -28 l 28 -28 l 369 853 m 396 843 l 69 0 l 261 0 q 330 180 299 99 q 392 341 361 261 q 458 509 424 421 q 536 710 492 597 l 667 376 q 603 377 636 376 q 537 374 569 378 q 474 362 504 371 q 421 332 444 353 q 383 280 396 311 q 376 217 371 249 q 408 156 382 185 q 483 114 433 128 q 494 169 472 151 q 556 193 517 186 q 644 199 596 200 q 735 199 693 199 l 810 0 l 1001 0 l 629 967 q 478 950 533 983 q 396 843 424 917 m 589 1097 q 648 1071 613 1072 q 717 1089 683 1069 l 625 1244 q 581 1306 601 1283 q 535 1336 560 1329 q 481 1333 511 1343 q 413 1296 451 1324 l 589 1097 m 371 1300 q 454 1351 419 1335 q 514 1367 489 1367 q 577 1347 550 1367 q 631 1289 604 1328 l 646 1274 l 651 1269 q 701 1201 678 1243 l 806 1025 q 708 992 749 992 q 629 1022 663 992 l 594 1056 q 568 1078 576 1065 l 371 1300 z "},"":{"ha":726,"x_min":63,"x_max":731,"o":"m 650 972 l 250 972 q 135 928 181 972 q 90 804 90 885 l 90 0 l 650 0 l 650 182 l 275 182 l 275 397 l 497 397 q 567 413 539 397 q 614 454 596 429 q 640 511 632 479 q 650 575 649 543 l 275 575 l 275 790 l 650 790 l 650 972 m 425 1244 q 381 1306 401 1283 q 335 1336 360 1329 q 281 1333 311 1343 q 213 1296 251 1324 l 389 1097 q 448 1071 413 1072 q 517 1089 483 1069 l 425 1244 m 394 1056 q 368 1078 376 1065 l 171 1300 q 254 1351 219 1335 q 314 1367 289 1367 q 377 1347 350 1367 q 431 1289 404 1328 l 446 1274 l 451 1269 q 501 1201 478 1243 l 593 1046 l 585 1013 q 560 1000 572 1004 l 678 1000 l 678 992 l 729 940 l 729 711 l 354 711 l 354 603 l 679 603 q 678 599 679 600 q 678 594 678 597 l 731 543 q 718 463 728 503 q 688 390 708 422 q 634 338 667 358 q 553 318 601 318 l 354 318 l 354 210 l 678 210 l 678 201 l 729 150 l 729 -79 l 122 -79 l 71 -28 l 63 -28 l 63 804 q 115 949 63 899 q 250 1000 168 1000 l 461 1000 q 429 1022 442 1007 l 394 1056 z "},"":{"ha":726,"x_min":56,"x_max":731,"o":"m 671 992 l 722 940 l 722 711 l 347 711 l 347 603 l 672 603 q 672 599 672 600 q 671 594 671 597 l 724 543 q 711 463 721 503 q 681 390 701 422 q 627 338 660 358 q 546 318 594 318 l 347 318 l 347 210 l 671 210 l 671 201 l 722 150 l 722 -79 l 115 -79 l 64 -28 l 56 -28 l 56 804 q 108 949 56 899 q 243 1000 161 1000 l 407 1000 q 357 1025 382 1008 l 313 1068 l 294 1079 l 401 1260 q 465 1340 433 1313 q 538 1367 496 1367 q 597 1351 563 1367 q 681 1300 632 1335 l 678 1297 l 731 1244 l 535 1025 q 499 1000 518 1006 l 671 1000 l 671 992 m 643 972 l 243 972 q 128 928 174 972 q 83 804 83 885 l 83 0 l 643 0 l 643 182 l 268 182 l 268 397 l 490 397 q 560 413 532 397 q 607 454 589 429 q 633 511 625 479 q 643 575 642 543 l 268 575 l 268 790 l 643 790 l 643 972 m 639 1296 q 570 1333 600 1324 q 516 1336 540 1343 q 470 1306 492 1329 q 426 1244 449 1283 l 335 1089 q 403 1071 368 1069 q 463 1097 439 1072 l 639 1296 z "},"":{"ha":731,"x_min":43,"x_max":763,"o":"m 228 1243 q 294 1291 258 1271 q 382 1310 331 1311 l 463 1310 l 717 1069 l 711 1069 l 763 1018 l 508 1018 l 456 1069 l 451 1069 l 432 1088 l 364 1018 l 108 1018 l 57 1069 l 43 1069 l 228 1243 m 671 992 l 722 940 l 722 711 l 347 711 l 347 603 l 672 603 q 672 599 672 600 q 671 594 671 597 l 724 543 q 711 463 721 503 q 681 390 701 422 q 627 338 660 358 q 546 318 594 318 l 347 318 l 347 210 l 671 210 l 671 201 l 722 150 l 722 -79 l 115 -79 l 64 -28 l 56 -28 l 56 804 q 108 949 56 899 q 243 1000 161 1000 l 671 1000 l 671 992 m 643 972 l 243 972 q 128 928 174 972 q 83 804 83 885 l 83 0 l 643 0 l 643 182 l 268 182 l 268 397 l 490 397 q 560 413 532 397 q 607 454 589 429 q 633 511 625 479 q 643 575 642 543 l 268 575 l 268 790 l 643 790 l 643 972 m 113 1097 l 299 1097 l 382 1182 l 463 1097 l 647 1097 l 451 1282 l 382 1282 q 306 1267 338 1283 q 247 1224 275 1250 l 113 1097 z "},"":{"ha":726,"x_min":56,"x_max":724,"o":"m 225 1318 q 311 1282 275 1318 q 332 1256 325 1268 l 364 1224 q 399 1140 399 1189 q 364 1057 399 1092 q 281 1022 329 1022 q 197 1057 232 1022 l 165 1089 q 139 1110 153 1096 q 103 1196 103 1146 q 139 1282 103 1246 q 225 1318 175 1318 m 515 1318 q 601 1282 565 1318 q 624 1253 615 1271 l 654 1224 q 689 1140 689 1190 q 654 1057 689 1090 q 571 1022 619 1022 q 526 1031 546 1022 q 488 1057 506 1040 l 453 1090 q 429 1110 440 1099 q 393 1196 393 1146 q 429 1282 393 1246 q 469 1308 449 1299 q 515 1318 489 1318 m 671 992 l 722 940 l 722 711 l 347 711 l 347 603 l 672 603 q 672 599 672 600 q 671 594 671 597 l 724 543 q 711 463 721 503 q 681 390 701 422 q 627 338 660 358 q 546 318 594 318 l 347 318 l 347 210 l 671 210 l 671 201 l 722 150 l 722 -79 l 115 -79 l 64 -28 l 56 -28 l 56 804 q 108 949 56 899 q 243 1000 161 1000 l 671 1000 l 671 992 m 643 972 l 243 972 q 128 928 174 972 q 83 804 83 885 l 83 0 l 643 0 l 643 182 l 268 182 l 268 397 l 490 397 q 560 413 532 397 q 607 454 589 429 q 633 511 625 479 q 643 575 642 543 l 268 575 l 268 790 l 643 790 l 643 972 m 515 1290 q 449 1263 479 1290 q 421 1196 421 1235 q 449 1129 421 1157 q 515 1101 479 1101 q 582 1129 554 1101 q 610 1196 610 1156 q 582 1263 610 1236 q 515 1290 554 1290 m 225 1290 q 158 1263 186 1290 q 131 1196 131 1235 q 158 1129 131 1157 q 225 1101 186 1101 q 292 1129 264 1101 q 319 1196 319 1157 q 292 1263 319 1235 q 225 1290 264 1290 z "},"":{"ha":471,"x_min":42,"x_max":476,"o":"m 124 -28 l 115 -28 l 115 826 q 180 955 115 908 q 354 1000 244 1001 l 354 992 l 406 940 l 406 -79 l 175 -79 l 124 -28 m 326 0 l 326 972 q 193 935 243 974 q 143 826 143 896 l 143 0 l 326 0 m 260 1097 q 319 1071 283 1072 q 388 1089 354 1069 l 296 1244 q 251 1306 272 1283 q 206 1336 231 1329 q 152 1333 182 1343 q 83 1296 122 1324 l 260 1097 m 42 1300 q 125 1351 90 1335 q 185 1367 160 1367 q 248 1347 221 1367 q 301 1289 275 1328 l 317 1274 l 322 1269 q 372 1201 349 1243 l 476 1025 q 379 992 419 992 q 300 1022 333 992 l 265 1056 q 239 1078 247 1065 l 42 1300 z "},"":{"ha":471,"x_min":43,"x_max":479,"o":"m 124 -28 l 115 -28 l 115 826 q 180 955 115 908 q 354 1000 244 1001 l 354 992 l 406 940 l 406 -79 l 175 -79 l 124 -28 m 326 0 l 326 972 q 193 935 243 974 q 143 826 143 896 l 143 0 l 326 0 m 426 1297 l 479 1244 l 283 1025 q 203 992 251 992 q 106 1025 161 992 l 61 1068 l 43 1079 l 150 1260 q 213 1340 182 1313 q 286 1367 244 1367 q 346 1351 311 1367 q 429 1300 381 1335 l 426 1297 m 388 1296 q 319 1333 349 1324 q 265 1336 289 1343 q 219 1306 240 1329 q 175 1244 197 1283 l 83 1089 q 152 1071 117 1069 q 211 1097 188 1072 l 388 1296 z "},"":{"ha":350,"x_min":-161,"x_max":558,"o":"m 64 -28 l 56 -28 l 56 826 q 120 955 56 908 q 294 1000 185 1001 l 294 992 l 346 940 l 346 -79 l 115 -79 l 64 -28 m 267 0 l 267 972 q 133 935 183 974 q 83 826 83 896 l 83 0 l 267 0 m 24 1243 q 90 1291 54 1271 q 178 1310 126 1311 l 258 1310 l 513 1069 l 507 1069 l 558 1018 l 304 1018 l 251 1069 l 247 1069 l 228 1088 l 160 1018 l -96 1018 l -147 1069 l -161 1069 l 24 1243 m -92 1097 l 94 1097 l 178 1182 l 258 1097 l 443 1097 l 247 1282 l 178 1282 q 102 1267 133 1283 q 43 1224 71 1250 l -92 1097 z "},"":{"ha":350,"x_min":-92,"x_max":494,"o":"m 64 -28 l 56 -28 l 56 826 q 120 955 56 908 q 294 1000 185 1001 l 294 992 l 346 940 l 346 -79 l 115 -79 l 64 -28 m 267 0 l 267 972 q 133 935 183 974 q 83 826 83 896 l 83 0 l 267 0 m 31 1318 q 117 1282 81 1318 q 138 1256 131 1268 l 169 1224 q 204 1140 204 1189 q 169 1057 204 1092 q 86 1022 135 1022 q 3 1057 38 1022 l -29 1089 q -56 1110 -42 1096 q -92 1196 -92 1146 q -56 1282 -92 1246 q 31 1318 -19 1318 m 321 1318 q 407 1282 371 1318 q 429 1253 421 1271 l 460 1224 q 494 1140 494 1190 q 460 1057 494 1090 q 376 1022 425 1022 q 331 1031 351 1022 q 293 1057 311 1040 l 258 1090 q 235 1110 246 1099 q 199 1196 199 1146 q 235 1282 199 1246 q 274 1308 254 1299 q 321 1318 294 1318 m 321 1290 q 254 1263 285 1290 q 226 1196 226 1235 q 254 1129 226 1157 q 321 1101 285 1101 q 388 1129 360 1101 q 415 1196 415 1156 q 388 1263 415 1236 q 321 1290 360 1290 m 31 1290 q -36 1263 -8 1290 q -64 1196 -64 1235 q -36 1129 -64 1157 q 31 1101 -8 1101 q 97 1129 69 1101 q 125 1196 125 1157 q 97 1263 125 1235 q 31 1290 69 1290 z "},"":{"ha":967,"x_min":0,"x_max":989,"o":"m 397 208 l 399 208 q 478 213 440 208 q 549 228 517 217 q 609 262 582 240 q 656 319 636 283 q 684 400 674 354 q 694 492 694 446 q 682 590 694 542 q 643 675 669 639 q 588 699 617 690 q 529 708 558 708 l 397 708 l 397 568 l 422 568 q 521 514 486 568 l 557 478 q 603 354 596 439 l 397 354 l 397 208 m 478 1000 q 597 983 544 1000 q 692 943 649 965 q 824 828 769 899 l 839 813 q 951 638 913 739 q 989 429 989 536 q 969 275 989 351 q 912 133 950 199 q 817 19 874 68 q 683 -54 760 -31 q 607 -68 653 -62 q 508 -76 561 -74 q 398 -78 454 -78 q 290 -79 342 -79 l 165 -79 l 114 -28 l 106 -28 l 106 378 q 103 382 103 381 l 68 415 q 16 477 32 435 q 0 568 0 519 l 106 568 l 106 807 q 115 884 106 849 q 147 945 125 919 q 206 985 169 971 q 296 1000 242 1000 l 478 1000 m 318 540 l 318 788 l 474 788 q 567 768 522 788 q 643 717 611 749 q 699 627 681 679 q 722 518 718 575 q 714 406 725 461 q 681 307 703 350 q 615 228 653 254 q 533 191 578 201 q 433 181 488 181 q 318 181 379 181 l 318 433 l 522 433 q 493 513 518 485 q 422 540 468 540 l 318 540 m 478 972 l 296 972 q 169 926 204 972 q 133 807 133 879 l 133 540 l 28 540 q 49 467 28 500 q 117 433 71 433 l 133 433 l 133 0 q 253 -1 185 0 q 392 1 322 -1 q 523 8 461 3 q 621 24 585 13 q 774 117 711 51 q 870 269 836 183 q 909 451 904 354 q 890 638 914 547 q 814 802 867 728 q 679 918 761 876 q 590 956 639 939 q 478 972 540 972 z "},"":{"ha":944,"x_min":56,"x_max":940,"o":"m 56 825 q 66 892 56 860 q 98 947 76 924 q 152 985 119 971 q 228 1000 185 1000 l 274 1000 l 286 979 l 326 940 l 650 446 l 650 1000 l 889 1000 l 889 992 l 940 940 l 940 -79 l 728 -79 l 676 -28 l 669 -28 l 346 464 l 346 -79 l 115 -79 l 64 -28 l 56 -28 l 56 825 m 83 825 l 83 0 l 267 0 l 267 638 l 685 0 l 861 0 l 861 972 l 678 972 l 678 332 l 258 972 l 228 972 q 165 960 192 972 q 119 928 138 949 q 92 881 101 907 q 83 825 83 854 m 231 1090 l 229 1090 q 191 1132 206 1107 q 176 1185 176 1157 q 190 1235 176 1210 q 232 1279 203 1260 q 288 1306 260 1299 q 346 1314 317 1314 q 433 1299 390 1314 q 515 1265 476 1285 q 560 1249 535 1256 q 611 1242 586 1242 q 649 1254 631 1242 q 679 1303 667 1267 q 747 1242 724 1281 l 774 1217 l 769 1219 l 779 1211 q 804 1178 794 1196 q 814 1140 814 1160 q 802 1094 814 1118 q 767 1050 790 1069 q 717 1023 743 1031 q 663 1015 690 1015 q 576 1029 622 1015 q 492 1057 529 1043 q 442 1074 467 1065 q 401 1083 417 1083 q 353 1077 376 1085 q 319 1047 331 1069 l 285 1039 l 269 1051 l 231 1090 m 243 1114 q 287 1154 258 1144 q 347 1163 315 1164 q 419 1144 376 1163 q 511 1111 463 1126 q 608 1094 560 1096 q 696 1124 657 1092 q 728 1165 721 1143 q 733 1208 736 1188 q 720 1243 731 1228 q 696 1265 710 1258 q 662 1225 685 1236 q 610 1214 639 1214 q 553 1222 582 1214 q 504 1240 525 1231 q 442 1267 475 1254 q 377 1283 410 1279 q 312 1283 344 1288 q 249 1257 279 1278 q 214 1220 224 1240 q 205 1181 204 1200 q 216 1144 206 1161 q 243 1114 226 1126 z "},"":{"ha":1113,"x_min":28,"x_max":1136,"o":"m 321 406 q 365 256 325 315 q 374 249 371 250 q 460 199 414 217 q 560 182 506 182 q 761 268 675 182 q 844 482 844 356 q 776 678 844 596 q 611 731 704 731 q 494 708 557 731 l 500 704 q 533 655 521 683 q 544 590 544 626 q 540 550 544 576 q 526 489 535 524 l 479 535 l 474 539 l 474 536 l 467 543 q 425 560 443 560 q 385 550 404 560 q 351 522 365 540 q 328 474 336 503 q 321 406 319 444 m 558 1018 q 929 861 776 1018 l 974 811 l 982 803 q 1136 425 1136 649 q 985 51 1136 203 q 615 -101 832 -101 q 249 44 396 -101 l 225 67 q 179 108 200 85 q 67 283 106 188 q 28 485 28 379 q 30 532 28 506 q 38 586 32 558 q 50 640 43 614 q 68 689 57 667 q 108 743 83 719 q 161 783 132 767 l 138 811 q 212 890 174 856 q 290 947 250 924 q 558 1018 413 1018 m 558 990 q 306 922 424 990 q 165 801 224 874 q 237 832 199 822 q 313 840 275 842 q 385 826 351 839 q 444 792 419 814 q 556 810 494 810 q 781 715 686 810 q 872 482 872 619 q 781 249 872 344 q 560 154 689 154 q 356 228 444 154 q 242 460 247 315 q 263 569 239 528 q 321 628 286 611 q 394 636 356 644 q 458 596 432 628 q 458 692 472 651 q 410 757 443 733 q 331 788 376 781 q 241 786 286 796 q 156 749 196 776 q 93 676 115 721 q 75 631 82 656 q 64 581 68 607 q 58 530 60 554 q 56 485 56 506 q 199 128 56 276 q 560 -22 342 -22 q 913 124 767 -22 q 1057 481 1057 268 q 910 842 1057 694 q 558 990 764 990 m 599 1097 q 658 1071 622 1072 q 726 1089 693 1069 l 635 1244 q 590 1306 611 1283 q 545 1336 569 1329 q 491 1333 521 1343 q 422 1296 461 1324 l 599 1097 m 381 1300 q 464 1351 429 1335 q 524 1367 499 1367 q 587 1347 560 1367 q 640 1289 614 1328 l 656 1274 l 661 1269 q 711 1201 688 1243 l 815 1025 q 718 992 758 992 q 639 1022 672 992 l 604 1056 q 578 1078 586 1065 l 381 1300 z "},"":{"ha":1113,"x_min":28,"x_max":1136,"o":"m 321 406 q 365 256 325 315 q 374 249 371 250 q 460 199 414 217 q 560 182 506 182 q 761 268 675 182 q 844 482 844 356 q 776 678 844 596 q 611 731 704 731 q 494 708 557 731 l 500 704 q 533 655 521 683 q 544 590 544 626 q 540 550 544 576 q 526 489 535 524 l 479 535 l 474 539 l 474 536 l 467 543 q 425 560 443 560 q 385 550 404 560 q 351 522 365 540 q 328 474 336 503 q 321 406 319 444 m 558 1018 q 929 861 776 1018 l 974 811 l 982 803 q 1136 425 1136 649 q 985 51 1136 203 q 615 -101 832 -101 q 249 44 396 -101 l 225 67 q 179 108 200 85 q 67 283 106 188 q 28 485 28 379 q 30 532 28 506 q 38 586 32 558 q 50 640 43 614 q 68 689 57 667 q 108 743 83 719 q 161 783 132 767 l 138 811 q 212 890 174 856 q 290 947 250 924 q 558 1018 413 1018 m 558 990 q 306 922 424 990 q 165 801 224 874 q 237 832 199 822 q 313 840 275 842 q 385 826 351 839 q 444 792 419 814 q 556 810 494 810 q 781 715 686 810 q 872 482 872 619 q 781 249 872 344 q 560 154 689 154 q 356 228 444 154 q 242 460 247 315 q 263 569 239 528 q 321 628 286 611 q 394 636 356 644 q 458 596 432 628 q 458 692 472 651 q 410 757 443 733 q 331 788 376 781 q 241 786 286 796 q 156 749 196 776 q 93 676 115 721 q 75 631 82 656 q 64 581 68 607 q 58 530 60 554 q 56 485 56 506 q 199 128 56 276 q 560 -22 342 -22 q 913 124 767 -22 q 1057 481 1057 268 q 910 842 1057 694 q 558 990 764 990 m 749 1297 l 801 1244 l 606 1025 q 525 992 574 992 q 428 1025 483 992 l 383 1068 l 365 1079 l 472 1260 q 535 1340 504 1313 q 608 1367 567 1367 q 668 1351 633 1367 q 751 1300 703 1335 l 749 1297 m 710 1296 q 641 1333 671 1324 q 587 1336 611 1343 q 541 1306 563 1329 q 497 1244 519 1283 l 406 1089 q 474 1071 439 1069 q 533 1097 510 1072 l 710 1296 z "},"":{"ha":1113,"x_min":28,"x_max":1136,"o":"m 321 406 q 365 256 325 315 q 374 249 371 250 q 460 199 414 217 q 560 182 506 182 q 761 268 675 182 q 844 482 844 356 q 776 678 844 596 q 611 731 704 731 q 494 708 557 731 l 500 704 q 533 655 521 683 q 544 590 544 626 q 540 550 544 576 q 526 489 535 524 l 479 535 l 474 539 l 474 536 l 467 543 q 425 560 443 560 q 385 550 404 560 q 351 522 365 540 q 328 474 336 503 q 321 406 319 444 m 558 1018 q 929 861 776 1018 l 974 811 l 982 803 q 1136 425 1136 649 q 985 51 1136 203 q 615 -101 832 -101 q 249 44 396 -101 l 225 67 q 179 108 200 85 q 67 283 106 188 q 28 485 28 379 q 30 532 28 506 q 38 586 32 558 q 50 640 43 614 q 68 689 57 667 q 108 743 83 719 q 161 783 132 767 l 138 811 q 212 890 174 856 q 290 947 250 924 q 558 1018 413 1018 m 558 990 q 306 922 424 990 q 165 801 224 874 q 237 832 199 822 q 313 840 275 842 q 385 826 351 839 q 444 792 419 814 q 556 810 494 810 q 781 715 686 810 q 872 482 872 619 q 781 249 872 344 q 560 154 689 154 q 356 228 444 154 q 242 460 247 315 q 263 569 239 528 q 321 628 286 611 q 394 636 356 644 q 458 596 432 628 q 458 692 472 651 q 410 757 443 733 q 331 788 376 781 q 241 786 286 796 q 156 749 196 776 q 93 676 115 721 q 75 631 82 656 q 64 581 68 607 q 58 530 60 554 q 56 485 56 506 q 199 128 56 276 q 560 -22 342 -22 q 913 124 767 -22 q 1057 481 1057 268 q 910 842 1057 694 q 558 990 764 990 m 406 1243 q 472 1291 436 1271 q 560 1310 508 1311 l 640 1310 l 894 1069 l 889 1069 l 940 1018 l 686 1018 l 633 1069 l 629 1069 l 610 1088 l 542 1018 l 286 1018 l 235 1069 l 221 1069 l 406 1243 m 290 1097 l 476 1097 l 560 1182 l 640 1097 l 825 1097 l 629 1282 l 560 1282 q 484 1267 515 1283 q 425 1224 453 1250 l 290 1097 z "},"":{"ha":1113,"x_min":28,"x_max":1136,"o":"m 321 406 q 365 256 325 315 q 374 249 371 250 q 460 199 414 217 q 560 182 506 182 q 761 268 675 182 q 844 482 844 356 q 776 678 844 596 q 611 731 704 731 q 494 708 557 731 l 500 704 q 533 655 521 683 q 544 590 544 626 q 540 550 544 576 q 526 489 535 524 l 479 535 l 474 539 l 474 536 l 467 543 q 425 560 443 560 q 385 550 404 560 q 351 522 365 540 q 328 474 336 503 q 321 406 319 444 m 558 1018 q 929 861 776 1018 l 974 811 l 982 803 q 1136 425 1136 649 q 985 51 1136 203 q 615 -101 832 -101 q 249 44 396 -101 l 225 67 q 179 108 200 85 q 67 283 106 188 q 28 485 28 379 q 30 532 28 506 q 38 586 32 558 q 50 640 43 614 q 68 689 57 667 q 108 743 83 719 q 161 783 132 767 l 138 811 q 212 890 174 856 q 290 947 250 924 q 558 1018 413 1018 m 558 990 q 306 922 424 990 q 165 801 224 874 q 237 832 199 822 q 313 840 275 842 q 385 826 351 839 q 444 792 419 814 q 556 810 494 810 q 781 715 686 810 q 872 482 872 619 q 781 249 872 344 q 560 154 689 154 q 356 228 444 154 q 242 460 247 315 q 263 569 239 528 q 321 628 286 611 q 394 636 356 644 q 458 596 432 628 q 458 692 472 651 q 410 757 443 733 q 331 788 376 781 q 241 786 286 796 q 156 749 196 776 q 93 676 115 721 q 75 631 82 656 q 64 581 68 607 q 58 530 60 554 q 56 485 56 506 q 199 128 56 276 q 560 -22 342 -22 q 913 124 767 -22 q 1057 481 1057 268 q 910 842 1057 694 q 558 990 764 990 m 317 1090 l 315 1090 q 277 1132 292 1107 q 263 1185 263 1157 q 276 1235 263 1210 q 318 1279 289 1260 q 374 1306 346 1299 q 432 1314 403 1314 q 519 1299 476 1314 q 601 1265 563 1285 q 647 1249 621 1256 q 697 1242 672 1242 q 735 1254 717 1242 q 765 1303 753 1267 q 833 1242 810 1281 l 860 1217 l 856 1219 l 865 1211 q 890 1178 881 1196 q 900 1140 900 1160 q 888 1094 900 1118 q 853 1050 876 1069 q 803 1023 829 1031 q 749 1015 776 1015 q 662 1029 708 1015 q 578 1057 615 1043 q 528 1074 553 1065 q 488 1083 503 1083 q 440 1077 463 1085 q 406 1047 417 1069 l 371 1039 l 356 1051 l 317 1090 m 329 1114 q 373 1154 344 1144 q 433 1163 401 1164 q 506 1144 463 1163 q 597 1111 549 1126 q 694 1094 646 1096 q 782 1124 743 1092 q 815 1165 807 1143 q 819 1208 822 1188 q 806 1243 817 1228 q 782 1265 796 1258 q 748 1225 771 1236 q 697 1214 725 1214 q 640 1222 668 1214 q 590 1240 611 1231 q 528 1267 561 1254 q 463 1283 496 1279 q 398 1283 431 1288 q 335 1257 365 1278 q 300 1220 310 1240 q 291 1181 290 1200 q 302 1144 292 1161 q 329 1114 313 1126 z "},"":{"ha":1113,"x_min":28,"x_max":1136,"o":"m 321 406 q 365 256 325 315 q 374 249 371 250 q 460 199 414 217 q 560 182 506 182 q 761 268 675 182 q 844 482 844 356 q 776 678 844 596 q 611 731 704 731 q 494 708 557 731 l 500 704 q 533 655 521 683 q 544 590 544 626 q 540 550 544 576 q 526 489 535 524 l 479 535 l 474 539 l 474 536 l 467 543 q 425 560 443 560 q 385 550 404 560 q 351 522 365 540 q 328 474 336 503 q 321 406 319 444 m 558 1018 q 929 861 776 1018 l 974 811 l 982 803 q 1136 425 1136 649 q 985 51 1136 203 q 615 -101 832 -101 q 249 44 396 -101 l 225 67 q 179 108 200 85 q 67 283 106 188 q 28 485 28 379 q 30 532 28 506 q 38 586 32 558 q 50 640 43 614 q 68 689 57 667 q 108 743 83 719 q 161 783 132 767 l 138 811 q 212 890 174 856 q 290 947 250 924 q 558 1018 413 1018 m 558 990 q 306 922 424 990 q 165 801 224 874 q 237 832 199 822 q 313 840 275 842 q 385 826 351 839 q 444 792 419 814 q 556 810 494 810 q 781 715 686 810 q 872 482 872 619 q 781 249 872 344 q 560 154 689 154 q 356 228 444 154 q 242 460 247 315 q 263 569 239 528 q 321 628 286 611 q 394 636 356 644 q 458 596 432 628 q 458 692 472 651 q 410 757 443 733 q 331 788 376 781 q 241 786 286 796 q 156 749 196 776 q 93 676 115 721 q 75 631 82 656 q 64 581 68 607 q 58 530 60 554 q 56 485 56 506 q 199 128 56 276 q 560 -22 342 -22 q 913 124 767 -22 q 1057 481 1057 268 q 910 842 1057 694 q 558 990 764 990 m 413 1318 q 499 1282 463 1318 q 519 1256 513 1268 l 551 1224 q 586 1140 586 1189 q 551 1057 586 1092 q 468 1022 517 1022 q 385 1057 419 1022 l 353 1089 q 326 1110 340 1096 q 290 1196 290 1146 q 326 1282 290 1246 q 413 1318 363 1318 m 703 1318 q 789 1282 753 1318 q 811 1253 803 1271 l 842 1224 q 876 1140 876 1190 q 842 1057 876 1090 q 758 1022 807 1022 q 713 1031 733 1022 q 675 1057 693 1040 l 640 1090 q 617 1110 628 1099 q 581 1196 581 1146 q 617 1282 581 1246 q 656 1308 636 1299 q 703 1318 676 1318 m 703 1290 q 636 1263 667 1290 q 608 1196 608 1235 q 636 1129 608 1157 q 703 1101 667 1101 q 769 1129 742 1101 q 797 1196 797 1156 q 769 1263 797 1236 q 703 1290 742 1290 m 413 1290 q 346 1263 374 1290 q 318 1196 318 1235 q 346 1129 318 1157 q 413 1101 374 1101 q 479 1129 451 1101 q 507 1196 507 1157 q 479 1263 507 1235 q 413 1290 451 1290 z "},"":{"ha":782,"x_min":44,"x_max":788,"o":"m 475 717 q 571 761 519 761 q 738 658 643 761 l 735 656 l 769 622 l 788 603 l 604 419 l 635 389 q 648 373 642 381 q 660 357 654 365 l 688 331 q 732 236 732 286 q 706 160 732 200 q 631 78 679 121 l 578 131 l 575 128 l 443 258 l 360 175 q 267 132 317 132 q 124 211 203 132 l 108 226 q 44 286 78 249 l 229 472 l 146 556 q 101 651 101 600 q 128 731 101 689 q 206 818 156 774 l 390 633 l 475 717 m 494 697 l 390 594 l 206 779 q 131 674 144 725 q 165 575 117 624 l 268 472 l 83 286 q 189 213 139 226 q 288 247 239 199 l 390 350 l 576 165 q 651 270 638 219 q 615 369 664 321 l 513 472 l 699 658 q 593 732 643 718 q 494 697 543 746 z "},"":{"ha":1206,"x_min":43,"x_max":1201,"o":"m 679 729 q 563 707 624 729 l 568 703 q 599 657 588 683 q 613 599 610 631 l 719 726 q 699 728 708 728 q 679 729 689 729 m 389 406 q 392 374 390 389 q 397 344 393 358 l 540 514 l 553 528 l 542 538 l 542 536 l 538 540 q 493 558 514 558 q 453 549 472 558 q 419 522 433 540 q 396 474 404 503 q 389 406 388 444 m 910 482 q 905 530 910 506 q 893 578 900 554 l 567 190 q 626 185 593 185 q 828 269 743 185 q 910 482 910 356 m 626 1015 q 770 997 704 1015 q 899 939 836 979 l 908 951 q 967 1005 938 986 q 1033 1024 997 1024 q 1142 986 1068 1024 l 1138 981 l 1190 929 l 1067 782 q 1170 619 1139 706 q 1201 425 1201 532 q 1050 53 1201 207 q 683 -99 899 -99 q 394 -17 518 -99 l 314 -112 q 258 -159 286 -144 q 203 -174 231 -174 q 155 -162 179 -174 q 104 -131 131 -150 l 63 -89 l 43 -75 l 224 138 q 129 300 161 213 q 97 485 97 388 q 99 531 97 506 q 107 584 101 557 q 119 638 113 611 q 138 686 126 664 q 177 742 153 718 q 231 782 201 765 l 207 810 q 363 946 275 894 q 626 1015 485 1015 m 450 208 l 863 697 q 938 482 938 606 q 847 250 938 344 q 626 157 756 157 q 450 208 528 157 m 626 988 q 375 921 492 988 q 235 800 294 875 q 306 831 268 821 q 382 839 344 840 q 453 825 419 838 q 513 790 488 813 q 624 808 561 808 q 786 764 713 808 l 376 276 q 310 460 317 351 q 331 569 307 528 q 389 627 354 611 q 462 635 424 643 q 526 596 500 626 q 525 692 540 651 q 477 756 510 732 q 399 787 444 779 q 309 785 354 794 q 224 747 264 775 q 163 675 185 719 q 134 580 143 635 q 125 485 125 525 q 260 139 125 283 l 83 -71 q 156 -94 117 -94 q 240 -42 196 -93 l 335 71 q 628 -19 458 -19 q 978 125 833 -19 q 1122 481 1122 272 q 979 836 1122 692 l 1099 978 q 1007 993 1046 1006 q 929 933 968 981 l 903 903 q 626 988 781 988 z "},"":{"ha":858,"x_min":56,"x_max":854,"o":"m 296 1000 l 296 992 l 347 940 l 347 311 q 351 251 347 279 q 364 200 354 222 q 424 188 386 188 q 531 235 499 188 q 564 371 564 283 l 564 804 q 574 885 564 849 q 612 949 585 922 q 685 988 639 975 q 803 1000 732 1001 l 803 992 l 854 940 l 854 342 q 838 165 854 246 q 779 27 821 85 q 665 -63 738 -31 q 481 -96 593 -96 q 322 -73 386 -96 q 215 -8 257 -50 l 192 14 q 83 169 111 69 q 56 397 56 268 l 56 1000 l 296 1000 m 83 972 l 83 397 q 97 230 83 306 q 149 99 111 154 q 254 14 188 44 q 425 -17 321 -17 q 597 14 529 -17 q 705 99 665 44 q 760 231 744 154 q 775 397 775 307 l 775 972 q 685 962 721 974 q 629 928 650 950 q 600 874 608 906 q 592 804 592 842 l 592 371 q 553 215 592 271 q 424 160 514 160 q 349 175 379 160 q 301 217 319 190 q 276 283 283 244 q 268 367 268 321 l 268 972 l 83 972 m 449 1097 q 508 1071 472 1072 q 576 1089 543 1069 l 485 1244 q 440 1306 461 1283 q 395 1336 419 1329 q 341 1333 371 1343 q 272 1296 311 1324 l 449 1097 m 231 1300 q 314 1351 279 1335 q 374 1367 349 1367 q 437 1347 410 1367 q 490 1289 464 1328 l 506 1274 l 511 1269 q 561 1201 538 1243 l 665 1025 q 568 992 608 992 q 489 1022 522 992 l 454 1056 q 428 1078 436 1065 l 231 1300 z "},"":{"ha":858,"x_min":56,"x_max":854,"o":"m 296 1000 l 296 992 l 347 940 l 347 311 q 351 251 347 279 q 364 200 354 222 q 424 188 386 188 q 531 235 499 188 q 564 371 564 283 l 564 804 q 574 885 564 849 q 612 949 585 922 q 685 988 639 975 q 803 1000 732 1001 l 803 992 l 854 940 l 854 342 q 838 165 854 246 q 779 27 821 85 q 665 -63 738 -31 q 481 -96 593 -96 q 322 -73 386 -96 q 215 -8 257 -50 l 192 14 q 83 169 111 69 q 56 397 56 268 l 56 1000 l 296 1000 m 83 972 l 83 397 q 97 230 83 306 q 149 99 111 154 q 254 14 188 44 q 425 -17 321 -17 q 597 14 529 -17 q 705 99 665 44 q 760 231 744 154 q 775 397 775 307 l 775 972 q 685 962 721 974 q 629 928 650 950 q 600 874 608 906 q 592 804 592 842 l 592 371 q 553 215 592 271 q 424 160 514 160 q 349 175 379 160 q 301 217 319 190 q 276 283 283 244 q 268 367 268 321 l 268 972 l 83 972 m 621 1297 l 674 1244 l 478 1025 q 397 992 446 992 q 300 1025 356 992 l 256 1068 l 238 1079 l 344 1260 q 408 1340 376 1313 q 481 1367 439 1367 q 540 1351 506 1367 q 624 1300 575 1335 l 621 1297 m 582 1296 q 513 1333 543 1324 q 459 1336 483 1343 q 413 1306 435 1329 q 369 1244 392 1283 l 278 1089 q 347 1071 311 1069 q 406 1097 382 1072 l 582 1296 z "},"":{"ha":858,"x_min":56,"x_max":854,"o":"m 296 1000 l 296 992 l 347 940 l 347 311 q 351 251 347 279 q 364 200 354 222 q 424 188 386 188 q 531 235 499 188 q 564 371 564 283 l 564 804 q 574 885 564 849 q 612 949 585 922 q 685 988 639 975 q 803 1000 732 1001 l 803 992 l 854 940 l 854 342 q 838 165 854 246 q 779 27 821 85 q 665 -63 738 -31 q 481 -96 593 -96 q 322 -73 386 -96 q 215 -8 257 -50 l 192 14 q 83 169 111 69 q 56 397 56 268 l 56 1000 l 296 1000 m 83 972 l 83 397 q 97 230 83 306 q 149 99 111 154 q 254 14 188 44 q 425 -17 321 -17 q 597 14 529 -17 q 705 99 665 44 q 760 231 744 154 q 775 397 775 307 l 775 972 q 685 962 721 974 q 629 928 650 950 q 600 874 608 906 q 592 804 592 842 l 592 371 q 553 215 592 271 q 424 160 514 160 q 349 175 379 160 q 301 217 319 190 q 276 283 283 244 q 268 367 268 321 l 268 972 l 83 972 m 278 1243 q 344 1291 308 1271 q 432 1310 381 1311 l 513 1310 l 767 1069 l 761 1069 l 813 1018 l 558 1018 l 506 1069 l 501 1069 l 482 1088 l 414 1018 l 158 1018 l 107 1069 l 93 1069 l 278 1243 m 163 1097 l 349 1097 l 432 1182 l 513 1097 l 697 1097 l 501 1282 l 432 1282 q 356 1267 388 1283 q 297 1224 325 1250 l 163 1097 z "},"":{"ha":858,"x_min":56,"x_max":854,"o":"m 296 1000 l 296 992 l 347 940 l 347 311 q 351 251 347 279 q 364 200 354 222 q 424 188 386 188 q 531 235 499 188 q 564 371 564 283 l 564 804 q 574 885 564 849 q 612 949 585 922 q 685 988 639 975 q 803 1000 732 1001 l 803 992 l 854 940 l 854 342 q 838 165 854 246 q 779 27 821 85 q 665 -63 738 -31 q 481 -96 593 -96 q 322 -73 386 -96 q 215 -8 257 -50 l 192 14 q 83 169 111 69 q 56 397 56 268 l 56 1000 l 296 1000 m 83 972 l 83 397 q 97 230 83 306 q 149 99 111 154 q 254 14 188 44 q 425 -17 321 -17 q 597 14 529 -17 q 705 99 665 44 q 760 231 744 154 q 775 397 775 307 l 775 972 q 685 962 721 974 q 629 928 650 950 q 600 874 608 906 q 592 804 592 842 l 592 371 q 553 215 592 271 q 424 160 514 160 q 349 175 379 160 q 301 217 319 190 q 276 283 283 244 q 268 367 268 321 l 268 972 l 83 972 m 285 1318 q 371 1282 335 1318 q 392 1256 385 1268 l 424 1224 q 458 1140 458 1189 q 424 1057 458 1092 q 340 1022 389 1022 q 257 1057 292 1022 l 225 1089 q 199 1110 213 1096 q 163 1196 163 1146 q 199 1282 163 1246 q 285 1318 235 1318 m 575 1318 q 661 1282 625 1318 q 683 1253 675 1271 l 714 1224 q 749 1140 749 1190 q 714 1057 749 1090 q 631 1022 679 1022 q 585 1031 606 1022 q 547 1057 565 1040 l 513 1090 q 489 1110 500 1099 q 453 1196 453 1146 q 489 1282 453 1246 q 528 1308 508 1299 q 575 1318 549 1318 m 575 1290 q 508 1263 539 1290 q 481 1196 481 1235 q 508 1129 481 1157 q 575 1101 539 1101 q 642 1129 614 1101 q 669 1196 669 1156 q 642 1263 669 1236 q 575 1290 614 1290 m 285 1290 q 218 1263 246 1290 q 190 1196 190 1235 q 218 1129 190 1157 q 285 1101 246 1101 q 351 1129 324 1101 q 379 1196 379 1157 q 351 1263 379 1235 q 285 1290 324 1290 z "},"":{"ha":806,"x_min":56,"x_max":801,"o":"m 339 692 q 340 613 339 651 q 342 542 340 575 q 345 483 343 508 q 350 446 347 458 l 351 440 q 365 436 358 438 q 379 436 372 435 q 440 466 414 436 q 465 540 467 496 q 501 533 490 536 q 517 526 511 529 l 517 1000 l 750 1000 l 750 992 l 801 940 l 801 288 q 776 131 801 201 q 703 12 751 61 q 582 -65 654 -37 q 414 -92 510 -92 q 276 -71 339 -92 q 174 -10 214 -50 l 150 14 q 81 87 106 43 q 56 192 56 131 q 88 344 56 229 q 94 332 90 338 q 101 321 97 326 l 144 278 l 157 256 q 253 196 201 215 q 189 244 218 213 l 165 268 q 128 300 146 279 q 58 504 58 369 l 58 1000 l 289 1000 l 289 992 l 340 940 l 340 850 q 340 776 340 817 q 339 692 339 735 m 358 -12 q 630 84 538 -12 q 722 343 722 181 l 722 972 l 544 972 l 544 457 q 526 488 538 475 q 494 506 514 500 q 485 467 494 485 q 460 437 476 450 q 424 416 444 424 q 379 408 403 408 q 313 430 343 407 q 272 496 283 453 q 265 548 268 513 q 261 628 263 583 q 260 724 260 674 q 260 822 260 775 q 260 909 260 869 q 261 972 261 949 l 86 972 l 86 504 q 147 319 86 381 q 240 260 189 276 q 343 246 290 243 q 399 254 368 247 q 458 274 429 261 q 511 307 488 288 q 544 351 535 326 q 492 203 544 251 q 340 153 439 156 q 269 158 306 151 q 200 180 233 165 q 140 217 167 194 q 96 271 113 240 q 88 147 75 200 q 139 58 101 93 q 233 5 176 22 q 358 -12 290 -12 m 589 1297 l 642 1244 l 446 1025 q 365 992 414 992 q 268 1025 324 992 l 224 1068 l 206 1079 l 313 1260 q 376 1340 344 1313 q 449 1367 407 1367 q 508 1351 474 1367 q 592 1300 543 1335 l 589 1297 m 550 1296 q 481 1333 511 1324 q 427 1336 451 1343 q 381 1306 403 1329 q 338 1244 360 1283 l 246 1089 q 315 1071 279 1069 q 374 1097 350 1072 l 550 1296 z "},"":{"ha":738,"x_min":56,"x_max":733,"o":"m 344 411 q 384 415 365 411 q 417 426 403 418 q 441 447 432 433 q 450 483 450 461 q 449 490 450 486 q 449 497 449 494 q 398 503 425 503 q 344 504 371 504 l 344 411 m 56 822 q 116 947 56 903 q 293 992 176 992 l 293 983 l 344 932 l 344 788 q 509 760 439 785 q 628 667 579 736 l 649 646 q 688 596 668 626 q 722 516 710 560 q 733 428 733 472 q 719 329 733 378 q 675 244 706 281 q 608 184 643 207 q 532 149 572 161 q 445 132 492 136 q 344 128 399 128 l 344 -75 l 115 -75 l 64 -24 l 56 -24 l 56 822 m 265 385 l 265 583 q 338 583 300 583 q 406 575 375 583 q 458 546 438 567 q 478 483 478 525 q 457 419 478 440 q 405 391 436 399 q 336 384 374 383 q 265 385 299 385 m 83 822 l 83 4 l 265 4 l 265 207 q 369 210 321 207 q 458 224 417 213 q 535 256 500 235 q 601 315 571 278 q 640 390 626 347 q 653 476 653 432 q 644 563 654 519 q 613 639 633 606 q 551 705 586 681 q 473 742 517 729 q 377 758 429 754 q 265 761 325 761 l 265 964 q 130 926 176 964 q 83 822 83 889 z "},"":{"ha":796,"x_min":56,"x_max":804,"o":"m 349 657 q 344 635 346 647 q 340 610 342 624 q 414 639 371 626 q 462 672 444 650 q 479 717 479 693 q 475 738 479 726 q 467 738 471 738 q 458 739 463 739 q 393 716 422 739 q 350 657 364 693 l 349 657 m 336 199 q 385 179 364 185 q 418 174 406 174 q 492 209 465 174 q 518 289 518 244 q 503 349 518 318 q 433 364 472 363 l 432 364 q 383 356 407 367 q 336 314 360 344 l 336 199 m 763 686 q 730 565 763 615 q 646 485 697 515 q 694 433 672 463 l 718 410 q 783 313 761 367 q 804 204 804 260 q 784 93 804 147 q 725 -3 764 39 q 629 -70 686 -44 q 497 -96 572 -96 q 434 -89 467 -96 q 367 -67 401 -82 l 336 -36 l 336 -79 l 115 -79 l 64 -28 l 56 -28 l 56 571 q 63 690 56 633 q 88 796 69 747 q 137 885 106 844 q 218 957 168 926 q 308 995 258 982 q 406 1008 358 1008 q 556 977 485 1008 q 668 883 628 946 l 692 861 q 743 785 724 829 q 763 686 763 740 m 379 443 q 485 410 446 440 q 538 340 524 381 q 543 257 551 300 q 507 184 535 214 q 435 147 479 154 q 335 168 392 139 l 335 6 q 442 -17 385 -17 q 588 19 526 -17 q 683 111 649 56 q 724 233 717 167 q 706 360 731 300 q 628 467 682 421 q 485 529 574 514 q 629 597 575 544 q 683 742 683 650 q 638 879 683 824 q 524 960 592 935 q 377 980 456 986 q 233 933 299 974 q 157 867 186 904 q 111 783 128 829 q 89 684 94 738 q 83 571 83 631 l 83 0 l 257 0 l 257 571 q 272 721 257 675 q 323 791 288 764 q 403 818 358 818 q 475 791 449 818 q 506 729 501 764 q 491 660 511 694 q 422 613 471 626 q 285 538 322 585 q 281 408 249 492 q 322 439 297 432 q 379 443 347 446 z "},"":{"ha":883,"x_min":28,"x_max":879,"o":"m 800 0 l 800 719 l 619 719 l 619 643 l 619 424 q 610 326 619 375 q 580 237 601 276 q 522 172 558 197 q 431 147 486 147 q 322 178 365 147 q 256 257 278 210 q 235 359 235 304 q 258 461 236 414 q 324 540 281 508 q 431 571 367 571 q 514 559 471 571 q 581 513 557 547 q 592 572 593 535 q 573 644 592 608 q 514 708 554 681 q 407 738 474 735 q 276 713 339 740 q 163 636 213 686 q 85 515 114 586 q 56 361 56 444 q 83 205 56 274 q 155 87 110 136 q 259 11 200 38 q 381 -17 318 -15 q 505 3 443 -19 q 619 79 567 26 l 619 0 l 800 0 m 189 19 q 73 156 118 69 q 28 361 28 243 q 60 526 28 451 q 144 656 92 601 q 266 739 197 710 q 408 765 335 768 q 521 735 478 763 q 589 672 564 708 l 592 669 l 592 747 l 828 747 l 828 739 l 879 688 l 879 -79 l 651 -79 l 621 -49 q 536 -86 579 -75 q 447 -97 493 -97 q 316 -71 379 -97 q 203 6 253 -44 l 189 19 m 431 175 q 509 197 478 175 q 558 256 540 219 q 584 335 576 292 q 592 424 592 379 l 592 458 l 586 464 l 583 460 l 576 469 q 529 487 553 482 q 486 492 506 492 q 411 475 443 492 q 358 432 379 458 q 326 371 336 406 q 315 301 315 336 q 320 250 315 275 q 336 203 325 225 q 431 175 375 175 m 451 844 q 510 818 475 819 q 579 836 546 817 l 488 992 q 443 1053 464 1031 q 398 1083 422 1076 q 344 1081 374 1090 q 275 1043 314 1071 l 451 844 m 233 1047 q 317 1098 282 1082 q 376 1114 351 1114 q 440 1094 413 1114 q 493 1036 467 1075 l 508 1021 l 514 1017 q 564 949 540 990 l 668 772 q 571 739 611 739 q 492 769 525 739 l 457 803 q 431 825 439 813 l 233 1047 z "},"":{"ha":883,"x_min":28,"x_max":879,"o":"m 800 0 l 800 719 l 619 719 l 619 643 l 619 424 q 610 326 619 375 q 580 237 601 276 q 522 172 558 197 q 431 147 486 147 q 322 178 365 147 q 256 257 278 210 q 235 359 235 304 q 258 461 236 414 q 324 540 281 508 q 431 571 367 571 q 514 559 471 571 q 581 513 557 547 q 592 572 593 535 q 573 644 592 608 q 514 708 554 681 q 407 738 474 735 q 276 713 339 740 q 163 636 213 686 q 85 515 114 586 q 56 361 56 444 q 83 205 56 274 q 155 87 110 136 q 259 11 200 38 q 381 -17 318 -15 q 505 3 443 -19 q 619 79 567 26 l 619 0 l 800 0 m 189 19 q 73 156 118 69 q 28 361 28 243 q 60 526 28 451 q 144 656 92 601 q 266 739 197 710 q 408 765 335 768 q 521 735 478 763 q 589 672 564 708 l 592 669 l 592 747 l 828 747 l 828 739 l 879 688 l 879 -79 l 651 -79 l 621 -49 q 536 -86 579 -75 q 447 -97 493 -97 q 316 -71 379 -97 q 203 6 253 -44 l 189 19 m 431 175 q 509 197 478 175 q 558 256 540 219 q 584 335 576 292 q 592 424 592 379 l 592 458 l 586 464 l 583 460 l 576 469 q 529 487 553 482 q 486 492 506 492 q 411 475 443 492 q 358 432 379 458 q 326 371 336 406 q 315 301 315 336 q 320 250 315 275 q 336 203 325 225 q 431 175 375 175 m 618 1044 l 671 992 l 475 772 q 394 739 443 739 q 297 772 353 739 l 253 815 l 235 826 l 342 1007 q 405 1087 374 1060 q 478 1114 436 1114 q 538 1098 503 1114 q 621 1047 572 1082 l 618 1044 m 579 1043 q 510 1081 540 1071 q 456 1083 481 1090 q 410 1053 432 1076 q 367 992 389 1031 l 275 836 q 344 818 308 817 q 403 844 379 819 l 579 1043 z "},"":{"ha":883,"x_min":28,"x_max":879,"o":"m 800 0 l 800 719 l 619 719 l 619 643 l 619 424 q 610 326 619 375 q 580 237 601 276 q 522 172 558 197 q 431 147 486 147 q 322 178 365 147 q 256 257 278 210 q 235 359 235 304 q 258 461 236 414 q 324 540 281 508 q 431 571 367 571 q 514 559 471 571 q 581 513 557 547 q 592 572 593 535 q 573 644 592 608 q 514 708 554 681 q 407 738 474 735 q 276 713 339 740 q 163 636 213 686 q 85 515 114 586 q 56 361 56 444 q 83 205 56 274 q 155 87 110 136 q 259 11 200 38 q 381 -17 318 -15 q 505 3 443 -19 q 619 79 567 26 l 619 0 l 800 0 m 189 19 q 73 156 118 69 q 28 361 28 243 q 60 526 28 451 q 144 656 92 601 q 266 739 197 710 q 408 765 335 768 q 521 735 478 763 q 589 672 564 708 l 592 669 l 592 747 l 828 747 l 828 739 l 879 688 l 879 -79 l 651 -79 l 621 -49 q 536 -86 579 -75 q 447 -97 493 -97 q 316 -71 379 -97 q 203 6 253 -44 l 189 19 m 431 175 q 509 197 478 175 q 558 256 540 219 q 584 335 576 292 q 592 424 592 379 l 592 458 l 586 464 l 583 460 l 576 469 q 529 487 553 482 q 486 492 506 492 q 411 475 443 492 q 358 432 379 458 q 326 371 336 406 q 315 301 315 336 q 320 250 315 275 q 336 203 325 225 q 431 175 375 175 m 275 990 q 342 1038 306 1018 q 429 1057 378 1058 l 510 1057 l 764 817 l 758 817 l 810 765 l 556 765 l 503 817 l 499 817 l 479 835 l 411 765 l 156 765 l 104 817 l 90 817 l 275 990 m 160 844 l 346 844 l 429 929 l 510 844 l 694 844 l 499 1029 l 429 1029 q 353 1014 385 1031 q 294 971 322 997 l 160 844 z "},"":{"ha":883,"x_min":28,"x_max":879,"o":"m 800 0 l 800 719 l 619 719 l 619 643 l 619 424 q 610 326 619 375 q 580 237 601 276 q 522 172 558 197 q 431 147 486 147 q 322 178 365 147 q 256 257 278 210 q 235 359 235 304 q 258 461 236 414 q 324 540 281 508 q 431 571 367 571 q 514 559 471 571 q 581 513 557 547 q 592 572 593 535 q 573 644 592 608 q 514 708 554 681 q 407 738 474 735 q 276 713 339 740 q 163 636 213 686 q 85 515 114 586 q 56 361 56 444 q 83 205 56 274 q 155 87 110 136 q 259 11 200 38 q 381 -17 318 -15 q 505 3 443 -19 q 619 79 567 26 l 619 0 l 800 0 m 189 19 q 73 156 118 69 q 28 361 28 243 q 60 526 28 451 q 144 656 92 601 q 266 739 197 710 q 408 765 335 768 q 521 735 478 763 q 589 672 564 708 l 592 669 l 592 747 l 828 747 l 828 739 l 879 688 l 879 -79 l 651 -79 l 621 -49 q 536 -86 579 -75 q 447 -97 493 -97 q 316 -71 379 -97 q 203 6 253 -44 l 189 19 m 431 175 q 509 197 478 175 q 558 256 540 219 q 584 335 576 292 q 592 424 592 379 l 592 458 l 586 464 l 583 460 l 576 469 q 529 487 553 482 q 486 492 506 492 q 411 475 443 492 q 358 432 379 458 q 326 371 336 406 q 315 301 315 336 q 320 250 315 275 q 336 203 325 225 q 431 175 375 175 m 186 838 l 185 838 q 147 879 161 854 q 132 932 132 904 q 145 982 132 957 q 188 1026 158 1007 q 244 1053 215 1046 q 301 1061 272 1061 q 389 1047 346 1061 q 471 1013 432 1032 q 516 996 490 1003 q 567 989 542 989 q 604 1001 586 989 q 635 1050 622 1014 q 703 989 679 1028 l 729 964 l 725 967 l 735 958 q 760 925 750 943 q 769 888 769 907 q 758 841 769 865 q 722 797 746 817 q 672 770 699 778 q 618 763 646 763 q 531 776 578 763 q 447 804 485 790 q 397 822 422 813 q 357 831 372 831 q 309 824 332 832 q 275 794 286 817 l 240 786 l 225 799 l 186 838 m 199 861 q 242 901 214 892 q 303 910 271 911 q 375 892 332 910 q 467 858 418 874 q 564 841 515 843 q 651 871 613 839 q 684 913 676 890 q 689 955 692 935 q 676 990 686 975 q 651 1013 665 1006 q 617 972 640 983 q 566 961 594 961 q 509 969 538 961 q 460 988 481 978 q 398 1014 431 1001 q 333 1031 365 1026 q 267 1030 300 1035 q 204 1004 235 1025 q 169 967 179 988 q 160 928 160 947 q 172 891 161 908 q 199 861 182 874 z "},"":{"ha":883,"x_min":28,"x_max":879,"o":"m 800 0 l 800 719 l 619 719 l 619 643 l 619 424 q 610 326 619 375 q 580 237 601 276 q 522 172 558 197 q 431 147 486 147 q 322 178 365 147 q 256 257 278 210 q 235 359 235 304 q 258 461 236 414 q 324 540 281 508 q 431 571 367 571 q 514 559 471 571 q 581 513 557 547 q 592 572 593 535 q 573 644 592 608 q 514 708 554 681 q 407 738 474 735 q 276 713 339 740 q 163 636 213 686 q 85 515 114 586 q 56 361 56 444 q 83 205 56 274 q 155 87 110 136 q 259 11 200 38 q 381 -17 318 -15 q 505 3 443 -19 q 619 79 567 26 l 619 0 l 800 0 m 189 19 q 73 156 118 69 q 28 361 28 243 q 60 526 28 451 q 144 656 92 601 q 266 739 197 710 q 408 765 335 768 q 521 735 478 763 q 589 672 564 708 l 592 669 l 592 747 l 828 747 l 828 739 l 879 688 l 879 -79 l 651 -79 l 621 -49 q 536 -86 579 -75 q 447 -97 493 -97 q 316 -71 379 -97 q 203 6 253 -44 l 189 19 m 431 175 q 509 197 478 175 q 558 256 540 219 q 584 335 576 292 q 592 424 592 379 l 592 458 l 586 464 l 583 460 l 576 469 q 529 487 553 482 q 486 492 506 492 q 411 475 443 492 q 358 432 379 458 q 326 371 336 406 q 315 301 315 336 q 320 250 315 275 q 336 203 325 225 q 431 175 375 175 m 282 1065 q 368 1029 332 1065 q 389 1003 382 1015 l 421 971 q 456 888 456 936 q 421 804 456 839 q 338 769 386 769 q 254 804 289 769 l 222 836 q 196 857 210 843 q 160 943 160 893 q 196 1029 160 993 q 282 1065 232 1065 m 572 1065 q 658 1029 622 1065 q 681 1000 672 1018 l 711 971 q 746 888 746 938 q 711 804 746 838 q 628 769 676 769 q 583 778 603 769 q 544 804 563 788 l 510 838 q 486 857 497 846 q 450 943 450 893 q 486 1029 450 993 q 526 1056 506 1046 q 572 1065 546 1065 m 572 1038 q 506 1010 536 1038 q 478 943 478 982 q 506 876 478 904 q 572 849 536 849 q 639 876 611 849 q 667 943 667 903 q 639 1010 667 983 q 572 1038 611 1038 m 282 1038 q 215 1010 243 1038 q 188 943 188 982 q 215 876 188 904 q 282 849 243 849 q 349 876 321 849 q 376 943 376 904 q 349 1010 376 982 q 282 1038 321 1038 z "},"":{"ha":883,"x_min":28,"x_max":879,"o":"m 800 0 l 800 719 l 619 719 l 619 643 l 619 424 q 610 326 619 375 q 580 237 601 276 q 522 172 558 197 q 431 147 486 147 q 322 178 365 147 q 256 257 278 210 q 235 359 235 304 q 258 461 236 414 q 324 540 281 508 q 431 571 367 571 q 514 559 471 571 q 581 513 557 547 q 592 572 593 535 q 573 644 592 608 q 514 708 554 681 q 407 738 474 735 q 276 713 339 740 q 163 636 213 686 q 85 515 114 586 q 56 361 56 444 q 83 205 56 274 q 155 87 110 136 q 259 11 200 38 q 381 -17 318 -15 q 505 3 443 -19 q 619 79 567 26 l 619 0 l 800 0 m 189 19 q 73 156 118 69 q 28 361 28 243 q 60 526 28 451 q 144 656 92 601 q 266 739 197 710 q 408 765 335 768 q 521 735 478 763 q 589 672 564 708 l 592 669 l 592 747 l 828 747 l 828 739 l 879 688 l 879 -79 l 651 -79 l 621 -49 q 536 -86 579 -75 q 447 -97 493 -97 q 316 -71 379 -97 q 203 6 253 -44 l 189 19 m 431 175 q 509 197 478 175 q 558 256 540 219 q 584 335 576 292 q 592 424 592 379 l 592 458 l 586 464 l 583 460 l 576 469 q 529 487 553 482 q 486 492 506 492 q 411 475 443 492 q 358 432 379 458 q 326 371 336 406 q 315 301 315 336 q 320 250 315 275 q 336 203 325 225 q 431 175 375 175 z "},"":{"ha":1439,"x_min":28,"x_max":1436,"o":"m 917 261 q 942 185 922 221 q 996 164 967 168 q 1046 162 1019 160 q 1099 175 1072 164 q 947 232 997 179 l 917 261 m 1094 501 q 964 436 1017 497 q 997 429 981 431 q 1029 428 1014 428 q 1096 432 1063 428 q 1151 447 1135 435 q 1168 474 1168 458 q 1167 481 1168 478 q 1165 489 1167 485 q 1132 499 1150 496 q 1094 501 1114 503 m 431 174 q 509 196 478 174 q 558 254 540 218 q 584 334 576 290 q 592 422 592 378 l 592 457 l 590 458 q 585 461 588 461 l 583 458 q 578 467 581 461 q 530 485 554 479 q 486 490 506 490 q 411 474 443 490 q 358 431 379 457 q 326 369 336 404 q 315 300 315 335 q 320 249 315 274 q 336 201 325 224 q 431 174 375 174 m 189 18 q 73 155 118 68 q 28 360 28 242 q 60 525 28 450 q 144 654 92 600 q 266 738 197 708 q 408 764 335 767 q 522 734 478 761 q 589 671 565 707 l 592 669 l 592 746 l 828 746 l 828 738 l 847 717 q 944 748 893 739 q 1047 757 994 757 q 1222 719 1150 757 q 1335 622 1294 681 l 1354 603 q 1413 516 1393 564 q 1433 419 1433 468 q 1394 289 1433 349 q 1271 199 1354 229 l 1386 143 q 1383 139 1383 140 l 1436 86 q 1281 -60 1367 -17 q 1088 -104 1194 -104 q 974 -89 1026 -104 q 879 -50 922 -74 l 879 -81 l 651 -81 l 621 -50 q 536 -87 579 -76 q 447 -99 493 -99 q 316 -72 379 -99 q 203 4 253 -46 l 189 18 m 1174 268 q 1289 327 1246 286 q 1347 419 1332 368 q 1349 526 1361 471 q 1297 626 1336 581 q 1196 700 1258 671 q 1047 729 1133 729 q 917 711 981 729 q 800 651 853 693 l 800 718 l 619 718 l 619 642 l 619 422 q 610 324 619 374 q 580 235 601 275 q 522 171 558 196 q 431 146 486 146 q 322 177 365 146 q 256 256 278 208 q 235 358 235 303 q 258 460 236 413 q 324 538 281 507 q 431 569 367 569 q 513 558 469 569 q 581 511 557 546 q 592 570 593 533 q 573 643 592 607 q 514 706 554 679 q 407 736 474 733 q 276 712 339 739 q 163 635 213 685 q 85 514 114 585 q 56 360 56 443 q 83 203 56 272 q 155 85 110 135 q 259 10 200 36 q 381 -19 318 -17 q 505 3 443 -21 q 619 78 567 26 l 619 -1 l 800 -1 l 800 50 q 902 -5 844 15 q 1032 -25 960 -25 q 1210 12 1132 -25 q 1346 133 1288 49 l 1199 204 q 1100 144 1156 161 q 992 136 1044 126 q 925 163 954 142 q 875 216 896 185 q 844 285 854 247 q 835 361 833 322 q 853 448 836 408 q 897 516 869 488 q 961 561 925 544 q 1038 581 997 578 q 1106 571 1075 582 q 1159 542 1138 560 q 1190 501 1181 524 q 1194 459 1200 479 q 1166 424 1189 439 q 1099 404 1143 408 q 989 402 1046 399 q 889 442 932 406 q 882 349 868 390 q 935 284 896 308 q 1037 254 975 260 q 1174 268 1099 249 z "},"":{"ha":804,"x_min":39,"x_max":831,"o":"m 193 38 q 78 179 117 94 q 39 357 39 264 q 88 555 39 460 q 238 707 138 650 q 336 746 283 732 q 443 760 389 760 q 474 759 458 760 q 501 756 489 758 q 616 718 569 744 q 690 656 663 692 l 725 621 q 767 558 754 592 q 781 492 781 524 q 764 422 781 454 q 715 375 747 390 l 682 389 l 633 436 l 622 442 q 617 453 619 449 q 611 465 614 458 q 511 488 564 488 q 449 479 479 488 q 392 454 418 471 q 346 410 365 438 q 318 346 326 383 q 314 300 314 326 q 319 253 314 276 q 335 210 324 229 q 379 188 354 196 q 436 181 404 181 q 604 271 535 181 l 781 144 q 778 140 778 142 l 831 88 q 724 -19 782 21 q 599 -76 667 -58 q 626 -117 618 -96 q 635 -162 635 -139 q 624 -211 635 -187 q 593 -255 614 -235 q 542 -290 572 -275 q 475 -308 513 -304 q 397 -300 429 -311 q 343 -268 364 -289 l 310 -235 q 263 -186 278 -215 q 249 -126 249 -157 q 265 -64 249 -96 q 307 -90 289 -81 q 340 -106 325 -100 l 314 -79 l 304 -79 l 310 -49 q 256 -17 281 -35 q 211 21 232 0 l 193 38 m 649 451 q 697 508 683 468 q 694 594 710 549 q 632 677 679 639 q 499 728 585 715 q 370 726 435 738 q 250 682 306 714 q 138 581 181 642 q 78 451 94 521 q 69 308 61 381 q 112 174 78 236 q 205 65 146 111 q 347 0 264 18 l 338 -51 l 374 -50 q 434 -74 424 -51 q 426 -115 444 -96 q 366 -137 407 -133 q 275 -104 325 -140 q 267 -149 264 -125 q 288 -192 269 -172 q 338 -222 306 -211 q 417 -229 369 -233 q 510 -194 476 -224 q 553 -130 544 -165 q 544 -60 561 -94 q 483 -10 526 -26 l 476 -8 q 742 138 643 4 l 610 233 q 436 153 547 153 q 336 176 378 153 q 269 236 294 200 q 238 317 244 272 q 240 407 231 363 q 285 496 253 461 q 358 548 317 531 q 447 567 400 565 q 535 555 493 568 q 607 515 576 542 q 649 451 638 489 z "}}}
